<mxfile host="app.diagrams.net" agent="Mozilla/5.0 (Macintosh; Intel Mac OS X 10_15_7) AppleWebKit/537.36 (KHTML, like Gecko) Chrome/129.0.0.0 Safari/537.36" version="24.7.17">
  <diagram name="Page-1" id="Efre1H5M8emzIjq_bdUC">
    <mxGraphModel dx="1247" dy="691" grid="1" gridSize="10" guides="1" tooltips="1" connect="1" arrows="1" fold="1" page="1" pageScale="1" pageWidth="850" pageHeight="1100" math="0" shadow="0">
      <root>
        <mxCell id="0" />
        <mxCell id="1" parent="0" />
        <mxCell id="YgXDNj5GHgHn8prNvWCJ-2" value="" style="shape=partialRectangle;whiteSpace=wrap;html=1;bottom=1;right=1;left=1;top=0;fillColor=none;routingCenterX=-0.5;rotation=90;strokeWidth=2;" vertex="1" parent="1">
          <mxGeometry x="181" y="197.5" width="120" height="10" as="geometry" />
        </mxCell>
        <mxCell id="YgXDNj5GHgHn8prNvWCJ-3" value="" style="shape=partialRectangle;whiteSpace=wrap;html=1;bottom=1;right=1;left=1;top=0;fillColor=none;routingCenterX=-0.5;rotation=-90;strokeWidth=2;" vertex="1" parent="1">
          <mxGeometry x="301" y="197.5" width="120" height="10" as="geometry" />
        </mxCell>
        <mxCell id="YgXDNj5GHgHn8prNvWCJ-4" value="" style="endArrow=blockThin;html=1;rounded=0;endFill=1;" edge="1" parent="1">
          <mxGeometry width="50" height="50" relative="1" as="geometry">
            <mxPoint x="199" y="153.5" as="sourcePoint" />
            <mxPoint x="229" y="153.5" as="targetPoint" />
          </mxGeometry>
        </mxCell>
        <mxCell id="YgXDNj5GHgHn8prNvWCJ-5" value="" style="endArrow=blockThin;html=1;rounded=0;endFill=1;" edge="1" parent="1">
          <mxGeometry width="50" height="50" relative="1" as="geometry">
            <mxPoint x="199" y="253.5" as="sourcePoint" />
            <mxPoint x="229" y="253.5" as="targetPoint" />
          </mxGeometry>
        </mxCell>
        <mxCell id="YgXDNj5GHgHn8prNvWCJ-6" value="&lt;font face=&quot;Courier New&quot;&gt;[0,:]&lt;/font&gt;" style="text;html=1;align=center;verticalAlign=middle;whiteSpace=wrap;rounded=0;" vertex="1" parent="1">
          <mxGeometry x="151" y="142.5" width="50" height="20" as="geometry" />
        </mxCell>
        <mxCell id="YgXDNj5GHgHn8prNvWCJ-7" value="&lt;font face=&quot;Courier New&quot;&gt;[-1,:]&lt;/font&gt;" style="text;html=1;align=center;verticalAlign=middle;whiteSpace=wrap;rounded=0;" vertex="1" parent="1">
          <mxGeometry x="151" y="245.5" width="50" height="15" as="geometry" />
        </mxCell>
        <mxCell id="YgXDNj5GHgHn8prNvWCJ-8" value="" style="endArrow=open;html=1;rounded=0;startArrow=open;startFill=0;endFill=0;strokeColor=#CCCCCC;" edge="1" parent="1">
          <mxGeometry width="50" height="50" relative="1" as="geometry">
            <mxPoint x="381" y="265" as="sourcePoint" />
            <mxPoint x="381" y="140" as="targetPoint" />
          </mxGeometry>
        </mxCell>
        <mxCell id="YgXDNj5GHgHn8prNvWCJ-9" value="" style="endArrow=open;html=1;rounded=0;startArrow=open;startFill=0;endFill=0;strokeColor=#CCCCCC;" edge="1" parent="1">
          <mxGeometry width="50" height="50" relative="1" as="geometry">
            <mxPoint x="236" y="279.5" as="sourcePoint" />
            <mxPoint x="366" y="279.5" as="targetPoint" />
          </mxGeometry>
        </mxCell>
        <mxCell id="YgXDNj5GHgHn8prNvWCJ-10" value="&lt;font color=&quot;#cccccc&quot;&gt;Image&lt;/font&gt;&lt;div&gt;&lt;font color=&quot;#cccccc&quot;&gt;height&lt;/font&gt;&lt;/div&gt;" style="text;html=1;align=center;verticalAlign=middle;whiteSpace=wrap;rounded=0;" vertex="1" parent="1">
          <mxGeometry x="382" y="187.5" width="43" height="30" as="geometry" />
        </mxCell>
        <mxCell id="YgXDNj5GHgHn8prNvWCJ-11" value="&lt;font color=&quot;#cccccc&quot;&gt;Image&amp;nbsp;&lt;/font&gt;&lt;span style=&quot;color: rgb(204, 204, 204); background-color: initial;&quot;&gt;width&lt;/span&gt;" style="text;html=1;align=center;verticalAlign=middle;whiteSpace=wrap;rounded=0;" vertex="1" parent="1">
          <mxGeometry x="251" y="285.5" width="100" height="10" as="geometry" />
        </mxCell>
        <mxCell id="YgXDNj5GHgHn8prNvWCJ-12" value="-component&amp;nbsp;&lt;div&gt;of velocity&lt;/div&gt;" style="text;html=1;align=center;verticalAlign=middle;whiteSpace=wrap;rounded=0;" vertex="1" parent="1">
          <mxGeometry x="256" y="186.5" width="90" height="31" as="geometry" />
        </mxCell>
        <mxCell id="YgXDNj5GHgHn8prNvWCJ-13" value="" style="shape=image;verticalLabelPosition=bottom;labelBackgroundColor=default;verticalAlign=top;aspect=fixed;imageAspect=0;image=data:image/svg+xml,PHN2ZyB4bWxuczp4bGluaz0iaHR0cDovL3d3dy53My5vcmcvMTk5OS94bGluayIgeG1sbnM9Imh0dHA6Ly93d3cudzMub3JnLzIwMDAvc3ZnIiBzdHlsZT0iIiBhcmlhLWhpZGRlbj0idHJ1ZSIgdmlld0JveD0iMCAtNDQzIDQ4NSA0NTQiIGhlaWdodD0iOC4yMTZweCIgd2lkdGg9IjguNzc2cHgiPjxkZWZzPjxwYXRoIGQ9Ik0xNzMgMzgwUTE3MyA0MDUgMTU0IDQwNVExMzAgNDA1IDEwNCAzNzZUNjEgMjg3UTYwIDI4NiA1OSAyODRUNTggMjgxVDU2IDI3OVQ1MyAyNzhUNDkgMjc4VDQxIDI3OEgyN1EyMSAyODQgMjEgMjg3UTIxIDI5NCAyOSAzMTZUNTMgMzY4VDk3IDQxOVQxNjAgNDQxUTIwMiA0NDEgMjI1IDQxN1QyNDkgMzYxUTI0OSAzNDQgMjQ2IDMzNVEyNDYgMzI5IDIzMSAyOTFUMjAwIDIwMlQxODIgMTEzUTE4MiA4NiAxODcgNjlRMjAwIDI2IDI1MCAyNlEyODcgMjYgMzE5IDYwVDM2OSAxMzlUMzk4IDIyMlQ0MDkgMjc3UTQwOSAzMDAgNDAxIDMxN1QzODMgMzQzVDM2NSAzNjFUMzU3IDM4M1EzNTcgNDA1IDM3NiA0MjRUNDE3IDQ0M1E0MzYgNDQzIDQ1MSA0MjVUNDY3IDM2N1E0NjcgMzQwIDQ1NSAyODRUNDE4IDE1OVQzNDcgNDBUMjQxIC0xMVExNzcgLTExIDEzOSAyMlExMDIgNTQgMTAyIDExN1ExMDIgMTQ4IDExMCAxODFUMTUxIDI5OFExNzMgMzYyIDE3MyAzODBaIiBpZD0iTUpYLTUtVEVYLUktMUQ0NjMiLz48L2RlZnM+PGcgdHJhbnNmb3JtPSJzY2FsZSgxLC0xKSIgc3Ryb2tlLXdpZHRoPSIwIiBmaWxsPSIjMDAwMDAwIiBzdHJva2U9IiMwMDAwMDAiPjxnIGRhdGEtbW1sLW5vZGU9Im1hdGgiPjxnIGRhdGEtbW1sLW5vZGU9Im1pIj48dXNlIHhsaW5rOmhyZWY9IiNNSlgtNS1URVgtSS0xRDQ2MyIgZGF0YS1jPSIxRDQ2MyIvPjwvZz48L2c+PC9nPjwvc3ZnPg==;" vertex="1" parent="1">
          <mxGeometry x="258" y="192.5" width="9" height="8" as="geometry" />
        </mxCell>
        <mxCell id="YgXDNj5GHgHn8prNvWCJ-17" value="Lower-left origin" style="text;html=1;align=center;verticalAlign=middle;whiteSpace=wrap;rounded=0;" vertex="1" parent="1">
          <mxGeometry x="120" y="319" width="120" height="31" as="geometry" />
        </mxCell>
        <mxCell id="YgXDNj5GHgHn8prNvWCJ-18" value="Upper-left origin" style="text;html=1;align=center;verticalAlign=middle;whiteSpace=wrap;rounded=0;" vertex="1" parent="1">
          <mxGeometry x="382" y="319" width="120" height="31" as="geometry" />
        </mxCell>
        <mxCell id="YgXDNj5GHgHn8prNvWCJ-22" value="" style="shape=image;verticalLabelPosition=bottom;labelBackgroundColor=default;verticalAlign=top;aspect=fixed;imageAspect=0;image=data:image/svg+xml,PHN2ZyB4bWxucz0iaHR0cDovL3d3dy53My5vcmcvMjAwMC9zdmciIHhtbG5zOnhsaW5rPSJodHRwOi8vd3d3LnczLm9yZy8xOTk5L3hsaW5rIiB2ZXJzaW9uPSIxLjEiIHZpZXdCb3g9IjAgMCAyOTkuNTY3OTM4IDIzOC43OTYyNSIgaGVpZ2h0PSIyMzguNzk2MjVwdCIgd2lkdGg9IjI5OS41Njc5MzhwdCI+JiN4YTsgPG1ldGFkYXRhPiYjeGE7ICAmI3hhOyAgICYjeGE7ICAgICYjeGE7ICAgIDIwMjQtMTAtMDRUMTA6NDE6MjQuMTk3ODIyJiN4YTsgICAgaW1hZ2Uvc3ZnK3htbCYjeGE7ICAgICYjeGE7ICAgICAmI3hhOyAgICAgIE1hdHBsb3RsaWIgdjMuNy4yLCBodHRwczovL21hdHBsb3RsaWIub3JnLyYjeGE7ICAgICAmI3hhOyAgICAmI3hhOyAgICYjeGE7ICAmI3hhOyA8L21ldGFkYXRhPiYjeGE7IDxkZWZzPiYjeGE7ICA8c3R5bGUgdHlwZT0idGV4dC9jc3MiPip7c3Ryb2tlLWxpbmVqb2luOiByb3VuZDsgc3Ryb2tlLWxpbmVjYXA6IGJ1dHR9PC9zdHlsZT4mI3hhOyA8L2RlZnM+JiN4YTsgPGcgaWQ9ImZpZ3VyZV8xIj4mI3hhOyAgPGcgaWQ9InBhdGNoXzEiPiYjeGE7ICAgPHBhdGggc3R5bGU9ImZpbGw6ICNmZmZmZmYiIGQ9Ik0gMCAyMzguNzk2MjUgJiMxMDtMIDI5OS41Njc5MzggMjM4Ljc5NjI1ICYjMTA7TCAyOTkuNTY3OTM4IDAgJiMxMDtMIDAgMCAmIzEwO3oiLz4mI3hhOyAgPC9nPiYjeGE7ICA8ZyBpZD0iYXhlc18xIj4mI3hhOyAgIDxnIGlkPSJwYXRjaF8yIj4mI3hhOyAgICA8cGF0aCBzdHlsZT0iZmlsbDogI2ZmZmZmZiIgZD0iTSA0MC42MDMxMjUgMjAxLjI0ICYjMTA7TCAyMzQuNjQzMTI1IDIwMS4yNCAmIzEwO0wgMjM0LjY0MzEyNSA3LjIgJiMxMDtMIDQwLjYwMzEyNSA3LjIgJiMxMDt6Ii8+JiN4YTsgICA8L2c+JiN4YTsgICA8ZyBjbGlwLXBhdGg9InVybCgjcDQ4Mzg4NGU1YmMpIj4mI3hhOyAgICA8aW1hZ2UgaGVpZ2h0PSIxOTQuMTYiIHdpZHRoPSIxOTQuMTYiIHk9Ii03LjA4IiB4PSI0MC42MDMxMjUiIHRyYW5zZm9ybT0ic2NhbGUoMSAtMSkgdHJhbnNsYXRlKDAgLTE5NC4xNikiIGlkPSJpbWFnZTU3NWU0YjBjNTEiIHhsaW5rOmhyZWY9ImRhdGE6aW1hZ2UvcG5nO2Jhc2U2NCwmIzEwO2lWQk9SdzBLR2dvQUFBQU5TVWhFVWdBQUF5a0FBQU1wQ0FZQUFBQUFhbnhxQUFBcEFrbEVRVlI0bk8zWlNaSXNPNUFjUU1lUTdQdWZtRnpVdjRHRkNPeXhWZmNPT0lhTUNLdGFzK2IvVG1DdG5aVFAyamVzLzBYMU14K3M0YVpyT0ZIOUR1dlQ5Yy9NN0pQMU1DdGNRemgvZWc4bnJmL2dETlo1dTRaMS9rODJmOWgvZklhVDcySDhQQXJuM3pjN2cvaDVmRDU0SHFkclNQY3dQTU40L3ZzL1VmM016RTU3Q004eDNjTzAvNVAyLzhFOWpuc0kzK3YzWnZQZitIZVVQNDlQK0Y3L3hmY29tLytFWjNoTzlsMlF6ajh6czlmS2VnalhrSDhaQVFBQWZFaElBUUFBcWdncEFBQkFGU0VGQUFDb0lxUUFBQUJWaEJRQUFLQ0trQUlBQUZRUlVnQUFnQ3BDQ2dBQVVFVklBUUFBcWdncEFBQkFGU0VGQUFDb0lxUUFBQUJWaEJRQUFLQ0trQUlBQUZTNWE0VTVKYXhmNjRUMWVjNWE1MjBQYTYyb2ZzTDZlUDZaRCs1QjJrTjZEeDZmd2M3dTROOGc0VDFPZTNoOUR3dnU4Zk43RU85aHVQNFA3bkY2RDFiNkxIaDhobDg4aitOM1V2ZzhqTS93K1hmSkYyZVFqWEhpNzVLM1o1RDJQek56NHQvUzIzdVExdS9IOVRNejUyUjdHSzhocWdZQUFQaVlrQUlBQUZRUlVnQUFnQ3BDQ2dBQVVFVklBUUFBcWdncEFBQkFGU0VGQUFDb0lxUUFBQUJWaEJRQUFLQ0trQUlBQUZRUlVnQUFnQ3BDQ2dBQVVFVklBUUFBcWdncEFBQkFGU0VGQUFDb2NtZGxPV1dGOWVuOHMxZFdQek96d2pIQytuUVAxNFR6N3kreWFyaUhZUThyUHNOMEQ5N2VvVy9HZUwyR3g4K2ltVm5yWkFQc3NQNzFIb2I5eDcvRHZ5YkM4bkFOOFI0OGZpZk9GM3R3bjg2L245ZG42LytpaC9RZW5YRCt0SDUvOEN5STEzRGU3dUY5UEgrNi9wbVorL2piekg5U0FBQ0FLa0lLQUFCUVJVZ0JBQUNxQ0NrQUFFQVZJUVVBQUtnaXBBQUFBRldFRkFBQW9JcVFBZ0FBVkJGU0FBQ0FLa0lLQUFCUVJVZ0JBQUNxQ0NrQUFFQVZJUVVBQUtnaXBBQUFBRldFRkFBQW9JcVFBZ0FBVkxsclpUbGxyUlBXcC9Qbk9TdnZZYVVOUEo3L2l6ME1lMGp6Y3JxRzUzdjR3ZDhMNGoxNFhML1QrdXhaTkRQUGY0c3JYRU5hLy81M2tMOVQ4ak1NM3dmaEdld1A3dkdheC9mNDhiTWs3ejk5bjgzczhIbVczb085YjFTL3d2N1BCL2Q0Nyt3YzBoN3VlYnNISjV6L3B1L1V5WDhMSnp4RC8wa0JBQUNxQ0NrQUFFQVZJUVVBQUtnaXBBQUFBRldFRkFBQW9JcVFBZ0FBVkJGU0FBQ0FLa0lLQUFCUVJVZ0JBQUNxQ0NrQUFFQVZJUVVBQUtnaXBBQUFBRldFRkFBQW9JcVFBZ0FBVkJGU0FBQ0FLbmV0RXcydzlzMDYyQ3VyWDJIOUIyT3NsV1c5SGRhdm5XYk5EL1l3N0dHbDV4anVZVm9mbjBGOGh2azl6TTh3Zkphay9YOXhqOU43dUxNOWlQOXVsRDdMd3Y3VCtyOUIvdkUxeE0rU2ZBL1Q5M0xhdzM1ZW42MC9uZitMTVU2NkIrSHZLSjMvbkh3UDR6MEl2eS96UGNpZUJmZjFkOVhNbkhBUGI3Z0gvcE1DQUFCVUVWSUFBSUFxUWdvQUFGQkZTQUVBQUtvSUtRQUFRQlVoQlFBQXFDS2tBQUFBVllRVUFBQ2dpcEFDQUFCVUVWSUFBSUFxUWdvQUFGQkZTQUVBQUtvSUtRQUFRQlVoQlFBQXFDS2tBQUFBVmU3YU54dGhyNmg4N2ZPMGZtWm1wejJzTU91dGJBOG5uSC90TDdKcXVnZGhmYnFHZFA3WDYvOWlqTmYzdU9CWkVEK1A0dC9pNHoxSSsxL09JSDZmVFBnN21vSTFQSjQvclQ4bi9DNmFtWlAyRUsvaDhmd2ZQSS9QeVg3TGFRODdmS2ZkOEx2a3BOL1g2VHQ1Wm01OEJsa1AvcE1DQUFCVUVWSUFBSUFxUWdvQUFGQkZTQUVBQUtvSUtRQUFRQlVoQlFBQXFDS2tBQUFBVllRVUFBQ2dpcEFDQUFCVUVWSUFBSUFxUWdvQUFGQkZTQUVBQUtvSUtRQUFRQlVoQlFBQXFDS2tBQUFBVmU3c0ZRMnc5c25xVjVhVDFzcjYvMitRcHozazlXSFcvR0FQMTA1N1NQTnllby9EK2NQNitBdy82U0g4TFlmUGd2UU12N2pIazY0aDNNUDRXWlErangvWE4vVHd2djVHOVRNZnZGUENIbmE0QjJuOU9XL24veHNqMjhOMERTZmV3K3g5a3RiUDVHdTQ0VHZ4ZDlNenlINkhKK3gvaC9QLzlaQ05rZmJnUHlrQUFFQVZJUVVBQUtnaXBBQUFBRldFRkFBQW9JcVFBZ0FBVkJGU0FBQ0FLa0lLQUFCUVJVZ0JBQUNxQ0NrQUFFQVZJUVVBQUtnaXBBQUFBRldFRkFBQW9JcVFBZ0FBVkJGU0FBQ0FLa0lLQUFCUTVhNlY1WlM0ZnFmMUo2cWZtZG1QMXpBclhNTmFZWG0raHpOWkQvUDZIc1Jua042QkQvNWVrSTZSM3VQd0ROSXovT0paOExxSDUvV1BuMFV6RFh1UXZoUGYzK01kanBIWDM4ZnpaL1huZ3pNNDUyMFB6K2YvWUE5ditFNDZKNnpmMmZQc3hQMm44My93UEE2ZjZXa1AvcE1DQUFCVUVWSUFBSUFxUWdvQUFGQkZTQUVBQUtvSUtRQUFRQlVoQlFBQXFDS2tBQUFBVllRVUFBQ2dpcEFDQUFCVUVWSUFBSUFxUWdvQUFGQkZTQUVBQUtvSUtRQUFRQlVoQlFBQXFDS2tBQUFBVmU3YUp4cGc3U3puckJYV3o0cnEvMnNpckEvWEVPN2hyT3dNNC9YUHpJVDM2UGthd3ZyMEhrOTZCMlptaFhzWS94YlRNMHp2VUZyL04waFVuVDlQMys3QjgvNW5adTM3dEllMGZqK3VuOG4zOFBVYXpzbjZQK244SDV4QjNNUEo2bSs0aC9ka3o4TDd3VHZ0aEQzOHd2b1RydUdjN0x2aTdMZjFNek1uL2piSzV2ZWZGQUFBb0lxUUFnQUFWQkZTQUFDQUtrSUtBQUJRUlVnQkFBQ3FDQ2tBQUVBVklRVUFBS2dpcEFBQUFGV0VGQUFBb0lxUUFnQUFWQkZTQUFDQUtrSUtBQUJRUlVnQkFBQ3FDQ2tBQUVBVklRVUFBS2dpcEFBQUFGWHUybGxPV2V0eGZkai8zeGducXcvWE1HdGw1ZWtlckd6OS96V1JsWWQ3a0s0aHZRT1QzcUYwL3BtWjlCNmtQY1QzK1AwZS91djNZRDMrSFRTY1FWcS85Ky94L1BrZW5uT2Y5bkRPMnozWU8xdC8ydi9NekVuM01LeS9KM3NmL01JN2RNTDUvM3JJeGpqaE8vR2M3SjEyOXVQNjlMdHFabmE4aG5EK3JCd0FBT0JiUWdvQUFGQkZTQUVBQUtvSUtRQUFRQlVoQlFBQXFDS2tBQUFBVllRVUFBQ2dpcEFDQUFCVUVWSUFBSUFxUWdvQUFGQkZTQUVBQUtvSUtRQUFRQlVoQlFBQXFDS2tBQUFBVllRVUFBQ2d5bDByeXlseC9VN3JUMVEvazY5aDBqV3NjQTFwZmRqL3pBZm5FSy9oZi9uOGs1OUJmQS9UK1YvMy8wVVA2VDE0dllkeC9ZM3FaMloyMk1NTzcwRzZCMm4vWDd6VGRuZ084Um1FOVNlcy85MXMvZmY4b3ZvdmVqZ25leStuZTVqTy93dnJaMlpPK0cxeXpvcnFiM3dHMmZ4aCsvSDhNL25uWWRxQy82UUFBQUJWaEJRQUFLQ0trQUlBQUZRUlVnQUFnQ3BDQ2dBQVVFVklBUUFBcWdncEFBQkFGU0VGQUFDb0lxUUFBQUJWaEJRQUFLQ0trQUlBQUZRUlVnQUFnQ3BDQ2dBQVVFVklBUUFBcWdncEFBQkFsYnRXbGxQV1R1dFBWaC8yUHpNejZScFd0b1pKMTdCV1dCLzIvMFVQOFJtRWUvajREcVMvZzc5QndqRWUvNWJ6L2ovWXcvUjVGRC9QSHM4ZjF1OXpvL3B2ZXZobDlmRWVabnR3d3Y1bjhqV2M4Qnh2dUlaN3Mvb1Ryei8vcmtqSCtJVm44THZoSG9Udmc3UitadVozc3pIMnpyNUxUbG9mZmhhbDgzOXdCTS8zd0g5U0FBQ0FLa0lLQUFCUVJVZ0JBQUNxQ0NrQUFFQVZJUVVBQUtnaXBBQUFBRldFRkFBQW9JcVFBZ0FBVkJGU0FBQ0FLa0lLQUFCUVJVZ0JBQUNxQ0NrQUFFQVZJUVVBQUtnaXBBQUFBRldFRkFBQW9NcGRPOHNwYTUrd2hSV1doL1V6RTJlMUZkYW5leGpPbjk2QnYwR3lOY1QzS0t6UDUzOThCeVpmUTF4Lzd0djVQOWpEbmE3aDhlL2dYNitmZWIrSE82dy80UjFLNS8vcklSdmpobXM0NlI3R1ovQjIvaS9HT0NkN3A1enduZlFMNS8vZC9MdGk3K3o3N29UMU41NC9Lby9yOXdmZngya1BhUXYra3dJQUFGUVJVZ0FBZ0NwQ0NnQUFVRVZJQVFBQXFnZ3BBQUJBRlNFRkFBQ29JcVFBQUFCVmhCUUFBS0NLa0FJQUFGUVJVZ0FBZ0NwQ0NnQUFVRVZJQVFBQXFnZ3BBQUJBRlNFRkFBQ29JcVFBQUFCVjd0b25HbUN0TU9lc0ZkWm4vYy9NckIydUlkekRDZmN3UGNNdjlqRGZnN0QrOGZ6NTc2amdEQjZ2SWQ3RGRQMHorUjZFOWZ2OHd2bnYwL24zQi9jNDd1SHhHZXp3RE83TjVwK1pPZi80R240M25QOWs5ZW44ZjJOazkvQjMwdnJzdStKM3MvcTl3Mis3bWZtRlk2UTloRnM0OTRUemgxdVlmdHJPNUovbzhScXljZ0FBZ0c4SktRQUFRQlVoQlFBQXFDS2tBQUFBVllRVUFBQ2dpcEFDQUFCVUVWSUFBSUFxUWdvQUFGQkZTQUVBQUtvSUtRQUFRQlVoQlFBQXFDS2tBQUFBVllRVUFBQ2dpcEFDQUFCVUVWSUFBSUFxZDYwd3ArdzA1MlQxSzU1L1p0WUo2OU0xcFBPSDllbjhNL1A2SHExd0Q5NmZRWDZQMHpXcy9jc2FTUGN3N2YrRS9jOEg5K2pjckQ3Y2cvMTgvdndNOXVNZTB2bFBlQWJwL0RNekp4empkN00xcFBPbjlmZGt6OVBmemMvZ2Q4SXpDTmR3em9ycTk4N3FmMkg5Rnoya3gzakMrY01qaUQ4TDB2bS82Q0c5QnY2VEFnQUFWQkZTQUFDQUtrSUtBQUJRUlVnQkFBQ3FDQ2tBQUVBVklRVUFBS2dpcEFBQUFGV0VGQUFBb0lxUUFnQUFWQkZTQUFDQUtrSUtBQUJRUlVnQkFBQ3FDQ2tBQUVBVklRVUFBS2dpcEFBQUFGV0VGQUFBb01xZG5lYVVySDZsODYrVDFjOU11Z2RyaHoya2EwajdYeDlrMVhPekh0STlUTzlST0gvYWY3eittVm1QeitCNS9RZlBndWRyZUYwZjd1RVg5M2lmWDFZZjluREMrVS80Tzd6aC9ETXo5NFpyQ1Bmd2Q3TTkrTjF3L3ZRTTR1K2ltYk5YVm4reStudXlOZnpDL20vWS8weitXci9wR2FTZkZXRjl1b1VmWE9QblBmaFBDZ0FBVUVWSUFRQUFxZ2dwQUFCQUZTRUZBQUNvSXFRQUFBQlZoQlFBQUtDS2tBSUFBRlFSVWdBQWdDcENDZ0FBVUVWSUFRQUFxZ2dwQUFCQUZTRUZBQUNvSXFRQUFBQlZoQlFBQUtDS2tBSUFBRlM1YTUxc2hMWEMrbkQrL1VIT2l2Zmc3UnJXVHVjUDY3L29JZHpEZFA3NGQ1RE9mMzdaL0pPdklkN0RlQS91MC9sblpuWjREbXRuYTBqbjMrRWRpT2YvNGd6Q01VNjRobk95K1c5NGo4OEhlL2dMZTdnM1hNUEozbWxwLzcrYm5tSCtYZkc3MlJocEQ3K2RmWnZkazlWLzhXbDJ3eldreHhnZVlid0g0ZkxqOVgvUlE3d0hXVGtBQU1DM2hCUUFBS0NLa0FJQUFGUVJVZ0FBZ0NwQ0NnQUFVRVZJQVFBQXFnZ3BBQUJBRlNFRkFBQ29JcVFBQUFCVmhCUUFBS0NLa0FJQUFGUVJVZ0FBZ0NwQ0NnQUFVRVZJQVFBQXFnZ3BBQUJBbFRzcnpDbjdaUFZyaGZYaC9ET3pkcm9IV2YxSzkzRGZzRDdmdy9RYzFzbldzUFl2cXA5MC9yRCtpM3NjbjJOWXYwNTJCdXZ4SFpySmY0czd2c2ZwL05rWjdNZnp6OHljeDJ2STU4L3V3TDFmN0dHMkI3K2JyZUVYL2c3T3lkNnBONnovM2Z6dnQzRVBPL3MydWlldGo4cG5wOTkySC9RUWJzR0VQNk40L3ZqVE5EK0NDYTl4M0lQL3BBQUFBRldFRkFBQW9JcVFBZ0FBVkJGU0FBQ0FLa0lLQUFCUVJVZ0JBQUNxQ0NrQUFFQVZJUVVBQUtnaXBBQUFBRldFRkFBQW9JcVFBZ0FBVkJGU0FBQ0FLa0lLQUFCUVJVZ0JBQUNxQ0NrQUFFQ1ZPL3RrSTZ3dzU0VDFhMytRcy9ZTmUwajNNS3dQNTEvcC9OT3dCK2s5Q3Zmd2NmMFhZK3dUL2c3Q005em5sODMveFI0KzdtSHZ4L09INno5aC9jek1EdGR3YjdpR2NQN2Z6WDVINmZ3ek16ZjhMZWQ3RU5hZjdIbCtIOWZQelB6MkNudEk2NlB5MmV2dC9ETXpOenlHOVBNd25qL2J3cmovOEFwVjlPQS9LUUFBUUJVaEJRQUFxQ0trQUFBQVZZUVVBQUNnaXBBQ0FBQlVFVklBQUlBcVFnb0FBRkJGU0FFQUFLb0lLUUFBUUJVaEJRQUFxQ0trQUFBQVZZUVVBQUNnaXBBQ0FBQlVFVklBQUlBcVFnb0FBRkRsenNweXl0b242MkNGOVR2UFdmLzZHbFk0L3pvM3FwK1ptWEFQMHpONFhwK2VRWG9IWjJhZFh6YkE2ejJNNi9ON3ZNTWU5czdPSU4yREU5NkJmUDM1UGI0M1c4TUplMGpuditFWi9HNStqOU14ZmpmYnc5L0ozbW5wL1Blc3FQN3NyUDZMSHNJdG1MM2V6bjgvK0JONGVJMysrZnIwR241d2pkK3ZJU3NIQUFENGxwQUNBQUJVRVZJQUFJQXFRZ29BQUZCRlNBRUFBS29JS1FBQVFCVWhCUUFBcUNLa0FBQUFWWVFVQUFDZ2lwQUNBQUJVRVZJQUFJQXFRZ29BQUZCRlNBRUFBS29JS1FBQVFCVWhCUUFBcUNLa0FBQUFWZTdhSnh0aGhmVTd5MGx4L3pNRmEvZzluWDgrMk1PMTc5c2VIdC9qZGJJelhDZmN2OGwvQ3l2ZWcyd05hZi83Z3ozYzRUM2U0UnJPNHowODRUMitOM3lXVGI2SE4xekRMenlEYzdMbjhlL216K01idmhOK0o3eEg0ZnozckxBK25IOW44ODk4OEZwZTZSNWs4OSt3Ly9BSS9ucElQd3ZDWTB6M0lMMEQ0Yzhnbm44bTM4UDBIdmhQQ2dBQVVFVklBUUFBcWdncEFBQkFGU0VGQUFDb0lxUUFBQUJWaEJRQUFLQ0trQUlBQUZRUlVnQUFnQ3BDQ2dBQVVFVklBUUFBcWdncEFBQkFGU0VGQUFDb0lxUUFBQUJWaEJRQUFLQ0trQUlBQUZTNXMwNDJ3czV5enRyaC9Hbi9NKy9YOEhqKzlja2VoajJjbTlYdjM5UDU0L1duZDJobTFzN1dzRSs0aC9FZGVEdi8zeGl2OXpDYi80VHpuL0Izc0Q4NGd4dXU0ZDUwRDdJMS9HNjJoNy8wV1RRenZ4dXU0V1R2cE4vTjZtODQvOTBybkQ4cXIrZ2hQSUlKaitDVFBVeDdPTmtSNVBPSDllRVZTajh0WnliZnc3UUgvMGtCQUFDcUNDa0FBRUFWSVFVQUFLZ2lwQUFBQUZXRUZBQUFvSXFRQWdBQVZCRlNBQUNBS2tJS0FBQlFSVWdCQUFDcUNDa0FBRUFWSVFVQUFLZ2lwQUFBQUZXRUZBQUFvSXFRQWdBQVZCRlNBQUNBS25kMmxsUFdQbGtISzZ3UCs1LzVZQTM3UHAxLzdWOVUzN0NINnNNei9LU0hySDZmYkEwN25mK0RQZHduK3kybmF6amgvQ2M4ZzNUK0c4NC9NL083NFI2RVozRERQZmpGWjVnL2oyODR4dTltOWZlc3FENHNueHUrMHU4T0cvaWtoNncrdlVacC94OWM0M2dQMG1OTTl5Q2RQOTNERDY1eC9IbVkvcGI5SndVQUFLZ2lwQUFBQUZXRUZBQUFvSXFRQWdBQVZCRlNBQUNBS2tJS0FBQlFSVWdCQUFDcUNDa0FBRUFWSVFVQUFLZ2lwQUFBQUZXRUZBQUFvSXFRQWdBQVZCRlNBQUNBS2tJS0FBQlFSVWdCQUFDcTNMVnZOc0lLYzg3TzZ0YysyZnd6TStFZXhEMnNzRDdkdy9QTDVwOThEMWE0Qi9IODRSNnM4L2dPZlRCR3ZBZmgvRHY4SGU0UDlqQWRZNGQ3ZU9MNnJQOGIzdU43ODJmSkNjL2dkN00xNVBWaC95Zi8yK0h2Wm1Qc3ZhTDZtOWFmMS9OSDVmLzFrTlduMXlCZFF6ei9CMzhDVDhjSVA0M2lQUWl2Y2Q1L09QOFhQWVEvUmY5SkFRQUF1Z2dwQUFCQUZTRUZBQUNvSXFRQUFBQlZoQlFBQUtDS2tBSUFBRlFSVWdBQWdDcENDZ0FBVUVWSUFRQUFxZ2dwQUFCQUZTRUZBQUNvSXFRQUFBQlZoQlFBQUtDS2tBSUFBRlFSVWdBQWdDcDM5c2xHQ092WFd1SDhONnVmbVpYdXdRcjM0R1JyU1B1UDF6OHpLenlIZFg1aC9lTTlUTy9BQjJldzB6ME1lOGpuejg0d25mK0xNWGE2aDJIOUNmdS9ZZjM1NEI3Zm05MkQzODE2U092UHp2NzJsODQvTTNOUDJNUE8zc3Yzdks2UHl1ZCs4T2ZiOEFqaU5jVHpQNjZmeWRjUS9oVGpOVHlmUC95OG5zblBJUDdFejhvQkFBQytKYVFBQUFCVmhCUUFBS0NLa0FJQUFGUVJVZ0FBZ0NwQ0NnQUFVRVZJQVFBQXFnZ3BBQUJBRlNFRkFBQ29JcVFBQUFCVmhCUUFBS0NLa0FJQUFGUVJVZ0FBZ0NwQ0NnQUFVRVZJQVFBQXF0elpKeHBncmF4K2RwYVRWdGovM3lEaEhxUjdtSzRoclUvUDhJc2VIdTloZW8vaitjK042ci9vWVljOXBIdVl6ci9QTDZxZm1kbmhIcDZ3aDN1eitoUDNuOVgvYm42UDB6Ris0VDI2NFR2cGQ3TDZlMVpVUHpOemRqWkcya05jSC83NU5LMFBqL0N2aC9DVm1QWmdEL01lMHA5aStDaUp6eUNkZnliZmc1WHVZVllPQUFEd0xTRUZBQUNvSXFRQUFBQlZoQlFBQUtDS2tBSUFBRlFSVWdBQWdDcENDZ0FBVUVWSUFRQUFxZ2dwQUFCQUZTRUZBQUNvSXFRQUFBQlZoQlFBQUtDS2tBSUFBRlFSVWdBQWdDcENDZ0FBVUVWSUFRQUFxdHkxVGpiQ3puTE8ydUg4YWY4ZjlMRE96UnBJNTkrL3NMNWdEOU1lSHAvaFB1a1poSGZvZ3g1MitGdUs1dy9QTUsyZm1UbmhHdTdONmsrNGhuVCttNjQvZlJiT3pDOGM0NXpzblhURCt0OTlPLy9Nek4wcjdDR2IvMlRUVDdpRjZXZEp2UDZabWZRWTB6MUk2K1ArL3ovWXcvZ2VQWjQvL1IzKzlaQU5rcDZoLzZRQUFBQlZoQlFBQUtDS2tBSUFBRlFSVWdBQWdDcENDZ0FBVUVWSUFRQUFxZ2dwQUFCQUZTRUZBQUNvSXFRQUFBQlZoQlFBQUtDS2tBSUFBRlFSVWdBQWdDcENDZ0FBVUVWSUFRQUFxZ2dwQUFCQWxUczd5eWxybjZ5RGxkWEg4OC9NcEdPRTlla2E0dnB6by9xL01YNVBlOWc3blAveEdld3Z6aUR1SWR2RC9YaitFOWJQZkxDR3NQNkdhL2lGOStoM3MvcDc4cjk3blhDTVgxcC9zL3A3VmxRZmx2L1hRMWkvd3pXRTg2ZjE0UkhPQjljNDd1SDFHdEk3MUxDSGFRL3hIb2IxNGVmNW5QQjNQRE9URHBIdW9mK2tBQUFBVllRVUFBQ2dpcEFDQUFCVUVWSUFBSUFxUWdvQUFGQkZTQUVBQUtvSUtRQUFRQlVoQlFBQXFDS2tBQUFBVllRVUFBQ2dpcEFDQUFCVUVWSUFBSUFxUWdvQUFGQkZTQUVBQUtvSUtRQUFRSlc3OXNsR1dGbDlQSDlhUHpQcjNLdys3R0h0MytQNVA5akR0SWZIOXlpdVAyL1BjR1ptUDc1SE85eURuYzcvd1I3ZW02M2hobnR3VHJhR3ZENzd1OVV2ZkpiK2paR3Q0WGV6K2h2dXdWa3JuRCtybjVtNU94c2pQSUs1NFo4LzAvcndDT1A1dnhnalhrTjRoZzE3K0h3UHdwL2lDUWRJMXg4K0J2N3I0ZkVhc25JQUFJQnZDU2tBQUVBVklRVUFBS2dpcEFBQUFGV0VGQUFBb0lxUUFnQUFWQkZTQUFDQUtrSUtBQUJRUlVnQkFBQ3FDQ2tBQUVBVklRVUFBS2dpcEFBQUFGV0VGQUFBb0lxUUFnQUFWQkZTQUFDQUtuZnRYemJDV2xuOVB0bjA1MmJ6ejh4S2UxaGhmVGgvdklmcC9QTitEOUw2ZmJMZndVN25EL2R2NW9NOWVGeC93ak80TjN5V3pjeUoxNURWMzNRUHd1ZmhMNjIvK1QzK25leHZaMmRuNzZTMC9wNjM5WDlqWlBWcEN6Zjg4MmQ0QmVMNTAvcVpEOWFRbnVIalBVam5uOG4zSUYzRFRwOEZqL2N3N2YrTEh0TG5xZitrQUFBQVZZUVVBQUNnaXBBQ0FBQlVFVklBQUlBcVFnb0FBRkJGU0FFQUFLb0lLUUFBUUJVaEJRQUFxQ0trQUFBQVZZUVVBQUNnaXBBQ0FBQlVFVklBQUlBcVFnb0FBRkJGU0FFQUFLb0lLUUFBUUpVN084c3BhNStzZzdBK25uOW0xbnE3aHJSK254dlZyLzJMNnYvR1NOZVE5YkRTK3NmM01GMy96TXgrM01NSjYrUCtQM2dXM0hBTnYvQzMrTHRaL1QzWjgveWs5WHRGOVg4OVpHUGN0RDVjd3cydjRmM2dUNGZoRmt4NERmNzUrdkN6YUdieWU1Q3VJYjFIOGZ6NTR6aGVRL29zU0I5bjZmejVQZjdnZVJ5T0VhOGhLd2NBQVBpV2tBSUFBRlFSVWdBQWdDcENDZ0FBVUVWSUFRQUFxZ2dwQUFCQUZTRUZBQUNvSXFRQUFBQlZoQlFBQUtDS2tBSUFBRlFSVWdBQWdDcENDZ0FBVUVWSUFRQUFxZ2dwQUFCQUZTRUZBQUNvSXFRQUFBQlY3dG9uR3lHc1QrZGZLK3gvSmwvRCtXWDEvL2daek15c2M1LzI4THArNzhkM1lHWjJlQTkzdkFkWi9iMVovK2VEUFR3bkd5T3Z6LzV1OUF0L2g3K3cvOS9OeitDR2UzRDNDdWVQeXVQNTl3ZC9PZ3lQTWQrRHNENjhBcy9uLzJLTUc5YS8zc08wLzc4ZXN0OVN1Z2ZuOGJNa25UK3RuNW5aajN2d254UUFBS0NLa0FJQUFGUVJVZ0FBZ0NwQ0NnQUFVRVZJQVFBQXFnZ3BBQUJBRlNFRkFBQ29JcVFBQUFCVmhCUUFBS0NLa0FJQUFGUVJVZ0FBZ0NwQ0NnQUFVRVZJQVFBQXFnZ3BBQUJBRlNFRkFBQ29jbWVmYUlDVjFxK3NQdTEvNW9NMXZLNFA5ekNkLzRzeDB2cWQxai9ldzdUL0w4WTQ1eGZXaC9PSC9kK2I5VDh6YzhNOXVPZEc5Yit3L3B6czcwNW5yNmYxRFQyazlUdjgwOS85NEUrSDZSamhOWnIwR3J6dS80c3pPT0VleEdzSVh5bnBIdHgwQSthTFBVaWZCZW44NmZNNG0vK2I1M0c0aHZBTS9DY0ZBQUNvSXFRQUFBQlZoQlFBQUtDS2tBSUFBRlFSVWdBQWdDcENDZ0FBVUVWSUFRQUFxZ2dwQUFCQUZTRUZBQUNvSXFRQUFBQlZoQlFBQUtDS2tBSUFBRlFSVWdBQWdDcENDZ0FBVUVWSUFRQUFxdHkxVHpUQVdsbjlwUE9IOVYrTThYb1BYL2YvTjhaOTJrTmF2ODh2cTM4OC95YzloUFVuM3NQc0RwMFA3dkU1MmQ5dGJsaWZ6djlMNjIrNi9oWFZ6OHpjblkxeHcyc1Fic0h6K3BtWmNBc25QY1owRGVFMWZ0Ny96TXhKNytIcmV4eHVZbnFHWC9TUXIrSGZudjk4OER5T2U5alpSZkNmRkFBQW9JcVFBZ0FBVkJGU0FBQ0FLa0lLQUFCUVJVZ0JBQUNxQ0NrQUFFQVZJUVVBQUtnaXBBQUFBRldFRkFBQW9JcVFBZ0FBVkJGU0FBQ0FLa0lLQUFCUVJVZ0JBQUNxQ0NrQUFFQVZJUVVBQUtoeTF6clpDRHVyWDQvclAra2gzTVBYZTFDeGgySDkzci9IODcrdC8yS01jMjVXSDg3L3U5bjhhZjFNdm9hMC91N3M3MFlucmw5Wi9jcnEvM3JJNm5mWVE3aUZ6K3RuWm03NE9FblA0SGw5K2xuenhSbWthd2gvU2p2OUxZZjkzM1FCSDR5UlBzOWV6LzhMTDFFNi84ek1EaTlDMm9QL3BBQUFBRldFRkFBQW9JcVFBZ0FBVkJGU0FBQ0FLa0lLQUFCUVJVZ0JBQUNxQ0NrQUFFQVZJUVVBQUtnaXBBQUFBRldFRkFBQW9JcVFBZ0FBVkJGU0FBQ0FLa0lLQUFCUVJVZ0JBQUNxQ0NrQUFFQ1ZPL3RFQTZ4L3ZINW01bi83SG55eGh6c2NZNiszYTBqN3orZS9VZjNNekwyL3NJZHNEZWNmcjUrWitkM3NISDQzNitHZTdPOUd2NXZWcC9QZnM2TDZMOFlJajJEQ0xZenJ3eVA0Wkl5MGZqK2UvL1VaZmpIR1NYOEg4UmxrODM5emo5Tm5RVmIvQ3hjUm4yRThmMzRJOFQwSWUvQ2ZGQUFBb0lxUUFnQUFWQkZTQUFDQUtrSUtBQUJRUlVnQkFBQ3FDQ2tBQUVBVklRVUFBS2dpcEFBQUFGV0VGQUFBb0lxUUFnQUFWQkZTQUFDQUtrSUtBQUJRUlVnQkFBQ3FDQ2tBQUVBVklRVUFBS2h5MXo3UkFLL3JKNjJmbWJYKzdUMVkrejZkLzRzeDBqWHN4L09mODR2cTAvNi9HT09rOWVkMWZmNDNsN3V6TVU1WWY4TTE3TDJpK3BPVlQ3ajhUM3FJMS9DNFB1My9pekhTbjlJTjYxK2ZZZmdvK3V2aDhSN2VjQk52dUFmcHMreHZqR3dOdjdDSEUrOWhPbjlXLzBzdjBlVHZ0SFFOL3BNQ0FBQlVFVklBQUlBcVFnb0FBRkJGU0FFQUFLb0lLUUFBUUJVaEJRQUFxQ0trQUFBQVZZUVVBQUNnaXBBQ0FBQlVFVklBQUlBcVFnb0FBRkJGU0FFQUFLb0lLUUFBUUJVaEJRQUFxQ0trQUFBQVZZUVVBQUNneWwzN1pDT3NNT2VFODY4VjlqOHo2Ujc4YjYrZnljOGg3V0gvNC9YbjVHZHd3aDd1L1QyZC8zWDl6TXc1MmZQczdLVSt0TU5YU3ZwVHVvL3J3eXM0TXgvc1lmcGEvOGZQOE9UWGVHNDRTSG9HYWYwTkIwalhQelB6UzUvSFlRL3hIdHgwRDlQM1VmNHdpZCtKWWIzL3BBQUFBRldFRkFBQW9JcVFBZ0FBVkJGU0FBQ0FLa0lLQUFCUVJVZ0JBQUNxQ0NrQUFFQVZJUVVBQUtnaXBBQUFBRldFRkFBQW9JcVFBZ0FBVkJGU0FBQ0FLa0lLQUFCUVJVZ0JBQUNxQ0NrQUFFQ1ZPeXZMS1d1ZnJEN01TZW44WDR6eHVuNm45U3ZmdzdpSGYzMFBIOWYvalhHaitoUDJjRTVhbnowTDdzNy81bkxDTVc2NGhyMVhWSCt5OHJuaE5id2YvTmtySFNQZGcvQUk0dnJ3Q24weVJsci8rZ3p6MzBFNHdPVDNJTzBocmMvdlVMNkhKOTZEOEhrZVh1UjgvdkNkK3NVN01WeEQrbDNnUHlrQUFFQVZJUVVBQUtnaXBBQUFBRldFRkFBQW9JcVFBZ0FBVkJGU0FBQ0FLa0lLQUFCUVJVZ0JBQUNxQ0NrQUFFQVZJUVVBQUtnaXBBQUFBRldFRkFBQW9JcVFBZ0FBVkJGU0FBQ0FLa0lLQUFCUTVhNTlvZ0hXQ3V2aitmT2NsZll3WVEveEhzVDFONnIvb29mOXo5ZG5kK0NrZDNCbXpzbkdTSHQ0WG4veVo4SFo2NSt1dnllcjN5dXMvK0RQWHVrWWFYMTZqY0lqak90blpzSnJFTmVuYXdnZlpma2QrdUFNNHQvaTgyZEp0b20vbXo4TTBoN1NkMEk2LzczcE8vSHQrbWRtZmpmN1BsemhQZlNmRkFBQW9JcVFBZ0FBVkJGU0FBQ0FLa0lLQUFCUVJVZ0JBQUNxQ0NrQUFFQVZJUVVBQUtnaXBBQUFBRldFRkFBQW9JcVFBZ0FBVkJGU0FBQ0FLa0lLQUFCUVJVZ0JBQUNxQ0NrQUFFQVZJUVVBQUtoeTF6clJBR3YvMi9WL1k5eW5QY1Qxajg5d1ptWS8zNE1zYjZmOTUvWFpIWnlaT1hFUEs1di9aR2R3ZDFaL3d2cVptUnV1SWQ3RHJIekM5dlA2c1A4dnhnaVBJSzVQOS9DRGF4eVBrZGEvdmtjM0hDRHQvNHN4VG5nUjR6Mkk5ekIvR0tUdmxOOE4zMGszZTZlbTc2VGZML3N1K09LZG1KN0JPZUYzU1ZRTkFBRHdNU0VGQUFDb0lxUUFBQUJWaEJRQUFLQ0trQUlBQUZRUlVnQUFnQ3BDQ2dBQVVFVklBUUFBcWdncEFBQkFGU0VGQUFDb0lxUUFBQUJWaEJRQUFLQ0trQUlBQUZRUlVnQUFnQ3BDQ2dBQVVPWE9XdGtJait2WFB0bjhNN1BDSG5iWXcxcFpWc3pyd3pQOG9JZDBEOVA2YzI1V0g4K2YzK080aDlmMUo3dERaK2YzT0IzamRmMk9uMlZSZVZ6L3hSamhOWnIwR3FYMUo3L0c4Ump4SHNUM0tQMGR2SjEvSnY4dDMvQVFUM2dJOGJNby9TRiswRU8rQjJGOS9FNTdPLy9mR0cvZjYvNlRBZ0FBVkJGU0FBQ0FLa0lLQUFCUVJVZ0JBQUNxQ0NrQUFFQVZJUVVBQUtnaXBBQUFBRldFRkFBQW9JcVFBZ0FBVkJGU0FBQ0FLa0lLQUFCUVJVZ0JBQUNxQ0NrQUFFQVZJUVVBQUtnaXBBQUFBRldFRkFBQW9NcGQrMFFEdks2ZmxlZXN2SWNWbHIvZHc1MnUvNE1lVm5pTzZScFdlSVo3MzZ3K25QK3ZoMnlNYzdJenVEdXJQMkg5RGZ1ZitXQVB3Mk1NdDJEQzl1UCswL3FaZkEzeEhxUm44TGoraXpIU1BZanZVZHgvMXNEOTRDS25QY1QxNFJyUzUzSGEvMHorVG5wZC83dlpkMEhlZi81dDkvdUZhMGkvVDZOcUFBQ0Fqd2twQUFCQUZTRUZBQUNvSXFRQUFBQlZoQlFBQUtDS2tBSUFBRlFSVWdBQWdDcENDZ0FBVUVWSUFRQUFxZ2dwQUFCQUZTRUZBQUNvSXFRQUFBQlZoQlFBQUtDS2tBSUFBRlFSVWdBQWdDcDNyU3lueFBYN2h2VW5xcC9KMTdCWDFzTU8xNURXcDJmd1JROTVmWGFHSjUxL3JhZnpmekZHWEgvU00wajNNS3R2NkNHdEQzOEdFMTdqZVA2Wm1mQWFUWG9OMHZyenVIN21nejFJenlDOXgra2VodjEvOFN4SjkrQ0VGeUYrRm9XYitMdjVPeTBkSTM0bm5YOTcvdDh2LzdaNy9WM2dQeWtBQUVBVklRVUFBS2dpcEFBQUFGV0VGQUFBb0lxUUFnQUFWQkZTQUFDQUtrSUtBQUJRUlVnQkFBQ3FDQ2tBQUVBVklRVUFBS2dpcEFBQUFGV0VGQUFBb0lxUUFnQUFWQkZTQUFDQUtrSUtBQUJRNWE1OW9nSGkrcldlMXMva2E1Z1ZacjJ3dm1JUHd6WHM4QXpTK3JUL2M3TDUwL3EvTWNJekNPL0I2L29Qcm5IOFY1c2REbkRDTmFUMU82ei80QWppSHNLZlFYeUdyK3RuOGoySTcyRTZmM2dKZGxpZjl2ODNSdHBEdUFmaEl1TCtQOWpFZEl4Nzc5UDU4KytDOUF6ZmYxZWtlK0EvS1FBQVFCVWhCUUFBcUNLa0FBQUFWWVFVQUFDZ2lwQUNBQUJVRVZJQUFJQXFRZ29BQUZCRlNBRUFBS29JS1FBQVFCVWhCUUFBcUNLa0FBQUFWWVFVQUFDZ2lwQUNBQUJVRVZJQUFJQXFRZ29BQUZEbHpsclpDQ3ZNT1dIOTJpZWJmMmJXWkh1d3d4N1MrcFh1WVhxRzg4VWV2RjNEQ2Z0UDYxZjZPNXlaSFk1eFRycUg2ZnhoZlRqL3pNd094MGhiU0s5QitET2E4QXJFODgva2U1RFdoOWN3cnYvZ0dzZm44UHAza043RDlGbnd4Zk00ZjU2OWZoNW44NmZ2bzVuOEhOSWU3Z20vQzlKMzZ1UDV2K2toL0RhTXFnRUFBRDRtcEFBQUFGV0VGQUFBb0lxUUFnQUFWQkZTQUFDQUtrSUtBQUJRUlVnQkFBQ3FDQ2tBQUVBVklRVUFBS2dpcEFBQUFGV0VGQUFBb0lxUUFnQUFWQkZTQUFDQUtrSUtBQUJRUlVnQkFBQ3EzTFd5bkxMV2l1cjNQdUg4SCtTc2RJekhlN2pDUFV6UFlDWS9oN1QrcFBkby85djlmOUhEVHU5aCtpeDRQUC9NekFrZkJla2F3bXM0NlJhazlTYy9nbmlNL1hnUDRqMzg0SldXN21IYXd3a1BZYWYxOGZxL2VKYWs3L1dzL29hSGVCN1gvNDJSdlJkZnJ5SHZQLzIyYXppRGNBMVJOUUFBd01lRUZBQUFvSXFRQWdBQVZCRlNBQUNBS2tJS0FBQlFSVWdCQUFDcUNDa0FBRUFWSVFVQUFLZ2lwQUFBQUZXRUZBQUFvSXFRQWdBQVZCRlNBQUNBS2tJS0FBQlFSVWdCQUFDcUNDa0FBRUNWdS9hSkJranJaNjJzZkxMNm1abWQ3a0c2aHBWbHhkZjFmMk5rZTVDZlFiYUdFODYvZDdyKy9CN2ZuZTVCVm45UFZwL3V3Y20zTUgwY1RYcU02Uzh4M1lPMC8zVC92aGdqdklZVC9nemkrb1k5VEZ0NC9qdEtueVVmUEV4MnVBa25YRVA2VGs3ZkIrZUUzNFl6YzhJZmM5cERXci9ENzVJYjk1OS8yNzMrdHZHZkZBQUFvSXFRQWdBQVZCRlNBQUNBS2tJS0FBQlFSVWdCQUFDcUNDa0FBRUFWSVFVQUFLZ2lwQUFBQUZXRUZBQUFvSXFRQWdBQVZCRlNBQUNBS2tJS0FBQlFSVWdCQUFDcUNDa0FBRUFWSVFVQUFLZ2lwQUFBQUZYdXJDeW5yTWYxYWY5ZmpQRjZEV3V0cC9Vek0zdG5hOWhoRDYvcjB6MU01NStaV1R2dElady9yTS9uLytBZXY5NkQ5Rkh5dVA4UGppQS9nM1Qrc0Q2ZC8zeXdoeWZjeEJOdVFsNy85bG4yeGZONGg1dVE5bkRTK2NOTi9PSjVmTStKNmwrdklUMkRmUDVzLzc0WUk2MzNueFFBQUtDS2tBSUFBRlFSVWdBQWdDcENDZ0FBVUVWSUFRQUFxZ2dwQUFCQUZTRUZBQUNvSXFRQUFBQlZoQlFBQUtDS2tBSUFBRlFSVWdBQWdDcENDZ0FBVUVWSUFRQUFxZ2dwQUFCQUZTRUZBQUNvY3RkYTJRaGgvWnF3ZnVVNUs5MkQ5L1haSG55eGgzdWZwejJzL1hZUHp1UDF6OHpzeC9mdy9meFIrVGM5aE1mNCtIRWM3K0g1NUF6KzdmcnorQTU4TWNiN2QxcFVQaWY4SVo0UEhpYnA4L0NFRnltZlAzdW5wZjNQNVBjb1gwTld2OU43R003L3pmZHgrbTBXdmxPamFnQUFnSThKS1FBQVFCVWhCUUFBcUNLa0FBQUFWWVFVQUFDZ2lwQUNBQUJVRVZJQUFJQXFRZ29BQUZCRlNBRUFBS29JS1FBQVFCVWhCUUFBcUNLa0FBQUFWWVFVQUFDZ2lwQUNBQUJVRVZJQUFJQXEvdysweWtRTHhtVFZNd0FBQUFCSlJVNUVya0pnZ2c9PSIvPiYjeGE7ICAgPC9nPiYjeGE7ICAgPGcgaWQ9Im1hdHBsb3RsaWIuYXhpc18xIj4mI3hhOyAgICA8ZyBpZD0ieHRpY2tfMSI+JiN4YTsgICAgIDxnIGlkPSJsaW5lMmRfMSI+JiN4YTsgICAgICA8ZGVmcz4mI3hhOyAgICAgICA8cGF0aCBzdHlsZT0ic3Ryb2tlOiAjMDAwMDAwOyBzdHJva2Utd2lkdGg6IDAuOCIgZD0iTSAwIDAgJiMxMDtMIDAgMy41IiBpZD0ibTA3NDJjODhlNjEiLz4mI3hhOyAgICAgIDwvZGVmcz4mI3hhOyAgICAgIDxnPiYjeGE7ICAgICAgIDx1c2Ugc3R5bGU9InN0cm9rZTogIzAwMDAwMDsgc3Ryb2tlLXdpZHRoOiAwLjgiIHk9IjIwMS4yNCIgeD0iNDIuNTQzNTI1IiB4bGluazpocmVmPSIjbTA3NDJjODhlNjEiLz4mI3hhOyAgICAgIDwvZz4mI3hhOyAgICAgPC9nPiYjeGE7ICAgICA8ZyBpZD0idGV4dF8xIj4mI3hhOyAgICAgICYjeGE7ICAgICAgPGcgdHJhbnNmb3JtPSJ0cmFuc2xhdGUoMzkuMzYyMjc1IDIxNS44Mzg0MzcpIHNjYWxlKDAuMSAtMC4xKSI+JiN4YTsgICAgICAgPGRlZnM+JiN4YTsgICAgICAgIDxwYXRoIHRyYW5zZm9ybT0ic2NhbGUoMC4wMTU2MjUpIiBkPSJNIDIwMzQgNDI1MCAmIzEwO1EgMTU0NyA0MjUwIDEzMDEgMzc3MCAmIzEwO1EgMTA1NiAzMjkxIDEwNTYgMjMyOCAmIzEwO1EgMTA1NiAxMzY5IDEzMDEgODg5ICYjMTA7USAxNTQ3IDQwOSAyMDM0IDQwOSAmIzEwO1EgMjUyNSA0MDkgMjc3MCA4ODkgJiMxMDtRIDMwMTYgMTM2OSAzMDE2IDIzMjggJiMxMDtRIDMwMTYgMzI5MSAyNzcwIDM3NzAgJiMxMDtRIDI1MjUgNDI1MCAyMDM0IDQyNTAgJiMxMDt6JiMxMDtNIDIwMzQgNDc1MCAmIzEwO1EgMjgxOSA0NzUwIDMyMzMgNDEyOSAmIzEwO1EgMzY0NyAzNTA5IDM2NDcgMjMyOCAmIzEwO1EgMzY0NyAxMTUwIDMyMzMgNTI5ICYjMTA7USAyODE5IC05MSAyMDM0IC05MSAmIzEwO1EgMTI1MCAtOTEgODM2IDUyOSAmIzEwO1EgNDIyIDExNTAgNDIyIDIzMjggJiMxMDtRIDQyMiAzNTA5IDgzNiA0MTI5ICYjMTA7USAxMjUwIDQ3NTAgMjAzNCA0NzUwICYjMTA7eiIgaWQ9IkRlamFWdVNhbnMtMzAiLz4mI3hhOyAgICAgICA8L2RlZnM+JiN4YTsgICAgICAgPHVzZSB4bGluazpocmVmPSIjRGVqYVZ1U2Fucy0zMCIvPiYjeGE7ICAgICAgPC9nPiYjeGE7ICAgICA8L2c+JiN4YTsgICAgPC9nPiYjeGE7ICAgIDxnIGlkPSJ4dGlja18yIj4mI3hhOyAgICAgPGcgaWQ9ImxpbmUyZF8yIj4mI3hhOyAgICAgIDxnPiYjeGE7ICAgICAgIDx1c2Ugc3R5bGU9InN0cm9rZTogIzAwMDAwMDsgc3Ryb2tlLXdpZHRoOiAwLjgiIHk9IjIwMS4yNCIgeD0iODEuMzUxNTI1IiB4bGluazpocmVmPSIjbTA3NDJjODhlNjEiLz4mI3hhOyAgICAgIDwvZz4mI3hhOyAgICAgPC9nPiYjeGE7ICAgICA8ZyBpZD0idGV4dF8yIj4mI3hhOyAgICAgICYjeGE7ICAgICAgPGcgdHJhbnNmb3JtPSJ0cmFuc2xhdGUoNzQuOTg5MDI1IDIxNS44Mzg0MzcpIHNjYWxlKDAuMSAtMC4xKSI+JiN4YTsgICAgICAgPGRlZnM+JiN4YTsgICAgICAgIDxwYXRoIHRyYW5zZm9ybT0ic2NhbGUoMC4wMTU2MjUpIiBkPSJNIDc5NCA1MzEgJiMxMDtMIDE4MjUgNTMxICYjMTA7TCAxODI1IDQwOTEgJiMxMDtMIDcwMyAzODY2ICYjMTA7TCA3MDMgNDQ0MSAmIzEwO0wgMTgxOSA0NjY2ICYjMTA7TCAyNDUwIDQ2NjYgJiMxMDtMIDI0NTAgNTMxICYjMTA7TCAzNDgxIDUzMSAmIzEwO0wgMzQ4MSAwICYjMTA7TCA3OTQgMCAmIzEwO0wgNzk0IDUzMSAmIzEwO3oiIGlkPSJEZWphVnVTYW5zLTMxIi8+JiN4YTsgICAgICAgPC9kZWZzPiYjeGE7ICAgICAgIDx1c2UgeGxpbms6aHJlZj0iI0RlamFWdVNhbnMtMzEiLz4mI3hhOyAgICAgICA8dXNlIHg9IjYzLjYyMzA0NyIgeGxpbms6aHJlZj0iI0RlamFWdVNhbnMtMzAiLz4mI3hhOyAgICAgIDwvZz4mI3hhOyAgICAgPC9nPiYjeGE7ICAgIDwvZz4mI3hhOyAgICA8ZyBpZD0ieHRpY2tfMyI+JiN4YTsgICAgIDxnIGlkPSJsaW5lMmRfMyI+JiN4YTsgICAgICA8Zz4mI3hhOyAgICAgICA8dXNlIHN0eWxlPSJzdHJva2U6ICMwMDAwMDA7IHN0cm9rZS13aWR0aDogMC44IiB5PSIyMDEuMjQiIHg9IjEyMC4xNTk1MjUiIHhsaW5rOmhyZWY9IiNtMDc0MmM4OGU2MSIvPiYjeGE7ICAgICAgPC9nPiYjeGE7ICAgICA8L2c+JiN4YTsgICAgIDxnIGlkPSJ0ZXh0XzMiPiYjeGE7ICAgICAgJiN4YTsgICAgICA8ZyB0cmFuc2Zvcm09InRyYW5zbGF0ZSgxMTMuNzk3MDI1IDIxNS44Mzg0MzcpIHNjYWxlKDAuMSAtMC4xKSI+JiN4YTsgICAgICAgPGRlZnM+JiN4YTsgICAgICAgIDxwYXRoIHRyYW5zZm9ybT0ic2NhbGUoMC4wMTU2MjUpIiBkPSJNIDEyMjggNTMxICYjMTA7TCAzNDMxIDUzMSAmIzEwO0wgMzQzMSAwICYjMTA7TCA0NjkgMCAmIzEwO0wgNDY5IDUzMSAmIzEwO1EgODI4IDkwMyAxNDQ4IDE1MjkgJiMxMDtRIDIwNjkgMjE1NiAyMjI4IDIzMzggJiMxMDtRIDI1MzEgMjY3OCAyNjUxIDI5MTQgJiMxMDtRIDI3NzIgMzE1MCAyNzcyIDMzNzggJiMxMDtRIDI3NzIgMzc1MCAyNTExIDM5ODQgJiMxMDtRIDIyNTAgNDIxOSAxODMxIDQyMTkgJiMxMDtRIDE1MzQgNDIxOSAxMjA0IDQxMTYgJiMxMDtRIDg3NSA0MDEzIDUwMCAzODAzICYjMTA7TCA1MDAgNDQ0MSAmIzEwO1EgODgxIDQ1OTQgMTIxMiA0NjcyICYjMTA7USAxNTQ0IDQ3NTAgMTgxOSA0NzUwICYjMTA7USAyNTQ0IDQ3NTAgMjk3NSA0Mzg3ICYjMTA7USAzNDA2IDQwMjUgMzQwNiAzNDE5ICYjMTA7USAzNDA2IDMxMzEgMzI5OCAyODczICYjMTA7USAzMTkxIDI2MTYgMjkwNiAyMjY2ICYjMTA7USAyODI4IDIxNzUgMjQwOSAxNzQyICYjMTA7USAxOTkxIDEzMDkgMTIyOCA1MzEgJiMxMDt6IiBpZD0iRGVqYVZ1U2Fucy0zMiIvPiYjeGE7ICAgICAgIDwvZGVmcz4mI3hhOyAgICAgICA8dXNlIHhsaW5rOmhyZWY9IiNEZWphVnVTYW5zLTMyIi8+JiN4YTsgICAgICAgPHVzZSB4PSI2My42MjMwNDciIHhsaW5rOmhyZWY9IiNEZWphVnVTYW5zLTMwIi8+JiN4YTsgICAgICA8L2c+JiN4YTsgICAgIDwvZz4mI3hhOyAgICA8L2c+JiN4YTsgICAgPGcgaWQ9Inh0aWNrXzQiPiYjeGE7ICAgICA8ZyBpZD0ibGluZTJkXzQiPiYjeGE7ICAgICAgPGc+JiN4YTsgICAgICAgPHVzZSBzdHlsZT0ic3Ryb2tlOiAjMDAwMDAwOyBzdHJva2Utd2lkdGg6IDAuOCIgeT0iMjAxLjI0IiB4PSIxNTguOTY3NTI1IiB4bGluazpocmVmPSIjbTA3NDJjODhlNjEiLz4mI3hhOyAgICAgIDwvZz4mI3hhOyAgICAgPC9nPiYjeGE7ICAgICA8ZyBpZD0idGV4dF80Ij4mI3hhOyAgICAgICYjeGE7ICAgICAgPGcgdHJhbnNmb3JtPSJ0cmFuc2xhdGUoMTUyLjYwNTAyNSAyMTUuODM4NDM3KSBzY2FsZSgwLjEgLTAuMSkiPiYjeGE7ICAgICAgIDxkZWZzPiYjeGE7ICAgICAgICA8cGF0aCB0cmFuc2Zvcm09InNjYWxlKDAuMDE1NjI1KSIgZD0iTSAyNTk3IDI1MTYgJiMxMDtRIDMwNTAgMjQxOSAzMzA0IDIxMTIgJiMxMDtRIDM1NTkgMTgwNiAzNTU5IDEzNTYgJiMxMDtRIDM1NTkgNjY2IDMwODQgMjg3ICYjMTA7USAyNjA5IC05MSAxNzM0IC05MSAmIzEwO1EgMTQ0MSAtOTEgMTEzMCAtMzMgJiMxMDtRIDgxOSAyNSA0ODggMTQxICYjMTA7TCA0ODggNzUwICYjMTA7USA3NTAgNTk3IDEwNjIgNTE5ICYjMTA7USAxMzc1IDQ0MSAxNzE2IDQ0MSAmIzEwO1EgMjMwOSA0NDEgMjYyMCA2NzUgJiMxMDtRIDI5MzEgOTA5IDI5MzEgMTM1NiAmIzEwO1EgMjkzMSAxNzY5IDI2NDIgMjAwMSAmIzEwO1EgMjM1MyAyMjM0IDE4MzggMjIzNCAmIzEwO0wgMTI5NCAyMjM0ICYjMTA7TCAxMjk0IDI3NTMgJiMxMDtMIDE4NjMgMjc1MyAmIzEwO1EgMjMyOCAyNzUzIDI1NzUgMjkzOSAmIzEwO1EgMjgyMiAzMTI1IDI4MjIgMzQ3NSAmIzEwO1EgMjgyMiAzODM0IDI1NjcgNDAyNiAmIzEwO1EgMjMxMyA0MjE5IDE4MzggNDIxOSAmIzEwO1EgMTU3OCA0MjE5IDEyODEgNDE2MiAmIzEwO1EgOTg0IDQxMDYgNjI4IDM5ODggJiMxMDtMIDYyOCA0NTUwICYjMTA7USA5ODggNDY1MCAxMzAyIDQ3MDAgJiMxMDtRIDE2MTYgNDc1MCAxODk0IDQ3NTAgJiMxMDtRIDI2MTMgNDc1MCAzMDMxIDQ0MjMgJiMxMDtRIDM0NTAgNDA5NyAzNDUwIDM1NDEgJiMxMDtRIDM0NTAgMzE1MyAzMjI4IDI4ODYgJiMxMDtRIDMwMDYgMjYxOSAyNTk3IDI1MTYgJiMxMDt6IiBpZD0iRGVqYVZ1U2Fucy0zMyIvPiYjeGE7ICAgICAgIDwvZGVmcz4mI3hhOyAgICAgICA8dXNlIHhsaW5rOmhyZWY9IiNEZWphVnVTYW5zLTMzIi8+JiN4YTsgICAgICAgPHVzZSB4PSI2My42MjMwNDciIHhsaW5rOmhyZWY9IiNEZWphVnVTYW5zLTMwIi8+JiN4YTsgICAgICA8L2c+JiN4YTsgICAgIDwvZz4mI3hhOyAgICA8L2c+JiN4YTsgICAgPGcgaWQ9Inh0aWNrXzUiPiYjeGE7ICAgICA8ZyBpZD0ibGluZTJkXzUiPiYjeGE7ICAgICAgPGc+JiN4YTsgICAgICAgPHVzZSBzdHlsZT0ic3Ryb2tlOiAjMDAwMDAwOyBzdHJva2Utd2lkdGg6IDAuOCIgeT0iMjAxLjI0IiB4PSIxOTcuNzc1NTI1IiB4bGluazpocmVmPSIjbTA3NDJjODhlNjEiLz4mI3hhOyAgICAgIDwvZz4mI3hhOyAgICAgPC9nPiYjeGE7ICAgICA8ZyBpZD0idGV4dF81Ij4mI3hhOyAgICAgICYjeGE7ICAgICAgPGcgdHJhbnNmb3JtPSJ0cmFuc2xhdGUoMTkxLjQxMzAyNSAyMTUuODM4NDM3KSBzY2FsZSgwLjEgLTAuMSkiPiYjeGE7ICAgICAgIDxkZWZzPiYjeGE7ICAgICAgICA8cGF0aCB0cmFuc2Zvcm09InNjYWxlKDAuMDE1NjI1KSIgZD0iTSAyNDE5IDQxMTYgJiMxMDtMIDgyNSAxNjI1ICYjMTA7TCAyNDE5IDE2MjUgJiMxMDtMIDI0MTkgNDExNiAmIzEwO3omIzEwO00gMjI1MyA0NjY2ICYjMTA7TCAzMDQ3IDQ2NjYgJiMxMDtMIDMwNDcgMTYyNSAmIzEwO0wgMzcxMyAxNjI1ICYjMTA7TCAzNzEzIDExMDAgJiMxMDtMIDMwNDcgMTEwMCAmIzEwO0wgMzA0NyAwICYjMTA7TCAyNDE5IDAgJiMxMDtMIDI0MTkgMTEwMCAmIzEwO0wgMzEzIDExMDAgJiMxMDtMIDMxMyAxNzA5ICYjMTA7TCAyMjUzIDQ2NjYgJiMxMDt6IiBpZD0iRGVqYVZ1U2Fucy0zNCIvPiYjeGE7ICAgICAgIDwvZGVmcz4mI3hhOyAgICAgICA8dXNlIHhsaW5rOmhyZWY9IiNEZWphVnVTYW5zLTM0Ii8+JiN4YTsgICAgICAgPHVzZSB4PSI2My42MjMwNDciIHhsaW5rOmhyZWY9IiNEZWphVnVTYW5zLTMwIi8+JiN4YTsgICAgICA8L2c+JiN4YTsgICAgIDwvZz4mI3hhOyAgICA8L2c+JiN4YTsgICAgPGcgaWQ9InRleHRfNiI+JiN4YTsgICAgICYjeGE7ICAgICA8ZyB0cmFuc2Zvcm09InRyYW5zbGF0ZSgxMTEuNDc1NDY5IDIyOS41MTY1NjIpIHNjYWxlKDAuMSAtMC4xKSI+JiN4YTsgICAgICA8ZGVmcz4mI3hhOyAgICAgICA8cGF0aCB0cmFuc2Zvcm09InNjYWxlKDAuMDE1NjI1KSIgZD0iTSAyMTMgNDY2NiAmIzEwO0wgODUwIDQ2NjYgJiMxMDtMIDE4MzEgNzIyICYjMTA7TCAyODA5IDQ2NjYgJiMxMDtMIDM1MTkgNDY2NiAmIzEwO0wgNDUwMCA3MjIgJiMxMDtMIDU0NzggNDY2NiAmIzEwO0wgNjExOSA0NjY2ICYjMTA7TCA0OTQ3IDAgJiMxMDtMIDQxNTMgMCAmIzEwO0wgMzE2OSA0MDUwICYjMTA7TCAyMTc1IDAgJiMxMDtMIDEzODEgMCAmIzEwO0wgMjEzIDQ2NjYgJiMxMDt6IiBpZD0iRGVqYVZ1U2Fucy01NyIvPiYjeGE7ICAgICAgIDxwYXRoIHRyYW5zZm9ybT0ic2NhbGUoMC4wMTU2MjUpIiBkPSJNIDYwMyAzNTAwICYjMTA7TCAxMTc4IDM1MDAgJiMxMDtMIDExNzggMCAmIzEwO0wgNjAzIDAgJiMxMDtMIDYwMyAzNTAwICYjMTA7eiYjMTA7TSA2MDMgNDg2MyAmIzEwO0wgMTE3OCA0ODYzICYjMTA7TCAxMTc4IDQxMzQgJiMxMDtMIDYwMyA0MTM0ICYjMTA7TCA2MDMgNDg2MyAmIzEwO3oiIGlkPSJEZWphVnVTYW5zLTY5Ii8+JiN4YTsgICAgICAgPHBhdGggdHJhbnNmb3JtPSJzY2FsZSgwLjAxNTYyNSkiIGQ9Ik0gMjkwNiAyOTY5ICYjMTA7TCAyOTA2IDQ4NjMgJiMxMDtMIDM0ODEgNDg2MyAmIzEwO0wgMzQ4MSAwICYjMTA7TCAyOTA2IDAgJiMxMDtMIDI5MDYgNTI1ICYjMTA7USAyNzI1IDIxMyAyNDQ4IDYxICYjMTA7USAyMTcyIC05MSAxNzg0IC05MSAmIzEwO1EgMTE1MCAtOTEgNzUxIDQxNSAmIzEwO1EgMzUzIDkyMiAzNTMgMTc0NyAmIzEwO1EgMzUzIDI1NzIgNzUxIDMwNzggJiMxMDtRIDExNTAgMzU4NCAxNzg0IDM1ODQgJiMxMDtRIDIxNzIgMzU4NCAyNDQ4IDM0MzIgJiMxMDtRIDI3MjUgMzI4MSAyOTA2IDI5NjkgJiMxMDt6JiMxMDtNIDk0NyAxNzQ3ICYjMTA7USA5NDcgMTExMyAxMjA4IDc1MiAmIzEwO1EgMTQ2OSAzOTEgMTkyNSAzOTEgJiMxMDtRIDIzODEgMzkxIDI2NDMgNzUyICYjMTA7USAyOTA2IDExMTMgMjkwNiAxNzQ3ICYjMTA7USAyOTA2IDIzODEgMjY0MyAyNzQyICYjMTA7USAyMzgxIDMxMDMgMTkyNSAzMTAzICYjMTA7USAxNDY5IDMxMDMgMTIwOCAyNzQyICYjMTA7USA5NDcgMjM4MSA5NDcgMTc0NyAmIzEwO3oiIGlkPSJEZWphVnVTYW5zLTY0Ii8+JiN4YTsgICAgICAgPHBhdGggdHJhbnNmb3JtPSJzY2FsZSgwLjAxNTYyNSkiIGQ9Ik0gMTE3MiA0NDk0ICYjMTA7TCAxMTcyIDM1MDAgJiMxMDtMIDIzNTYgMzUwMCAmIzEwO0wgMjM1NiAzMDUzICYjMTA7TCAxMTcyIDMwNTMgJiMxMDtMIDExNzIgMTE1MyAmIzEwO1EgMTE3MiA3MjUgMTI4OSA2MDMgJiMxMDtRIDE0MDYgNDgxIDE3NjYgNDgxICYjMTA7TCAyMzU2IDQ4MSAmIzEwO0wgMjM1NiAwICYjMTA7TCAxNzY2IDAgJiMxMDtRIDExMDAgMCA4NDcgMjQ4ICYjMTA7USA1OTQgNDk3IDU5NCAxMTUzICYjMTA7TCA1OTQgMzA1MyAmIzEwO0wgMTcyIDMwNTMgJiMxMDtMIDE3MiAzNTAwICYjMTA7TCA1OTQgMzUwMCAmIzEwO0wgNTk0IDQ0OTQgJiMxMDtMIDExNzIgNDQ5NCAmIzEwO3oiIGlkPSJEZWphVnVTYW5zLTc0Ii8+JiN4YTsgICAgICAgPHBhdGggdHJhbnNmb3JtPSJzY2FsZSgwLjAxNTYyNSkiIGQ9Ik0gMzUxMyAyMTEzICYjMTA7TCAzNTEzIDAgJiMxMDtMIDI5MzggMCAmIzEwO0wgMjkzOCAyMDk0ICYjMTA7USAyOTM4IDI1OTEgMjc0NCAyODM3ICYjMTA7USAyNTUwIDMwODQgMjE2MyAzMDg0ICYjMTA7USAxNjk3IDMwODQgMTQyOCAyNzg3ICYjMTA7USAxMTU5IDI0OTEgMTE1OSAxOTc4ICYjMTA7TCAxMTU5IDAgJiMxMDtMIDU4MSAwICYjMTA7TCA1ODEgNDg2MyAmIzEwO0wgMTE1OSA0ODYzICYjMTA7TCAxMTU5IDI5NTYgJiMxMDtRIDEzNjYgMzI3MiAxNjQ1IDM0MjggJiMxMDtRIDE5MjUgMzU4NCAyMjkxIDM1ODQgJiMxMDtRIDI4OTQgMzU4NCAzMjAzIDMyMTEgJiMxMDtRIDM1MTMgMjgzOCAzNTEzIDIxMTMgJiMxMDt6IiBpZD0iRGVqYVZ1U2Fucy02OCIvPiYjeGE7ICAgICAgIDxwYXRoIHRyYW5zZm9ybT0ic2NhbGUoMC4wMTU2MjUpIiBpZD0iRGVqYVZ1U2Fucy0yMCIvPiYjeGE7ICAgICAgIDxwYXRoIHRyYW5zZm9ybT0ic2NhbGUoMC4wMTU2MjUpIiBkPSJNIDU1MCA0ODYzICYjMTA7TCAxODc1IDQ4NjMgJiMxMDtMIDE4NzUgNDQxNiAmIzEwO0wgMTEyNSA0NDE2ICYjMTA7TCAxMTI1IC0zOTcgJiMxMDtMIDE4NzUgLTM5NyAmIzEwO0wgMTg3NSAtODQ0ICYjMTA7TCA1NTAgLTg0NCAmIzEwO0wgNTUwIDQ4NjMgJiMxMDt6IiBpZD0iRGVqYVZ1U2Fucy01YiIvPiYjeGE7ICAgICAgIDxwYXRoIHRyYW5zZm9ybT0ic2NhbGUoMC4wMTU2MjUpIiBkPSJNIDExNTkgNTI1ICYjMTA7TCAxMTU5IC0xMzMxICYjMTA7TCA1ODEgLTEzMzEgJiMxMDtMIDU4MSAzNTAwICYjMTA7TCAxMTU5IDM1MDAgJiMxMDtMIDExNTkgMjk2OSAmIzEwO1EgMTM0MSAzMjgxIDE2MTcgMzQzMiAmIzEwO1EgMTg5NCAzNTg0IDIyNzggMzU4NCAmIzEwO1EgMjkxNiAzNTg0IDMzMTQgMzA3OCAmIzEwO1EgMzcxMyAyNTcyIDM3MTMgMTc0NyAmIzEwO1EgMzcxMyA5MjIgMzMxNCA0MTUgJiMxMDtRIDI5MTYgLTkxIDIyNzggLTkxICYjMTA7USAxODk0IC05MSAxNjE3IDYxICYjMTA7USAxMzQxIDIxMyAxMTU5IDUyNSAmIzEwO3omIzEwO00gMzExNiAxNzQ3ICYjMTA7USAzMTE2IDIzODEgMjg1NSAyNzQyICYjMTA7USAyNTk0IDMxMDMgMjEzOCAzMTAzICYjMTA7USAxNjgxIDMxMDMgMTQyMCAyNzQyICYjMTA7USAxMTU5IDIzODEgMTE1OSAxNzQ3ICYjMTA7USAxMTU5IDExMTMgMTQyMCA3NTIgJiMxMDtRIDE2ODEgMzkxIDIxMzggMzkxICYjMTA7USAyNTk0IDM5MSAyODU1IDc1MiAmIzEwO1EgMzExNiAxMTEzIDMxMTYgMTc0NyAmIzEwO3oiIGlkPSJEZWphVnVTYW5zLTcwIi8+JiN4YTsgICAgICAgPHBhdGggdHJhbnNmb3JtPSJzY2FsZSgwLjAxNTYyNSkiIGQ9Ik0gMzUxMyAzNTAwICYjMTA7TCAyMjQ3IDE3OTcgJiMxMDtMIDM1NzggMCAmIzEwO0wgMjkwMCAwICYjMTA7TCAxODgxIDEzNzUgJiMxMDtMIDg2MyAwICYjMTA7TCAxODQgMCAmIzEwO0wgMTU0NCAxODMxICYjMTA7TCAzMDAgMzUwMCAmIzEwO0wgOTc4IDM1MDAgJiMxMDtMIDE5MDYgMjI1MyAmIzEwO0wgMjgzNCAzNTAwICYjMTA7TCAzNTEzIDM1MDAgJiMxMDt6IiBpZD0iRGVqYVZ1U2Fucy03OCIvPiYjeGE7ICAgICAgIDxwYXRoIHRyYW5zZm9ybT0ic2NhbGUoMC4wMTU2MjUpIiBkPSJNIDE5NDcgNDg2MyAmIzEwO0wgMTk0NyAtODQ0ICYjMTA7TCA2MjIgLTg0NCAmIzEwO0wgNjIyIC0zOTcgJiMxMDtMIDEzNjkgLTM5NyAmIzEwO0wgMTM2OSA0NDE2ICYjMTA7TCA2MjIgNDQxNiAmIzEwO0wgNjIyIDQ4NjMgJiMxMDtMIDE5NDcgNDg2MyAmIzEwO3oiIGlkPSJEZWphVnVTYW5zLTVkIi8+JiN4YTsgICAgICA8L2RlZnM+JiN4YTsgICAgICA8dXNlIHhsaW5rOmhyZWY9IiNEZWphVnVTYW5zLTU3Ii8+JiN4YTsgICAgICA8dXNlIHg9Ijk2LjYyNjk1MyIgeGxpbms6aHJlZj0iI0RlamFWdVNhbnMtNjkiLz4mI3hhOyAgICAgIDx1c2UgeD0iMTI0LjQxMDE1NiIgeGxpbms6aHJlZj0iI0RlamFWdVNhbnMtNjQiLz4mI3hhOyAgICAgIDx1c2UgeD0iMTg3Ljg4NjcxOSIgeGxpbms6aHJlZj0iI0RlamFWdVNhbnMtNzQiLz4mI3hhOyAgICAgIDx1c2UgeD0iMjI3LjA5NTcwMyIgeGxpbms6aHJlZj0iI0RlamFWdVNhbnMtNjgiLz4mI3hhOyAgICAgIDx1c2UgeD0iMjkwLjQ3NDYwOSIgeGxpbms6aHJlZj0iI0RlamFWdVNhbnMtMjAiLz4mI3hhOyAgICAgIDx1c2UgeD0iMzIyLjI2MTcxOSIgeGxpbms6aHJlZj0iI0RlamFWdVNhbnMtNWIiLz4mI3hhOyAgICAgIDx1c2UgeD0iMzYxLjI3NTM5MSIgeGxpbms6aHJlZj0iI0RlamFWdVNhbnMtNzAiLz4mI3hhOyAgICAgIDx1c2UgeD0iNDI0Ljc1MTk1MyIgeGxpbms6aHJlZj0iI0RlamFWdVNhbnMtNzgiLz4mI3hhOyAgICAgIDx1c2UgeD0iNDgzLjkzMTY0MSIgeGxpbms6aHJlZj0iI0RlamFWdVNhbnMtNWQiLz4mI3hhOyAgICAgPC9nPiYjeGE7ICAgIDwvZz4mI3hhOyAgIDwvZz4mI3hhOyAgIDxnIGlkPSJtYXRwbG90bGliLmF4aXNfMiI+JiN4YTsgICAgPGcgaWQ9Inl0aWNrXzEiPiYjeGE7ICAgICA8ZyBpZD0ibGluZTJkXzYiPiYjeGE7ICAgICAgPGRlZnM+JiN4YTsgICAgICAgPHBhdGggc3R5bGU9InN0cm9rZTogIzAwMDAwMDsgc3Ryb2tlLXdpZHRoOiAwLjgiIGQ9Ik0gMCAwICYjMTA7TCAtMy41IDAiIGlkPSJtMGIyNWZjNmE0MCIvPiYjeGE7ICAgICAgPC9kZWZzPiYjeGE7ICAgICAgPGc+JiN4YTsgICAgICAgPHVzZSBzdHlsZT0ic3Ryb2tlOiAjMDAwMDAwOyBzdHJva2Utd2lkdGg6IDAuOCIgeT0iMTk5LjI5OTYiIHg9IjQwLjYwMzEyNSIgeGxpbms6aHJlZj0iI20wYjI1ZmM2YTQwIi8+JiN4YTsgICAgICA8L2c+JiN4YTsgICAgIDwvZz4mI3hhOyAgICAgPGcgaWQ9InRleHRfNyI+JiN4YTsgICAgICAmI3hhOyAgICAgIDxnIHRyYW5zZm9ybT0idHJhbnNsYXRlKDI3LjI0MDYyNSAyMDMuMDk4ODE5KSBzY2FsZSgwLjEgLTAuMSkiPiYjeGE7ICAgICAgIDx1c2UgeGxpbms6aHJlZj0iI0RlamFWdVNhbnMtMzAiLz4mI3hhOyAgICAgIDwvZz4mI3hhOyAgICAgPC9nPiYjeGE7ICAgIDwvZz4mI3hhOyAgICA8ZyBpZD0ieXRpY2tfMiI+JiN4YTsgICAgIDxnIGlkPSJsaW5lMmRfNyI+JiN4YTsgICAgICA8Zz4mI3hhOyAgICAgICA8dXNlIHN0eWxlPSJzdHJva2U6ICMwMDAwMDA7IHN0cm9rZS13aWR0aDogMC44IiB5PSIxNjAuNDkxNiIgeD0iNDAuNjAzMTI1IiB4bGluazpocmVmPSIjbTBiMjVmYzZhNDAiLz4mI3hhOyAgICAgIDwvZz4mI3hhOyAgICAgPC9nPiYjeGE7ICAgICA8ZyBpZD0idGV4dF84Ij4mI3hhOyAgICAgICYjeGE7ICAgICAgPGcgdHJhbnNmb3JtPSJ0cmFuc2xhdGUoMjAuODc4MTI1IDE2NC4yOTA4MTkpIHNjYWxlKDAuMSAtMC4xKSI+JiN4YTsgICAgICAgPHVzZSB4bGluazpocmVmPSIjRGVqYVZ1U2Fucy0zMSIvPiYjeGE7ICAgICAgIDx1c2UgeD0iNjMuNjIzMDQ3IiB4bGluazpocmVmPSIjRGVqYVZ1U2Fucy0zMCIvPiYjeGE7ICAgICAgPC9nPiYjeGE7ICAgICA8L2c+JiN4YTsgICAgPC9nPiYjeGE7ICAgIDxnIGlkPSJ5dGlja18zIj4mI3hhOyAgICAgPGcgaWQ9ImxpbmUyZF84Ij4mI3hhOyAgICAgIDxnPiYjeGE7ICAgICAgIDx1c2Ugc3R5bGU9InN0cm9rZTogIzAwMDAwMDsgc3Ryb2tlLXdpZHRoOiAwLjgiIHk9IjEyMS42ODM2IiB4PSI0MC42MDMxMjUiIHhsaW5rOmhyZWY9IiNtMGIyNWZjNmE0MCIvPiYjeGE7ICAgICAgPC9nPiYjeGE7ICAgICA8L2c+JiN4YTsgICAgIDxnIGlkPSJ0ZXh0XzkiPiYjeGE7ICAgICAgJiN4YTsgICAgICA8ZyB0cmFuc2Zvcm09InRyYW5zbGF0ZSgyMC44NzgxMjUgMTI1LjQ4MjgxOSkgc2NhbGUoMC4xIC0wLjEpIj4mI3hhOyAgICAgICA8dXNlIHhsaW5rOmhyZWY9IiNEZWphVnVTYW5zLTMyIi8+JiN4YTsgICAgICAgPHVzZSB4PSI2My42MjMwNDciIHhsaW5rOmhyZWY9IiNEZWphVnVTYW5zLTMwIi8+JiN4YTsgICAgICA8L2c+JiN4YTsgICAgIDwvZz4mI3hhOyAgICA8L2c+JiN4YTsgICAgPGcgaWQ9Inl0aWNrXzQiPiYjeGE7ICAgICA8ZyBpZD0ibGluZTJkXzkiPiYjeGE7ICAgICAgPGc+JiN4YTsgICAgICAgPHVzZSBzdHlsZT0ic3Ryb2tlOiAjMDAwMDAwOyBzdHJva2Utd2lkdGg6IDAuOCIgeT0iODIuODc1NiIgeD0iNDAuNjAzMTI1IiB4bGluazpocmVmPSIjbTBiMjVmYzZhNDAiLz4mI3hhOyAgICAgIDwvZz4mI3hhOyAgICAgPC9nPiYjeGE7ICAgICA8ZyBpZD0idGV4dF8xMCI+JiN4YTsgICAgICAmI3hhOyAgICAgIDxnIHRyYW5zZm9ybT0idHJhbnNsYXRlKDIwLjg3ODEyNSA4Ni42NzQ4MTkpIHNjYWxlKDAuMSAtMC4xKSI+JiN4YTsgICAgICAgPHVzZSB4bGluazpocmVmPSIjRGVqYVZ1U2Fucy0zMyIvPiYjeGE7ICAgICAgIDx1c2UgeD0iNjMuNjIzMDQ3IiB4bGluazpocmVmPSIjRGVqYVZ1U2Fucy0zMCIvPiYjeGE7ICAgICAgPC9nPiYjeGE7ICAgICA8L2c+JiN4YTsgICAgPC9nPiYjeGE7ICAgIDxnIGlkPSJ5dGlja181Ij4mI3hhOyAgICAgPGcgaWQ9ImxpbmUyZF8xMCI+JiN4YTsgICAgICA8Zz4mI3hhOyAgICAgICA8dXNlIHN0eWxlPSJzdHJva2U6ICMwMDAwMDA7IHN0cm9rZS13aWR0aDogMC44IiB5PSI0NC4wNjc2IiB4PSI0MC42MDMxMjUiIHhsaW5rOmhyZWY9IiNtMGIyNWZjNmE0MCIvPiYjeGE7ICAgICAgPC9nPiYjeGE7ICAgICA8L2c+JiN4YTsgICAgIDxnIGlkPSJ0ZXh0XzExIj4mI3hhOyAgICAgICYjeGE7ICAgICAgPGcgdHJhbnNmb3JtPSJ0cmFuc2xhdGUoMjAuODc4MTI1IDQ3Ljg2NjgxOSkgc2NhbGUoMC4xIC0wLjEpIj4mI3hhOyAgICAgICA8dXNlIHhsaW5rOmhyZWY9IiNEZWphVnVTYW5zLTM0Ii8+JiN4YTsgICAgICAgPHVzZSB4PSI2My42MjMwNDciIHhsaW5rOmhyZWY9IiNEZWphVnVTYW5zLTMwIi8+JiN4YTsgICAgICA8L2c+JiN4YTsgICAgIDwvZz4mI3hhOyAgICA8L2c+JiN4YTsgICAgPGcgaWQ9InRleHRfMTIiPiYjeGE7ICAgICAmI3hhOyAgICAgPGcgdHJhbnNmb3JtPSJ0cmFuc2xhdGUoMTQuNzk4NDM4IDEzMi4zNzMxMjUpIHJvdGF0ZSgtOTApIHNjYWxlKDAuMSAtMC4xKSI+JiN4YTsgICAgICA8ZGVmcz4mI3hhOyAgICAgICA8cGF0aCB0cmFuc2Zvcm09InNjYWxlKDAuMDE1NjI1KSIgZD0iTSA2MjggNDY2NiAmIzEwO0wgMTI1OSA0NjY2ICYjMTA7TCAxMjU5IDI3NTMgJiMxMDtMIDM1NTMgMjc1MyAmIzEwO0wgMzU1MyA0NjY2ICYjMTA7TCA0MTg0IDQ2NjYgJiMxMDtMIDQxODQgMCAmIzEwO0wgMzU1MyAwICYjMTA7TCAzNTUzIDIyMjIgJiMxMDtMIDEyNTkgMjIyMiAmIzEwO0wgMTI1OSAwICYjMTA7TCA2MjggMCAmIzEwO0wgNjI4IDQ2NjYgJiMxMDt6IiBpZD0iRGVqYVZ1U2Fucy00OCIvPiYjeGE7ICAgICAgIDxwYXRoIHRyYW5zZm9ybT0ic2NhbGUoMC4wMTU2MjUpIiBkPSJNIDM1OTcgMTg5NCAmIzEwO0wgMzU5NyAxNjEzICYjMTA7TCA5NTMgMTYxMyAmIzEwO1EgOTkxIDEwMTkgMTMxMSA3MDggJiMxMDtRIDE2MzEgMzk3IDIyMDMgMzk3ICYjMTA7USAyNTM0IDM5NyAyODQ1IDQ3OCAmIzEwO1EgMzE1NiA1NTkgMzQ2MyA3MjIgJiMxMDtMIDM0NjMgMTc4ICYjMTA7USAzMTUzIDQ3IDI4MjggLTIyICYjMTA7USAyNTAzIC05MSAyMTY5IC05MSAmIzEwO1EgMTMzMSAtOTEgODQyIDM5NiAmIzEwO1EgMzUzIDg4NCAzNTMgMTcxNiAmIzEwO1EgMzUzIDI1NzUgODE3IDMwNzkgJiMxMDtRIDEyODEgMzU4NCAyMDY5IDM1ODQgJiMxMDtRIDI3NzUgMzU4NCAzMTg2IDMxMjkgJiMxMDtRIDM1OTcgMjY3NSAzNTk3IDE4OTQgJiMxMDt6JiMxMDtNIDMwMjIgMjA2MyAmIzEwO1EgMzAxNiAyNTM0IDI3NTggMjgxNSAmIzEwO1EgMjUwMCAzMDk3IDIwNzUgMzA5NyAmIzEwO1EgMTU5NCAzMDk3IDEzMDUgMjgyNSAmIzEwO1EgMTAxNiAyNTUzIDk3MiAyMDU5ICYjMTA7TCAzMDIyIDIwNjMgJiMxMDt6IiBpZD0iRGVqYVZ1U2Fucy02NSIvPiYjeGE7ICAgICAgIDxwYXRoIHRyYW5zZm9ybT0ic2NhbGUoMC4wMTU2MjUpIiBkPSJNIDI5MDYgMTc5MSAmIzEwO1EgMjkwNiAyNDE2IDI2NDggMjc1OSAmIzEwO1EgMjM5MSAzMTAzIDE5MjUgMzEwMyAmIzEwO1EgMTQ2MyAzMTAzIDEyMDUgMjc1OSAmIzEwO1EgOTQ3IDI0MTYgOTQ3IDE3OTEgJiMxMDtRIDk0NyAxMTY5IDEyMDUgODI1ICYjMTA7USAxNDYzIDQ4MSAxOTI1IDQ4MSAmIzEwO1EgMjM5MSA0ODEgMjY0OCA4MjUgJiMxMDtRIDI5MDYgMTE2OSAyOTA2IDE3OTEgJiMxMDt6JiMxMDtNIDM0ODEgNDM0ICYjMTA7USAzNDgxIC00NTkgMzA4NCAtODk1ICYjMTA7USAyNjg4IC0xMzMxIDE4NjkgLTEzMzEgJiMxMDtRIDE1NjYgLTEzMzEgMTI5NyAtMTI4NiAmIzEwO1EgMTAyOCAtMTI0MSA3NzUgLTExNDcgJiMxMDtMIDc3NSAtNTg4ICYjMTA7USAxMDI4IC03MjUgMTI3NSAtNzkwICYjMTA7USAxNTIyIC04NTYgMTc3OCAtODU2ICYjMTA7USAyMzQ0IC04NTYgMjYyNSAtNTYxICYjMTA7USAyOTA2IC0yNjYgMjkwNiAzMzEgJiMxMDtMIDI5MDYgNjE2ICYjMTA7USAyNzI4IDMwNiAyNDUwIDE1MyAmIzEwO1EgMjE3MiAwIDE3ODQgMCAmIzEwO1EgMTE0MSAwIDc0NyA0OTAgJiMxMDtRIDM1MyA5ODEgMzUzIDE3OTEgJiMxMDtRIDM1MyAyNjAzIDc0NyAzMDkzICYjMTA7USAxMTQxIDM1ODQgMTc4NCAzNTg0ICYjMTA7USAyMTcyIDM1ODQgMjQ1MCAzNDMxICYjMTA7USAyNzI4IDMyNzggMjkwNiAyOTY5ICYjMTA7TCAyOTA2IDM1MDAgJiMxMDtMIDM0ODEgMzUwMCAmIzEwO0wgMzQ4MSA0MzQgJiMxMDt6IiBpZD0iRGVqYVZ1U2Fucy02NyIvPiYjeGE7ICAgICAgPC9kZWZzPiYjeGE7ICAgICAgPHVzZSB4bGluazpocmVmPSIjRGVqYVZ1U2Fucy00OCIvPiYjeGE7ICAgICAgPHVzZSB4PSI3NS4xOTUzMTIiIHhsaW5rOmhyZWY9IiNEZWphVnVTYW5zLTY1Ii8+JiN4YTsgICAgICA8dXNlIHg9IjEzNi43MTg3NSIgeGxpbms6aHJlZj0iI0RlamFWdVNhbnMtNjkiLz4mI3hhOyAgICAgIDx1c2UgeD0iMTY0LjUwMTk1MyIgeGxpbms6aHJlZj0iI0RlamFWdVNhbnMtNjciLz4mI3hhOyAgICAgIDx1c2UgeD0iMjI3Ljk3ODUxNiIgeGxpbms6aHJlZj0iI0RlamFWdVNhbnMtNjgiLz4mI3hhOyAgICAgIDx1c2UgeD0iMjkxLjM1NzQyMiIgeGxpbms6aHJlZj0iI0RlamFWdVNhbnMtNzQiLz4mI3hhOyAgICAgIDx1c2UgeD0iMzMwLjU2NjQwNiIgeGxpbms6aHJlZj0iI0RlamFWdVNhbnMtMjAiLz4mI3hhOyAgICAgIDx1c2UgeD0iMzYyLjM1MzUxNiIgeGxpbms6aHJlZj0iI0RlamFWdVNhbnMtNWIiLz4mI3hhOyAgICAgIDx1c2UgeD0iNDAxLjM2NzE4OCIgeGxpbms6aHJlZj0iI0RlamFWdVNhbnMtNzAiLz4mI3hhOyAgICAgIDx1c2UgeD0iNDY0Ljg0Mzc1IiB4bGluazpocmVmPSIjRGVqYVZ1U2Fucy03OCIvPiYjeGE7ICAgICAgPHVzZSB4PSI1MjQuMDIzNDM4IiB4bGluazpocmVmPSIjRGVqYVZ1U2Fucy01ZCIvPiYjeGE7ICAgICA8L2c+JiN4YTsgICAgPC9nPiYjeGE7ICAgPC9nPiYjeGE7ICAgPGcgaWQ9InBhdGNoXzMiPiYjeGE7ICAgIDxwYXRoIHN0eWxlPSJmaWxsOiBub25lOyBzdHJva2U6ICMwMDAwMDA7IHN0cm9rZS13aWR0aDogMC44OyBzdHJva2UtbGluZWpvaW46IG1pdGVyOyBzdHJva2UtbGluZWNhcDogc3F1YXJlIiBkPSJNIDQwLjYwMzEyNSAyMDEuMjQgJiMxMDtMIDQwLjYwMzEyNSA3LjIiLz4mI3hhOyAgIDwvZz4mI3hhOyAgIDxnIGlkPSJwYXRjaF80Ij4mI3hhOyAgICA8cGF0aCBzdHlsZT0iZmlsbDogbm9uZTsgc3Ryb2tlOiAjMDAwMDAwOyBzdHJva2Utd2lkdGg6IDAuODsgc3Ryb2tlLWxpbmVqb2luOiBtaXRlcjsgc3Ryb2tlLWxpbmVjYXA6IHNxdWFyZSIgZD0iTSAyMzQuNjQzMTI1IDIwMS4yNCAmIzEwO0wgMjM0LjY0MzEyNSA3LjIiLz4mI3hhOyAgIDwvZz4mI3hhOyAgIDxnIGlkPSJwYXRjaF81Ij4mI3hhOyAgICA8cGF0aCBzdHlsZT0iZmlsbDogbm9uZTsgc3Ryb2tlOiAjMDAwMDAwOyBzdHJva2Utd2lkdGg6IDAuODsgc3Ryb2tlLWxpbmVqb2luOiBtaXRlcjsgc3Ryb2tlLWxpbmVjYXA6IHNxdWFyZSIgZD0iTSA0MC42MDMxMjUgMjAxLjI0ICYjMTA7TCAyMzQuNjQzMTI1IDIwMS4yNCIvPiYjeGE7ICAgPC9nPiYjeGE7ICAgPGcgaWQ9InBhdGNoXzYiPiYjeGE7ICAgIDxwYXRoIHN0eWxlPSJmaWxsOiBub25lOyBzdHJva2U6ICMwMDAwMDA7IHN0cm9rZS13aWR0aDogMC44OyBzdHJva2UtbGluZWpvaW46IG1pdGVyOyBzdHJva2UtbGluZWNhcDogc3F1YXJlIiBkPSJNIDQwLjYwMzEyNSA3LjIgJiMxMDtMIDIzNC42NDMxMjUgNy4yIi8+JiN4YTsgICA8L2c+JiN4YTsgIDwvZz4mI3hhOyAgPGcgaWQ9ImF4ZXNfMiI+JiN4YTsgICA8ZyBpZD0icGF0Y2hfNyI+JiN4YTsgICAgPHBhdGggc3R5bGU9ImZpbGw6ICNmZmZmZmYiIGQ9Ik0gMjUxLjM4MzEyNSAyMDEuMjQgJiMxMDtMIDI2MS4wODUxMjUgMjAxLjI0ICYjMTA7TCAyNjEuMDg1MTI1IDcuMiAmIzEwO0wgMjUxLjM4MzEyNSA3LjIgJiMxMDt6Ii8+JiN4YTsgICA8L2c+JiN4YTsgICA8aW1hZ2UgaGVpZ2h0PSIxOTQuMTYiIHdpZHRoPSI5Ljg0IiB5PSItNi45NiIgeD0iMjUxLjI4IiB0cmFuc2Zvcm09InNjYWxlKDEgLTEpIHRyYW5zbGF0ZSgwIC0xOTQuMTYpIiBpZD0iaW1hZ2VjYjQxYWQxZjdlIiB4bGluazpocmVmPSJkYXRhOmltYWdlL3BuZztiYXNlNjQsJiMxMDtpVkJPUncwS0dnb0FBQUFOU1VoRVVnQUFBQ2tBQUFNcENBWUFBQUNaaUJwckFBQUZQa2xFUVZSNG5PM2MwVzNETUJEQVVLVzQvVWZXZFlUa2c0Qk5nRzhDSXVwSnN0UDJzN3Q3WHU3djZZQmZGRW1aZTEvL0krbjRKQldSczN1ZmJ2aEs4VWtxSXB0dWlpS3k2YVlvSXB0dWlpS3k2YVlVU1drTG9pZ2lSL0FDdy9GSktpTG4zazRjaENKeWJ0UE5VRVRPTnQwTVJXVFRUU21TMG4yU29vanNQa2xSUkRiZEZFVms3NElvaXNoZVIxTVVrVTAzUlJIWjJVMHBrdElXUkZGRXp1MkN3VkJFempiZERFVmtyNk1waXNqdWt4UkZaRmMxU3BHVXRpQ0tJcklMQmtVUjJlTURSUkhaZEZNVWtVMDNSUkhaZEZPS3BQVDRRRkZFdGdWUkZKRzlzS0lvSXR2TUtZcklObk9LSW5JRXErMzRKQldSdlJ5Z0ZFbnB4S0VvSWp0eEtJcklwcHVpaU94cGthS0lITUYxMHZGSktpS2Jia3FSbExZZ2lpS3lMWWlpaUJ6Qkh6WTVQa2xGWkpzNVJSSFpaazVSUk03N0YxdnlTUlpKNmNTaEtDSTdjU2lLeUw1c29pZ2kyOHdwaXNpbW02S0k3T3ltRkVucHhLRW9JanR4S0lySWxwdWlpT3o5SkVVUjJkbE5VVVMybVZNVWtTMDNwVWhLUDVNVVJXUi8rMEJSUlBiNFFGRkV0cGxURkpFdE4wVVIyWEpUaXFTTTRIZmhIWitrSXJJdGlLS0liTGtwaXNpV202S0k3T1VBUlJIWmQ0dVVJaW1kT0JSRlpNdE5VVVIyd2FBb0lwdHVpaUt5K3lSRkVkbDBVeFNSbmQyVUlpbHRRUlJGNU94K25tNzRTdkZKS2lLYmJvb2lzdDhjb0NnaW0yNktJckxscGhSSjZaR1dvb2hzQzZJb0luc2RUVkZFTnQwVVJXUm5OMFVSMlhSVGlxVDBNMGxSUkhhZnBDZ2l1MkJRRkpGdDVoUkZaUCtubDZLSWJMb3Bpc2l1YXBRaUtkMG5LWXJJVGh5S0lyTGxwaWdpdTJCUUZKRk5OMFVST1h2ZXY5NktUN0pJU2ljT1JSSFppVU5SUkxiY0ZFVmsvM1Nkb29oc3VpbUt5SzVxbENJcGZkOU5VVVIyNGxBVWtkMG5LWXJJcHB1aWlHeTZLWXJJbHB1aWlHd3pweFJKYVF1aUtDSjdPVUJSUk00VnZLQlVmSktLeURaemlpS3l6WnlpaUd5NktVVlMyb0lvaXNpMklJb2lzc2NIaWlLeXpaeWlpR3d6cHlnaTUrNzcvKzI2NHBNc2tqTGJCWU9oaUd3TG9pZ2l1MDlTRkpIZEp5bUt5Tm5iWm81UVJEYmRGRVhrYkZjMVJwR1V0aUNLSXJJdGlLS0liTG9waXNnZUh5aUt5RFp6aWlLeXpaeFNKS1V0aUtLSTdOc0hpaUt5NmFZb0lsdHVpaUt5elp5aWlHeTZLVVZTMm9Jb2lzaTJJSW9pc3VXbUtDTGJ6Q21LeUthYm9vaHN1aW1LeUthYlVpU2xuMG1LSW5KT0p3NURFZGwwVXhTUjNTY3Bpc2ltbTZLSTdPeW1GRWxwQzZJb0lsdHVpaUt5RTRlaWlHeTZLWXJJcHB1aWlHeTZLVVZTZW1GRlVVVE9hUXRpS0NJN2NTaUt5TzZURkVYazdHbTZFWXJJcHB1aWlPenNwaFJKYVF1aUtDTGJnaWlLeUthYm9vaHN1aW1LeUthYm9vanNUUytsU0VwZk5sRVVrVzFCRkVWazAwMVJSRGJkRkVWa2p3OFVSV1RmTFZLS3BMUUZVUlNSdlora0tDS2Jib29pc3NjSGlpS3lsd01VUldUVFRWRkVkblpUaXFTMEJWRVVrVjB3S0lySU9iMmZaQ2dpdTJCUUZKRzkrcU1vSXB0dVNwR1VmaVlwaXNpZUZpbUt5SjRXS1lySXBwdWlpSnh6bW02RUlyS3JHcVZJU204d0tJckl0aUNLSXJMN0pFVVIyWFJURkpFOVBsQVVrVjNWS0lySU5uTktrWlR1a3hSRlpGc1FSUkhaY2xNVWtmMXFJa1VSMlZmSkZFVmttem1sU0VxUER4UkZaTzhuS1lySVRoeUtJckxscGlnaU83c3Bpc2paem01R2taUk9ISW9pc3VXbUtDSjdIVTFSUkRiZEZFVmt5MDFSUkxiY2xDSXAvYXR3aWlLeUxZaWlpT3pYR3lpS3lLYWJvb2pzcTJTS0lyTE5uS0tJN0MrYktFVlN1bUJRRkpHZE9CUkZaTk5OVVVRMjNSUkZaUGRKaWlLeXpaeFNKS1V0aUtLSWJBdWlLQ0tiYm9vaXNyOTlvQ2dpbTI2S0lyTGxwaFJKNmNTaEtDSm5iOHVOVUVRMjNSUkY1RCtoZ25Cd0JQR3VxUUFBQUFCSlJVNUVya0pnZ2c9PSIvPiYjeGE7ICAgPGcgaWQ9Im1hdHBsb3RsaWIuYXhpc18zIi8+JiN4YTsgICA8ZyBpZD0ibWF0cGxvdGxpYi5heGlzXzQiPiYjeGE7ICAgIDxnIGlkPSJ5dGlja182Ij4mI3hhOyAgICAgPGcgaWQ9ImxpbmUyZF8xMSI+JiN4YTsgICAgICA8ZGVmcz4mI3hhOyAgICAgICA8cGF0aCBzdHlsZT0ic3Ryb2tlOiAjMDAwMDAwOyBzdHJva2Utd2lkdGg6IDAuOCIgZD0iTSAwIDAgJiMxMDtMIDMuNSAwIiBpZD0ibTk0Y2Q5YzAwNTgiLz4mI3hhOyAgICAgIDwvZGVmcz4mI3hhOyAgICAgIDxnPiYjeGE7ICAgICAgIDx1c2Ugc3R5bGU9InN0cm9rZTogIzAwMDAwMDsgc3Ryb2tlLXdpZHRoOiAwLjgiIHk9IjE2OC41NjkyMiIgeD0iMjYxLjA4NTEyNSIgeGxpbms6aHJlZj0iI205NGNkOWMwMDU4Ii8+JiN4YTsgICAgICA8L2c+JiN4YTsgICAgIDwvZz4mI3hhOyAgICAgPGcgaWQ9InRleHRfMTMiPiYjeGE7ICAgICAgJiN4YTsgICAgICA8ZyB0cmFuc2Zvcm09InRyYW5zbGF0ZSgyNjguMDg1MTI1IDE3Mi4zNjg0MzkpIHNjYWxlKDAuMSAtMC4xKSI+JiN4YTsgICAgICAgPGRlZnM+JiN4YTsgICAgICAgIDxwYXRoIHRyYW5zZm9ybT0ic2NhbGUoMC4wMTU2MjUpIiBkPSJNIDY3OCAyMjcyICYjMTA7TCA0Njg0IDIyNzIgJiMxMDtMIDQ2ODQgMTc0MSAmIzEwO0wgNjc4IDE3NDEgJiMxMDtMIDY3OCAyMjcyICYjMTA7eiIgaWQ9IkRlamFWdVNhbnMtMjIxMiIvPiYjeGE7ICAgICAgICA8cGF0aCB0cmFuc2Zvcm09InNjYWxlKDAuMDE1NjI1KSIgZD0iTSA2ODQgNzk0ICYjMTA7TCAxMzQ0IDc5NCAmIzEwO0wgMTM0NCAwICYjMTA7TCA2ODQgMCAmIzEwO0wgNjg0IDc5NCAmIzEwO3oiIGlkPSJEZWphVnVTYW5zLTJlIi8+JiN4YTsgICAgICAgPC9kZWZzPiYjeGE7ICAgICAgIDx1c2UgeGxpbms6aHJlZj0iI0RlamFWdVNhbnMtMjIxMiIvPiYjeGE7ICAgICAgIDx1c2UgeD0iODMuNzg5MDYyIiB4bGluazpocmVmPSIjRGVqYVZ1U2Fucy0zMSIvPiYjeGE7ICAgICAgIDx1c2UgeD0iMTQ3LjQxMjEwOSIgeGxpbms6aHJlZj0iI0RlamFWdVNhbnMtMmUiLz4mI3hhOyAgICAgICA8dXNlIHg9IjE3OS4xOTkyMTkiIHhsaW5rOmhyZWY9IiNEZWphVnVTYW5zLTMwIi8+JiN4YTsgICAgICA8L2c+JiN4YTsgICAgIDwvZz4mI3hhOyAgICA8L2c+JiN4YTsgICAgPGcgaWQ9Inl0aWNrXzciPiYjeGE7ICAgICA8ZyBpZD0ibGluZTJkXzEyIj4mI3hhOyAgICAgIDxnPiYjeGE7ICAgICAgIDx1c2Ugc3R5bGU9InN0cm9rZTogIzAwMDAwMDsgc3Ryb2tlLXdpZHRoOiAwLjgiIHk9IjEzMi42OTA0OSIgeD0iMjYxLjA4NTEyNSIgeGxpbms6aHJlZj0iI205NGNkOWMwMDU4Ii8+JiN4YTsgICAgICA8L2c+JiN4YTsgICAgIDwvZz4mI3hhOyAgICAgPGcgaWQ9InRleHRfMTQiPiYjeGE7ICAgICAgJiN4YTsgICAgICA8ZyB0cmFuc2Zvcm09InRyYW5zbGF0ZSgyNjguMDg1MTI1IDEzNi40ODk3MDgpIHNjYWxlKDAuMSAtMC4xKSI+JiN4YTsgICAgICAgPGRlZnM+JiN4YTsgICAgICAgIDxwYXRoIHRyYW5zZm9ybT0ic2NhbGUoMC4wMTU2MjUpIiBkPSJNIDY5MSA0NjY2ICYjMTA7TCAzMTY5IDQ2NjYgJiMxMDtMIDMxNjkgNDEzNCAmIzEwO0wgMTI2OSA0MTM0ICYjMTA7TCAxMjY5IDI5OTEgJiMxMDtRIDE0MDYgMzAzOCAxNTQzIDMwNjEgJiMxMDtRIDE2ODEgMzA4NCAxODE5IDMwODQgJiMxMDtRIDI2MDAgMzA4NCAzMDU2IDI2NTYgJiMxMDtRIDM1MTMgMjIyOCAzNTEzIDE0OTcgJiMxMDtRIDM1MTMgNzQ0IDMwNDQgMzI2ICYjMTA7USAyNTc1IC05MSAxNzIyIC05MSAmIzEwO1EgMTQyOCAtOTEgMTEyMyAtNDEgJiMxMDtRIDgxOSA5IDQ5NCAxMDkgJiMxMDtMIDQ5NCA3NDQgJiMxMDtRIDc3NSA1OTEgMTA3NSA1MTYgJiMxMDtRIDEzNzUgNDQxIDE3MDkgNDQxICYjMTA7USAyMjUwIDQ0MSAyNTY1IDcyNSAmIzEwO1EgMjg4MSAxMDA5IDI4ODEgMTQ5NyAmIzEwO1EgMjg4MSAxOTg0IDI1NjUgMjI2OCAmIzEwO1EgMjI1MCAyNTUzIDE3MDkgMjU1MyAmIzEwO1EgMTQ1NiAyNTUzIDEyMDQgMjQ5NyAmIzEwO1EgOTUzIDI0NDEgNjkxIDIzMjIgJiMxMDtMIDY5MSA0NjY2ICYjMTA7eiIgaWQ9IkRlamFWdVNhbnMtMzUiLz4mI3hhOyAgICAgICA8L2RlZnM+JiN4YTsgICAgICAgPHVzZSB4bGluazpocmVmPSIjRGVqYVZ1U2Fucy0yMjEyIi8+JiN4YTsgICAgICAgPHVzZSB4PSI4My43ODkwNjIiIHhsaW5rOmhyZWY9IiNEZWphVnVTYW5zLTMwIi8+JiN4YTsgICAgICAgPHVzZSB4PSIxNDcuNDEyMTA5IiB4bGluazpocmVmPSIjRGVqYVZ1U2Fucy0yZSIvPiYjeGE7ICAgICAgIDx1c2UgeD0iMTc5LjE5OTIxOSIgeGxpbms6aHJlZj0iI0RlamFWdVNhbnMtMzUiLz4mI3hhOyAgICAgIDwvZz4mI3hhOyAgICAgPC9nPiYjeGE7ICAgIDwvZz4mI3hhOyAgICA8ZyBpZD0ieXRpY2tfOCI+JiN4YTsgICAgIDxnIGlkPSJsaW5lMmRfMTMiPiYjeGE7ICAgICAgPGc+JiN4YTsgICAgICAgPHVzZSBzdHlsZT0ic3Ryb2tlOiAjMDAwMDAwOyBzdHJva2Utd2lkdGg6IDAuOCIgeT0iOTYuODExNzU5IiB4PSIyNjEuMDg1MTI1IiB4bGluazpocmVmPSIjbTk0Y2Q5YzAwNTgiLz4mI3hhOyAgICAgIDwvZz4mI3hhOyAgICAgPC9nPiYjeGE7ICAgICA8ZyBpZD0idGV4dF8xNSI+JiN4YTsgICAgICAmI3hhOyAgICAgIDxnIHRyYW5zZm9ybT0idHJhbnNsYXRlKDI2OC4wODUxMjUgMTAwLjYxMDk3OCkgc2NhbGUoMC4xIC0wLjEpIj4mI3hhOyAgICAgICA8dXNlIHhsaW5rOmhyZWY9IiNEZWphVnVTYW5zLTMwIi8+JiN4YTsgICAgICAgPHVzZSB4PSI2My42MjMwNDciIHhsaW5rOmhyZWY9IiNEZWphVnVTYW5zLTJlIi8+JiN4YTsgICAgICAgPHVzZSB4PSI5NS40MTAxNTYiIHhsaW5rOmhyZWY9IiNEZWphVnVTYW5zLTMwIi8+JiN4YTsgICAgICA8L2c+JiN4YTsgICAgIDwvZz4mI3hhOyAgICA8L2c+JiN4YTsgICAgPGcgaWQ9Inl0aWNrXzkiPiYjeGE7ICAgICA8ZyBpZD0ibGluZTJkXzE0Ij4mI3hhOyAgICAgIDxnPiYjeGE7ICAgICAgIDx1c2Ugc3R5bGU9InN0cm9rZTogIzAwMDAwMDsgc3Ryb2tlLXdpZHRoOiAwLjgiIHk9IjYwLjkzMzAyOSIgeD0iMjYxLjA4NTEyNSIgeGxpbms6aHJlZj0iI205NGNkOWMwMDU4Ii8+JiN4YTsgICAgICA8L2c+JiN4YTsgICAgIDwvZz4mI3hhOyAgICAgPGcgaWQ9InRleHRfMTYiPiYjeGE7ICAgICAgJiN4YTsgICAgICA8ZyB0cmFuc2Zvcm09InRyYW5zbGF0ZSgyNjguMDg1MTI1IDY0LjczMjI0Nykgc2NhbGUoMC4xIC0wLjEpIj4mI3hhOyAgICAgICA8dXNlIHhsaW5rOmhyZWY9IiNEZWphVnVTYW5zLTMwIi8+JiN4YTsgICAgICAgPHVzZSB4PSI2My42MjMwNDciIHhsaW5rOmhyZWY9IiNEZWphVnVTYW5zLTJlIi8+JiN4YTsgICAgICAgPHVzZSB4PSI5NS40MTAxNTYiIHhsaW5rOmhyZWY9IiNEZWphVnVTYW5zLTM1Ii8+JiN4YTsgICAgICA8L2c+JiN4YTsgICAgIDwvZz4mI3hhOyAgICA8L2c+JiN4YTsgICAgPGcgaWQ9Inl0aWNrXzEwIj4mI3hhOyAgICAgPGcgaWQ9ImxpbmUyZF8xNSI+JiN4YTsgICAgICA8Zz4mI3hhOyAgICAgICA8dXNlIHN0eWxlPSJzdHJva2U6ICMwMDAwMDA7IHN0cm9rZS13aWR0aDogMC44IiB5PSIyNS4wNTQyOTgiIHg9IjI2MS4wODUxMjUiIHhsaW5rOmhyZWY9IiNtOTRjZDljMDA1OCIvPiYjeGE7ICAgICAgPC9nPiYjeGE7ICAgICA8L2c+JiN4YTsgICAgIDxnIGlkPSJ0ZXh0XzE3Ij4mI3hhOyAgICAgICYjeGE7ICAgICAgPGcgdHJhbnNmb3JtPSJ0cmFuc2xhdGUoMjY4LjA4NTEyNSAyOC44NTM1MTcpIHNjYWxlKDAuMSAtMC4xKSI+JiN4YTsgICAgICAgPHVzZSB4bGluazpocmVmPSIjRGVqYVZ1U2Fucy0zMSIvPiYjeGE7ICAgICAgIDx1c2UgeD0iNjMuNjIzMDQ3IiB4bGluazpocmVmPSIjRGVqYVZ1U2Fucy0yZSIvPiYjeGE7ICAgICAgIDx1c2UgeD0iOTUuNDEwMTU2IiB4bGluazpocmVmPSIjRGVqYVZ1U2Fucy0zMCIvPiYjeGE7ICAgICAgPC9nPiYjeGE7ICAgICA8L2c+JiN4YTsgICAgPC9nPiYjeGE7ICAgPC9nPiYjeGE7ICAgPGcgaWQ9IkxpbmVDb2xsZWN0aW9uXzEiLz4mI3hhOyAgIDxnIGlkPSJwYXRjaF84Ij4mI3hhOyAgICA8cGF0aCBzdHlsZT0iZmlsbDogbm9uZTsgc3Ryb2tlOiAjMDAwMDAwOyBzdHJva2Utd2lkdGg6IDAuODsgc3Ryb2tlLWxpbmVqb2luOiBtaXRlcjsgc3Ryb2tlLWxpbmVjYXA6IHNxdWFyZSIgZD0iTSAyNTEuMzgzMTI1IDIwMS4yNCAmIzEwO0wgMjU2LjIzNDEyNSAyMDEuMjQgJiMxMDtMIDI2MS4wODUxMjUgMjAxLjI0ICYjMTA7TCAyNjEuMDg1MTI1IDcuMiAmIzEwO0wgMjU2LjIzNDEyNSA3LjIgJiMxMDtMIDI1MS4zODMxMjUgNy4yICYjMTA7TCAyNTEuMzgzMTI1IDIwMS4yNCAmIzEwO3oiLz4mI3hhOyAgIDwvZz4mI3hhOyAgPC9nPiYjeGE7IDwvZz4mI3hhOyA8ZGVmcz4mI3hhOyAgPGNsaXBQYXRoIGlkPSJwNDgzODg0ZTViYyI+JiN4YTsgICA8cmVjdCBoZWlnaHQ9IjE5NC4wNCIgd2lkdGg9IjE5NC4wNCIgeT0iNy4yIiB4PSI0MC42MDMxMjUiLz4mI3hhOyAgPC9jbGlwUGF0aD4mI3hhOyA8L2RlZnM+JiN4YTs8L3N2Zz4=;" vertex="1" parent="1">
          <mxGeometry x="66.48" y="360" width="251.04" height="200" as="geometry" />
        </mxCell>
        <mxCell id="YgXDNj5GHgHn8prNvWCJ-23" value="" style="shape=image;verticalLabelPosition=bottom;labelBackgroundColor=default;verticalAlign=top;aspect=fixed;imageAspect=0;image=data:image/svg+xml,PHN2ZyB4bWxucz0iaHR0cDovL3d3dy53My5vcmcvMjAwMC9zdmciIHhtbG5zOnhsaW5rPSJodHRwOi8vd3d3LnczLm9yZy8xOTk5L3hsaW5rIiB2ZXJzaW9uPSIxLjEiIHZpZXdCb3g9IjAgMCAyOTkuNTY3OTM4IDI0MC42NTUwNjkiIGhlaWdodD0iMjQwLjY1NTA2OXB0IiB3aWR0aD0iMjk5LjU2NzkzOHB0Ij4mI3hhOyA8bWV0YWRhdGE+JiN4YTsgICYjeGE7ICAgJiN4YTsgICAgJiN4YTsgICAgMjAyNC0xMC0wNFQxMDo0MToxNy45MDUxMzkmI3hhOyAgICBpbWFnZS9zdmcreG1sJiN4YTsgICAgJiN4YTsgICAgICYjeGE7ICAgICAgTWF0cGxvdGxpYiB2My43LjIsIGh0dHBzOi8vbWF0cGxvdGxpYi5vcmcvJiN4YTsgICAgICYjeGE7ICAgICYjeGE7ICAgJiN4YTsgICYjeGE7IDwvbWV0YWRhdGE+JiN4YTsgPGRlZnM+JiN4YTsgIDxzdHlsZSB0eXBlPSJ0ZXh0L2NzcyI+KntzdHJva2UtbGluZWpvaW46IHJvdW5kOyBzdHJva2UtbGluZWNhcDogYnV0dH08L3N0eWxlPiYjeGE7IDwvZGVmcz4mI3hhOyA8ZyBpZD0iZmlndXJlXzEiPiYjeGE7ICA8ZyBpZD0icGF0Y2hfMSI+JiN4YTsgICA8cGF0aCBzdHlsZT0iZmlsbDogI2ZmZmZmZiIgZD0iTSAwIDI0MC42NTUwNjkgJiMxMDtMIDI5OS41Njc5MzggMjQwLjY1NTA2OSAmIzEwO0wgMjk5LjU2NzkzOCAwICYjMTA7TCAwIDAgJiMxMDt6Ii8+JiN4YTsgIDwvZz4mI3hhOyAgPGcgaWQ9ImF4ZXNfMSI+JiN4YTsgICA8ZyBpZD0icGF0Y2hfMiI+JiN4YTsgICAgPHBhdGggc3R5bGU9ImZpbGw6ICNmZmZmZmYiIGQ9Ik0gNDAuNjAzMTI1IDIwMy4wOTg4MTkgJiMxMDtMIDIzNC42NDMxMjUgMjAzLjA5ODgxOSAmIzEwO0wgMjM0LjY0MzEyNSA5LjA1ODgxOSAmIzEwO0wgNDAuNjAzMTI1IDkuMDU4ODE5ICYjMTA7eiIvPiYjeGE7ICAgPC9nPiYjeGE7ICAgPGcgY2xpcC1wYXRoPSJ1cmwoI3BkOTVkN2E5ZTY0KSI+JiN4YTsgICAgPGltYWdlIGhlaWdodD0iMTk0LjE2IiB3aWR0aD0iMTk0LjE2IiB5PSItOC45Mzg4MTkiIHg9IjQwLjYwMzEyNSIgdHJhbnNmb3JtPSJzY2FsZSgxIC0xKSB0cmFuc2xhdGUoMCAtMTk0LjE2KSIgaWQ9ImltYWdlZDA2Mzc1ZDE0OSIgeGxpbms6aHJlZj0iZGF0YTppbWFnZS9wbmc7YmFzZTY0LCYjMTA7aVZCT1J3MEtHZ29BQUFBTlNVaEVVZ0FBQXlrQUFBTXBDQVlBQUFBQWFueHFBQUFxMFVsRVFWUjRuTzNaUzVMc3VwSWRVQWZCSEx1R29mRm9SbnAxSStCcVpKbFUxWDJiWnZSenRGYmY4U2ZJSGJIK3gvLzhYMTJCYjFSZGRVNVlIL1pmVmZWSnh4RFdwLzEvdm1uLytTTCs4OG5hU01md0NRL2l2LzdKRnZFL3drMzRKOTNFcXZyWFAvOUU5ZitSMW4vK0k2ci81NTkvWmZWaC83OWpTT2Z3djZQNjd5ZGJnMis0QnVlYjFYL0QrVmRWblhRT0w2L0JDZGVndy82cnFqcGNnLzVrZDBFNmg3ais1ZkZYVmRYNWhHUEk1bERmc1ArVHJtSCtUdXR3RGMvSnhuRGlOY3o2NzAvYWYxWmZWWFhTY3hDTzRZcXFBUUFBSGlha0FBQUFvd2dwQUFEQUtFSUtBQUF3aXBBQ0FBQ01JcVFBQUFDakNDa0FBTUFvUWdvQUFEQ0trQUlBQUl3aXBBQUFBS01JS1FBQXdDaENDZ0FBTUlxUUFnQUFqQ0trQUFBQW93Z3BBQURBS1BkYVdRTnB5dW13LzdEOGtUYlNOWXozNE9YNnFxb2ROdkx0clArMXNnYXVjQlAybFQwSjMzV2krcXFxSzl5RHVENWN3N1d5TlV6cmY5dEkxM0JIOWVmdE5VajNNSnovRTJPSTUvRHlHdlQzZ2Q4T1h6NEhjWDM2WlJIZXg2dnpjOXdudk5OWE9JYnduYkxTL3Evd3BWNFZmeUJlNlhPUTN1Y2Ryc0VPNzVMT3Z5dnlkMHBXNzU4VUFBQmdGQ0VGQUFBWVJVZ0JBQUJHRVZJQUFJQlJoQlFBQUdBVUlRVUFBQmhGU0FFQUFFWVJVZ0FBZ0ZHRUZBQUFZQlFoQlFBQUdFVklBUUFBUmhGU0FBQ0FVWVFVQUFCZ0ZDRUZBQUFZUlVnQkFBQkd1ZGZLR2xnZDFyL2NmMVhWRlk0aEhVS2FGRSs2aHVrbVZOVUtOeUpkZzNRT1YzZ0lyaE9WMTBvUFlWVmQ0UnFrYTdoV3RvdDUvUlBuK04weFhOZU82cy9MZTFocGZWV3RjQTNTT2ZUTGE1RE92NnFxT211ajB6R2NzUDc2WnZVZHYxSEMrcXE2d25QUTJSZzY3TC9DL3VPUHU2cXFGWjZqbHo5UVY3Z0gzZG1IeGRvUDNDVXY4MDhLQUFBd2lwQUNBQUNNSXFRQUFBQ2pDQ2tBQU1Bb1Fnb0FBRENLa0FJQUFJd2lwQUFBQUtNSUtRQUF3Q2hDQ2dBQU1JcVFBZ0FBakNLa0FBQUFvd2dwQUFEQUtFSUtBQUF3aXBBQ0FBQ01JcVFBQUFDakNDa0FBTUFvOTE1aEMySE02UlBXcCtPdnFpdWN3L2xtOVN1Y1ExeWZsVDh5aHV2S0dyaTZvL29kOXY4SkYrQktGN0NxOXJYRCt1eGhqT3QzTnY1enN2cXFmQi9YQ2krVHNINkZaMkNGYTdnZU9NZnBHcjYrQm1ILy9jQWFwaGR5dkk4dlB3ZTF3ajBJOS9DM2tmRGpKcHhEVmZwaGt0NEYyVHU1cXFxdXRJMXNEdWwzeFFuWElMMUxIbkhDUFFqUGtYOVNBQUNBVVlRVUFBQmdGQ0VGQUFBWVJVZ0JBQUJHRVZJQUFJQlJoQlFBQUdBVUlRVUFBQmhGU0FFQUFFWVJVZ0FBZ0ZHRUZBQUFZQlFoQlFBQUdFVklBUUFBUmhGU0FBQ0FVWVFVQUFCZ0ZDRUZBQUFZNVY0cmEyQjFWbitGL1ord3Z1clBuOE1PNi91QnFIcGVYc01kSHVSdmVBaXVzUDk5NVp2d1hTZXF2OEpOaU92RE5Wd3JYOE85NzZqK25HOVVmMTA3Nno5Y2czUU5WemorSjlxSXh4Q2Z3N0QrZ1RXc2s3WFI2Uml1N0Rtb0R2c1BuOE42NGh5SFkraVh6MUZYK0ZKLzRzTmloWGRCL0hFWDNvY2RmbGVFUzNqQy9xdXFhajl3SHdYOGt3SUFBSXdpcEFBQUFLTUlLUUFBd0NoQ0NnQUFNSXFRQWdBQWpDS2tBQUFBb3dncEFBREFLRUlLQUFBd2lwQUNBQUNNSXFRQUFBQ2pDQ2tBQU1Bb1Fnb0FBRENLa0FJQUFJd2lwQUFBQUtNSUtRQUF3Q2ozV2xrRFYxamZXWG50c1ArcXFrN1hJSXg2VjdnSTZmalRNMUJWZFlXTnJKVXRRanFISFI3a0hSN0U3NG5LcTZwcXBYTzRkbGlmVFNMdlA2dXZxdnFHYmF5VlhRWXJQTWhYT1A0VDFsOG4zNE1Ucm1GNkdheHdEYnJETS9UQU9lNzBISWR6cUhRT0o3d1EwLzc3bTlWWHZnZlY0UnAwK0dFUnZwTnI1UysxRmJiUjZZZkJTcC9sY0EzREpWenB4K2tBZi80TUFBQ0F2NHFRQWdBQWpDS2tBQUFBb3dncEFBREFLRUlLQUFBd2lwQUNBQUNNSXFRQUFBQ2pDQ2tBQU1Bb1Fnb0FBRENLa0FJQUFJd2lwQUFBQUtNSUtRQUF3Q2hDQ2dBQU1JcVFBZ0FBakNLa0FBQUFvOXpYQ2xzSVk4NzVadlVySFg5VjdYQU9IYzRoM1lNVDFqK3hodWtjNGozb2JBRGZ6dnJmNFFMc0svKzk0TDZ5U1h6WGllcFhlSkRXeXRaZ1BiQ0dWemlIdlhkVWY4NmQxVi9aWlhSZDRmakRQWHhpREgxbGE3akNOVnduRzMrRjg2K3FXbWtiNFJ3NjdUL2NnK3AzNTE5VlZlRjl2TUtQb3c3dnd4ViszSFUvOEJ0NDJNWUs3NEtxVDFqL3dEa0tySmY3ZjRKL1VnQUFnRkdFRkFBQVlCUWhCUUFBR0VWSUFRQUFSaEZTQUFDQVVZUVVBQUJnRkNFRkFBQVlSVWdCQUFCR0VWSUFBSUJSaEJRQUFHQVVJUVVBQUJoRlNBRUFBRVlSVWdBQWdGR0VGQUFBWUJRaEJRQUFHT1ZlSzJ0Z2RWYS8wNWgwd3ZxcTZuQU9WemlIc1B1NjBqMEl6MEJWVllkcmNIVTJpQlVleEhRTnZ1R0R0Qi9ZaEgzU01XU2JlSitzL2h2Vzc3T2orcXFxNzNWSDlkZjFEZXV6T2FUMUp6ekhhZjlWVmQxWkd5c2N3OXYxNmZ3ZkdVTzZCdWtjMG5OMHdnK0RCODV4K21FUjcwSDRaZEhoK0ZmNllWTDV0MUY5UDFuOUN2Y2cvVUJPdjZ1eThxcDY1Qk03NHA4VUFBQmdGQ0VGQUFBWVJVZ0JBQUJHRVZJQUFJQlJoQlFBQUdBVUlRVUFBQmhGU0FFQUFFWVJVZ0FBZ0ZHRUZBQUFZQlFoQlFBQUdFVklBUUFBUmhGU0FBQ0FVWVFVQUFCZ0ZDRUZBQUFZUlVnQkFBQkd1ZmNLVzBoanpzbktPeDEvVlhVNGgzNTVEanNkZjFiK080YXdrZlB5R256REFhVDluM1FCcW1xdHJJMzd5aWJ4dlhaVXY2L3NRVXJycTZyMnp1WndUbGdmOXYvOVpudTRyanVzLzBiMVZWVXJYTU1yUElmOThocWs4NitxcW5BTlZsaGY0Unc2N1Q4OWg1MmRnZDgyMGcrRGNBMDZmQ2xmWVgzYWYxWFZlbmNPSy93NjZncnZrdk9KNnAvNEd5SnRvaXY3THZGUENnQUFNSXFRQWdBQWpDS2tBQUFBb3dncEFBREFLRUlLQUFBd2lwQUNBQUNNSXFRQUFBQ2pDQ2tBQU1Bb1Fnb0FBRENLa0FJQUFJd2lwQUFBQUtNSUtRQUF3Q2hDQ2dBQU1JcVFBZ0FBakNLa0FBQUFvd2dwQUFEQUtQZGFXUU5weXVtMC93ZGkxdm1HWXdqbmNNTDZkQS9EOGtmR2tPN2pGUjZrZlhWVTMxbDVmZE5EVkZYM3poYXh3MG5zc1AvN1pQWGZzTDZxYXArZGplRzZvL3JyeWk2ajY4ckduOVozV1A5RUc5MVovUXI3Zjd1KzZ2MDFTUGR3aGVPdmRBM1RDNzJxS3AxRE9JYnVFOVd2RHQ4bkQzeWNyZkFMczhNNTFFcWZvNno3RHVlL3NpUHc2K1cvTXZ5VEFnQUFqQ0trQUFBQW93Z3BBQURBS0VJS0FBQXdpcEFDQUFDTUlxUUFBQUNqQ0NrQUFNQW9RZ29BQURDS2tBSUFBSXdpcEFBQUFLTUlLUUFBd0NoQ0NnQUFNSXFRQWdBQWpDS2tBQUFBb3dncEFBREFLUGVWeHBRVDFyL2RmMVh0bDhld1YxYmZZWDA4LzZycXNINkhEWnlYMTZERFRVam5YMVYxcm13TW41WFZwNWZKOTlwUi9iN3l5eUJ0WSs5c0R1ZGs5VmU0aG1uOXVlNm92cXBxWGQrcy91VTE3SEFOMHZsWDVXdFE0UnFzc0w3UzhlK2ZxTHo3aVFzNVhjTndEUDN1R3F6NHErQ0JNWVRIS0o1QitFcGE2WGZKQXgvSTYzeXlCc0x2RXYra0FBQUFvd2dwQUFEQUtFSUtBQUF3aXBBQ0FBQ01JcVFBQUFDakNDa0FBTUFvUWdvQUFEQ0trQUlBQUl3aXBBQUFBS01JS1FBQXdDaENDZ0FBTUlxUUFnQUFqQ0trQUFBQW93Z3BBQURBS0VJS0FBQXd5cjFYMkVJYWMwNVlubzYvcXE2d2pVN3J3elhjV1hsMWh3MVVWWHFPMGpXNHdqbGM0U2F1bFEwZ2ZnNnI2aHNlNUh0bm05RGhRZHBoLy9mSmYzUDVobTNza3oyTjMrdU82dS83SjZvLzV4dlZYMWQ2RzFWMTJFWmMzMW45Q3Z0UDY1OW80KzAxcUoyZDQvUXVlbUlQYW1mUGNsZjRVdXZzNDJwVk92NWMrbHJzN0RxckZYNVl4R3NRZmgrdkIvNkc2UEFjckhBVC9KTUNBQUNNSXFRQUFBQ2pDQ2tBQU1Bb1Fnb0FBRENLa0FJQUFJd2lwQUFBQUtNSUtRQUF3Q2hDQ2dBQU1JcVFBZ0FBakNLa0FBQUFvd2dwQUFEQUtFSUtBQUF3aXBBQ0FBQ01JcVFBQUFDakNDa0FBTUFvOTFwWkF6c2NRS2Y5aC9WVkZVZTFUdnMvWWYvaEdsd1BSTlYwRGE2d2dmUWNkTGdHSnh4L3A1dFlWVHNjdzdteU1aendJTjNoSWZoZTZXMVV0YS9zWVl6cmR6YUhjN0w2Ky82SjZydmoyN0M2c3pVODV4dlZyM0FOci9BYzluVkg5VlZWVjNvWmhQdDR3djdUYzdUaXV5RGZnd3JQY2JvSHFmaFpUbC9xdjRPSXlsZDRETklacEcvMWVBVWYrSzVZbGQybjZSajhrd0lBQUl3aXBBQUFBS01JS1FBQXdDaENDZ0FBTUlxUUFnQUFqQ0trQUFBQW93Z3BBQURBS0VJS0FBQXdpcEFDQUFDTUlxUUFBQUNqQ0NrQUFNQW9RZ29BQURDS2tBSUFBSXdpcEFBQUFLTUlLUUFBd0NqM3RiSUdUamlBSGZiL1NNd0tKOUV2eitIcXJEN2VnOHJYWUlkcmNNSTFTSS9SZGJJRnVOSk5yS3FkbnVQd0lKendFT3h3RFhkNmlLcnFQbGtiMzdCK241MzFmOTFSL1hWOXcvcHMvRSswc2ZkUFZOOGRQb3VkUFlpZFBzaFZkY0l4ckhBUFZuaU9yNTJkNDNUKzZSNVdWZFhMNTNDbDV6amNneWZFYjhYc09xc1ZYbWZwK05mSzNvbjkvWVFqcVB6aktIeVUvSk1DQUFDTUlxUUFBQUNqQ0NrQUFNQW9RZ29BQURDS2tBSUFBSXdpcEFBQUFLTUlLUUFBd0NoQ0NnQUFNSXFRQWdBQWpDS2tBQUFBb3dncEFBREFLRUlLQUFBd2lwQUNBQUNNSXFRQUFBQ2pDQ2tBQU1Bb1Fnb0FBRERLdmRPWWNzTDZ0L3QvWUF3NzdUK2NRN3FIblpYL2ppR3M3M0FRMThycWQxamY0UUowaFFPb3FwT2VnM0FQZHJnSis4b21jRi81U2Y1ZTJVYnVLM3VZNC9xZGpmK2NzRDdzLzNjTWQxWi9mYVA2S3p3RGZXWGpYNTJOdjZwcWhYTllPNTFEZG80N2ZDbW04Ni85azlWWFZZY1hhcm9INlcyWXY1SGVGNzhSd2tkeHBkOEZML2RmVmRVbi9FQmQyVW55VHdvQUFEQ0trQUlBQUl3aXBBQUFBS01JS1FBQXdDaENDZ0FBTUlxUUFnQUFqQ0trQUFBQW93Z3BBQURBS0VJS0FBQXdpcEFDQUFDTUlxUUFBQUNqQ0NrQUFNQW9RZ29BQURDS2tBSUFBSXdpcEFBQUFLUGMxOXN4NVlUMVQ0dy9IRU92c1A5d0R0MVovVTdIWC9rYXBPZHdoMnNRbHNmOW55ZjJZSWRqQ0RkeHAvWGhRZHdQTE9MUG5TM2lDUi9HanV1enk2eFBWcC9PdjZycWhHT0kxK0R0UFFqcnF5cStrTkkxV05jM3FyLzZKNm8vNllYOGdQWEVQcjRvUG9mcEM2bXExdlh1UHNhOWgrK2s5STNXRDd3VDE4c2Z5RzlIRkFBQWdQOUdTQUVBQUVZUlVnQUFnRkdFRkFBQVlCUWhCUUFBR0VWSUFRQUFSaEZTQUFDQVVZUVVBQUJnRkNFRkFBQVlSVWdCQUFCR0VWSUFBSUJSaEJRQUFHQVVJUVVBQUJoRlNBRUFBRVlSVWdBQWdGSHV2Y0lXM280NTU0RTJ3am5FU3hETzRRb0gwRm41N3hqQ1J0SnoyT2thaE9OUCswL1g3N2VOYkJGM09JaHpzdjd2blMxaXVvZFZWU2RzNHc0ZnhtKzRCdnZzUDdxK3F1cnNPNnMvMzZqK3VySTU5TXYxdjQxa2E5ZzdmQ2wxVm4vQ2gzbUY4MC9IWDFXMTlrODRodlJDQytlUWp2OEI2UXFrbjdlcEo3NnRFdXVCRmVnVm5xUHd1K0R0aUFFQUFQRGZDQ2tBQU1Bb1Fnb0FBRENLa0FJQUFJd2lwQUFBQUtNSUtRQUF3Q2hDQ2dBQU1JcVFBZ0FBakNLa0FBQUFvd2dwQUFEQUtFSUtBQUF3aXBBQ0FBQ01JcVFBQUFDakNDa0FBTUFvUWdvQUFEREtmVjByYStGMFZqOGhKcDJzZklkTG1LN0JEcmVnMC9GWDFRN25FRTZoZGxqZjRRRFN4K0IrNERsNGV3NGRQZ2poWTFnbnZjdXFhb2R0N1BCQjJDYzd5WGQ0R1p6d0VKejBFRlpWZDNZUzh2cHNEbS8zLzBRYnE3OVovZjRKKzgvV01LMnZ6c1pmbFgvYW5IUU94TjhWYXozd2NaUU5JQ3J2QjhhL1RuZ093ekZNaUFnQUFBRC9sNUFDQUFDTUlxUUFBQUNqQ0NrQUFNQW9RZ29BQURDS2tBSUFBSXdpcEFBQUFLTUlLUUFBd0NoQ0NnQUFNSXFRQWdBQWpDS2tBQUFBb3dncEFBREFLRUlLQUFBd2lwQUNBQUNNSXFRQUFBQ2ozRHVPS1NzclA1M1ZENGhaNFF5cVR0aC91QVk3Sy84ZFE3Z0lPenhHSGRaZjZScUc4NC9QVUZWZFlTTjN1SWduUEFRN2ZRN1NRMVJWSjN5WU9seUQwOW5UMkowdDR2ZGs4OThudjAyKzF4M1ZYOWMzck0vbWtOYjMvb25xcS9KemtOYm5MNFJ3RGRMbk1Pdjlkd2hoSyt1QmMwQW92QTlUZmJKMzJucmdBN2xYZHA5V09JY0JuL2dBQUFEL2o1QUNBQUNNSXFRQUFBQ2pDQ2tBQU1Bb1Fnb0FBRENLa0FJQUFJd2lwQUFBQUtNSUtRQUF3Q2hDQ2dBQU1JcVFBZ0FBakNLa0FBQUFvd2dwQUFEQUtFSUtBQUF3aXBBQ0FBQ01JcVFBQUFDajNOY0tXNGhqVGppQTAra0E0am5jWWZlZnNINkhTOURwR2FpcWU0ZGpDUHUvd2daMnVBWWRucUYrNEJpL1BZWWRIcVJPejlBRGE3akRDM0ZmMlNiYzRVSHVuZDFHSjF6RWZtQVR1cy9MOWVrYXZOdC9WVlh0bjNmSEVLNUJLaDMvSTcvZWhtTjRkd1dwcXVyMWplcmpUNnNWbnNSdy9GVlZkY0packt6ZVB5a0FBTUFvUWdvQUFEQ0trQUlBQUl3aXBBQUFBS01JS1FBQXdDaENDZ0FBTUlxUUFnQUFqQ0trQUFBQW93Z3BBQURBS0VJS0FBQXdpcEFDQUFDTUlxUUFBQUNqQ0NrQUFNQW9RZ29BQURDS2tBSUFBSXdpcEFBQUFLUGMrMXBSQTFkM1ZKLzFYdldKVzZpcWs4MGhqWG83N0w1MldQK0F6OG5xOTh0eCtlMHRDQitqcXNxUDhSM3VRVHFIdFA0YjNtVlZWWGY0TUtkek9HRURhZjArMlVuZVYzZ1JWTlcrc2pIYzkwOVUzNTNOSWEvUEw0TjBESHZmNFFEQ05RaHY1Q3NjL3duSFgxVzF3akdrcjhSOEJ0VEszaW5wazd4TzJuLytUbHpwR29SejhFOEtBQUF3aXBBQ0FBQ01JcVFBQUFDakNDa0FBTUFvUWdvQUFEQ0trQUlBQUl3aXBBQUFBS01JS1FBQXdDaENDZ0FBTUlxUUFnQUFqQ0trQUFBQW93Z3BBQURBS0VJS0FBQXdpcEFDQUFDTUlxUUFBQUNqM1BmT0d2aWVGUTZody9yY3A4STVuR3dPblViRms1WEgvVmVlZG5kNEREcmN3anVjUUlmanZ4N1lnM2dOdy82dnNJRTczTVNUTGtEbCsvaTlzam44aEFleHd3bWN6bDRJM2VGbFZGV243N0ErVzRQdmxmVy93M040VHI2RzZUNms1K2dLMXlEdFAvVkUveSsvMWwvdi8rL3c4dS80Sy95d1NldXJxazY0Qml1cjkwOEtBQUF3aXBBQ0FBQ01JcVFBQUFDakNDa0FBTUFvUWdvQUFEQ0trQUlBQUl3aXBBQUFBS01JS1FBQXdDaENDZ0FBTUlxUUFnQUFqQ0trQUFBQW93Z3BBQURBS0VJS0FBQXdpcEFDQUFDTUlxUUFBQUNqM1B0YVlSTWQxci9kZis0VHp1RU81L0NKcXF1dUI1WndoOXZZWVZ6ZVdYbDF1QVozT1A2MC82cDhEZE14dk4zLzd2UXVxZXJ3SU1WckdNNWhYOWttM09GbDBQdU82cXVxVHJpSUhkZWZkK3Z2bjZqK2R3enZya0hxOWY1MzNuL2FRdm9MOHAvZS93Z3JmNmRrL1llN2tOWlhWYTl2Tm9TVHJhRi9VZ0FBZ0ZHRUZBQUFZQlFoQlFBQUdFVklBUUFBUmhGU0FBQ0FVWVFVQUFCZ0ZDRUZBQUFZUlVnQkFBQkdFVklBQUlCUmhCUUFBR0FVSVFVQUFCaEZTQUVBQUVZUlVnQUFnRkdFRkFBQVlCUWhCUUFBR09YZTEzcDVDQjNXUHpIK2JBenBETkk1N0E1SHNMUHl2OEVKbHpBOUF6cy9SUEVZMG1PVXJ1RWQvbVNTanYrSk5yN2hmWHFIdnh2bGU1ZzFrTlpYVmUyVFhVaDMrRENkOENDbmE5QjlvdnFxcXI1L1hoOUROb0IzKzM5OS9sV1ZqaUQ5QmZydC9wOFlRMnk5L0R2K0NiOXYxd1BmeDJrYlliMS9VZ0FBZ0ZHRUZBQUFZQlFoQlFBQUdFVklBUUFBUmhGU0FBQ0FVWVFVQUFCZ0ZDRUZBQUFZUlVnQkFBQkdFVklBQUlCUmhCUUFBR0FVSVFVQUFCaEZTQUVBQUVZUlVnQUFnRkdFRkFBQVlCUWhCUUFBR09XK3J2WDJHRUw5UUJ2Wkd0eVBqQ0VSN3VFM0gzK0hjVGNkd1E0YlNNZWY2Z2VPVU5yRUNSdTR3LzdUOFY4UHJPSGQyYk4wd29PWW5vUGU0ZmpEQjZFZk9NaW5kemlHRTlabkp6bnUvMlQxVDhqWE1Id080dWNvSFAvK2llb25TRTlSK2twODRoUy9QWWExc3Z1MDAvcnZKNnF2ODhTSFRkakdsZDNuL2trQkFBQkdFVklBQUlCUmhCUUFBR0FVSVFVQUFCaEZTQUVBQUVZUlVnQUFnRkdFRkFBQVlCUWhCUUFBR0VWSUFRQUFSaEZTQUFDQVVZUVVBQUJnRkNFRkFBQVlSVWdCQUFCR0VWSUFBSUJSaEJRQUFHQVVJUVVBQUJqbDN0ZDZkUURyM2U3L1U0ZjEyU1N1RHZzUG8yYmEvUU5EcUIyT29jTUIvT25qcjhyM01SMUQydjg5NEJ6SGMranNMdWlkOVorT1AzMGYvTnpoQktycXBPYzRiT0NFaTNqMy9Xci9UN1N4d3d2dG5CUFZwN3JmN2Y5dmtLN2dFNytBeDJNSVB6QzdQdGtBMXN2L0F6enhnWjIyRWQ1Ri9ra0JBQUJHRVZJQUFJQlJoQlFBQUdBVUlRVUFBQmhGU0FFQUFFWVJVZ0FBZ0ZHRUZBQUFZQlFoQlFBQUdFVklBUUFBUmhGU0FBQ0FVWVFVQUFCZ0ZDRUZBQUFZUlVnQkFBQkdFVklBQUlCUmhCUUFBR0NVZSs4Vk5YQ3RyUDU3VGxRL1E0ZjEyUnArdmxuLys4cjYvNVd1d2JzNkhINkhjWDluNWI5akNPZHd3dm83WElOMC9Hbi9UNHpoN1QzbzhENC80ZTlXM2ZsOS9yUFRNV1JQMHdrMzhZU2IrSFBuZCtrVCs2Qi9Fay9zUUhxbDk4cGFpT2R3d20rcjhQdDZuVy9XZjFWMTJFWmE3NThVQUFCZ0ZDRUZBQUFZUlVnQkFBQkdFVklBQUlCUmhCUUFBR0FVSVFVQUFCaEZTQUVBQUVZUlVnQUFnRkdFRkFBQVlCUWhCUUFBR0VWSUFRQUFSaEZTQUFDQVVZUVVBQUJnRkNFRkFBQVlSVWdCQUFCR3VYOTJsbE8rcThNaHBEbnBoUFVUWkd2WXZWN3QvMWMyaHU1d0RjSmp0SjlZZ2tBNC9hcXF1c0kxdU1QKzB5bTgzWDlWMVJVMmNvZjE2Yk44d29OMGgvMzNUdStpcWhPTzRRNHZnOU03ckgvNU1xbXFjN0l4cEhQby9vbnFVK243aEJuaXI3dVYzUVhwMTJtSC9mY0o2NS80SHlLY3c5dDdBQUFBOENnaEJRQUFHRVZJQVFBQVJoRlNBQUNBVVlRVUFBQmdGQ0VGQUFBWVJVZ0JBQUJHRVZJQUFJQlJoQlFBQUdBVUlRVUFBQmhGU0FFQUFFWVJVZ0FBZ0ZHRUZBQUFZQlFoQlFBQUdFVklBUUFBUnJtdm5lYVU4OGhBL24xUDVLeTM1NURxc0g3bEkraHNETmVWaldHSC9YZDRqTklkdU5NR3FpcGNndXJ3R056cEdvYmpqNit5QjhZUXp5RXJyenZjeFBRNTd2UVFWZFVKTnpMZnc2eUIwOWt1ZHVmdm8rNzc5VEc4MlgvZlB3K05oRDlacit3K2lwK0NzUC9YNjZ1cXpydGo4RThLQUFBd2lwQUNBQUNNSXFRQUFBQ2pDQ2tBQU1Bb1Fnb0FBRENLa0FJQUFJd2lwQUFBQUtNSUtRQUF3Q2hDQ2dBQU1JcVFBZ0FBakNLa0FBQUFvd2dwQUFEQUtFSUtBQUF3aXBBQ0FBQ01JcVFBQUFDajNQdGFZUk5wempsaC9SUGVuVU4zMkgyb0h4akEyM09vU3M5eE5vRjAvdjNBendVN2J5S1Nyc0VkcnNFVFovQ0V4K2p0T1hSNENEcDhqcDdZZzU5NERiSTVuSk50NGsrNkIrZjF5N1JPMzYvMjMyZkNkd0YvdWw3di9nN2ZLN3hQdy9FL01mOTRET0Y5NnA4VUFBQmdGQ0VGQUFBWVJVZ0JBQUJHRVZJQUFJQlJoQlFBQUdBVUlRVUFBQmhGU0FFQUFFWVJVZ0FBZ0ZHRUZBQUFZQlFoQlFBQUdFVklBUUFBUmhGU0FBQ0FVWVFVQUFCZ0ZDRUZBQUFZUlVnQkFBQkd1ZStkNXBRVDFyL2QveFArN0RtY3p0dTQ0eGF5UWFSVDZMQ0JIZmIvaEhRT0hSN2o5QXlrZTdnZk9NZnhPUXJyMHptOGZRYjZnUWZoOUlycTcvQStUdGZ3aEEzODNQa2k1bU1JNytPdy83dC9vdm9KdXJQM2VscFBWWjkzZjRmdmxmVi93dnBLNjZ1cVZuWWZwL1grU1FFQUFFWVJVZ0FBZ0ZHRUZBQUFZQlFoQlFBQUdFVklBUUFBUmhGU0FBQ0FVWVFVQUFCZ0ZDRUZBQUFZUlVnQkFBQkdFVklBQUlCUmhCUUFBR0FVSVFVQUFCaEZTQUVBQUVZUlVnQUFnRkdFRkFBQVlCUWhCUUFBR09YZTE3czU1Vm9kMVgvWHlnZngrZVp0UkxJOU9IMmkrcCtvK3RjL1lmMlZIWU82T210Z1g5azU2ckQvZnVBeDNPRWFobE9vRGgvRmNBdHFQN0NHSjF5RGRBenhIbVRsbGQwa1ZkZko3K003UE1qeEd1NXNEdWVKaHpsMGVyL2JmL29ndmV5a2g2aXFkbm9oaHo2ZlY3c2Y0VHp4ZlJqb0N2c1B4OThQekQ5dG8xZDJINzUvbXdJQUFQd1hRZ29BQURDS2tBSUFBSXdpcEFBQUFLTUlLUUFBd0NoQ0NnQUFNSXFRQWdBQWpDS2tBQUFBb3dncEFBREFLRUlLQUFBd2lwQUNBQUNNSXFRQUFBQ2pDQ2tBQU1Bb1Fnb0FBRENLa0FJQUFJeHk3LzF1VGxtcnd4Wk9Qb2g3Wi9XZmJ6Nkd3T24xYXY5VlZUdmN4dTZzZ1E3WElPMy91ckwrZDloL1ZWV0hqL0xiVCtJZG42RndBRlYxcDJ1WXp1RlA3eis4U3F1cXVzSm5PUnhEdW9aMytFNTk0aHluOTlrSjYzLzZqdXBUNTRUanY5OGQvd1NmejlzanlLMzE3dmR0ci9EYjdJUjN5UVB6VDlzNFliMS9VZ0FBZ0ZHRUZBQUFZQlFoQlFBQUdFVklBUUFBUmhGU0FBQ0FVWVFVQUFCZ0ZDRUZBQUFZUlVnQkFBQkdFVklBQUlCUmhCUUFBR0FVSVFVQUFCaEZTQUVBQUVZUlVnQUFnRkdFRkFBQVlCUWhCUUFBR09YZU84c3BhNjJvL250T1ZQK01iQXduWE1PMC83ckQvai81SG5SMzJNTExhMWpaT2E3SzVoOHZYK1VydU1NeGREaUFkQTN1clB4M0RHRjl2SVpoLytrYW5uUVBIdmpaSzUxRFhMK3p1eUM5aWRMK3E2ck95VGJpWjhkRGlIUm5xOWo5eEcxQTR2dDkvemZ3czk0ZFE5eC9XTi9oUFZCVjFlbTNVWmdSM2o5RkFBQUEvNFdRQWdBQWpDS2tBQUFBb3dncEFBREFLRUlLQUFBd2lwQUNBQUNNSXFRQUFBQ2pDQ2tBQU1Bb1Fnb0FBRENLa0FJQUFJd2lwQUFBQUtNSUtRQUF3Q2hDQ2dBQU1JcVFBZ0FBakNLa0FBQUFvOXg3NzZpQnRjNURRL2x6bmU2d2hUUXJabnR3OWdyN3IrcE8yOGpXTU8yL3d6MU1qMERYRTNzUXppRThobGU0Qm5mWWYvd1lWdFYrZVF6cEZFNjZCMkgvRDJ4QmZvN0N1eUM5ejlQKzg3dTA2aWQ5bUVMeFhiVFRrd2dEck93NVhDdTh5OEw2cXFwTzJ6alpHdmduQlFBQUdFVklBUUFBUmhGU0FBQ0FVWVFVQUFCZ0ZDRUZBQUFZUlVnQkFBQkdFVklBQUlCUmhCUUFBR0FVSVFVQUFCaEZTQUVBQUVZUlVnQUFnRkdFRkFBQVlCUWhCUUFBR0VWSUFRQUFSaEZTQUFDQVVlNTl5U21wN2c1Yk9HRjl0b2M3SG45VjNlRTUrbVJya0U3aGhQVlhYSi92d2IxWFZKK2U0dzZQUUxvQzZSNVVWZTMwSEdWYlVPRVd4djMzeStPdmV1QWNoWHQ0aDRzUVAwZnBKanpnaEdPNDAwMTgyWG5nUGo3aEduVHZiQUIzVmo3Qld1K2VvN1QvdGJMbjZJVDFUNnpmU2RzSTYvL3Ntd1FBQVBqckNDa0FBTUFvUWdvQUFEQ0trQUlBQUl3aXBBQUFBS01JS1FBQXdDaENDZ0FBTUlxUUFnQUFqQ0trQUFBQW93Z3BBQURBS0VJS0FBQXdpcEFDQUFDTUlxUUFBQUNqQ0NrQUFNQW9RZ29BQURDS2tBSUFBSXh5Ny8xdVRsbHJ2ZHIvRS9ycWwwZHdvdXErbmpnRDc0N2hkTmIvRHJld08ydWdPMzhPMGpIc25ZM2hWTmgvdWdjUEhPTndDZXRPK3cvcjR6VU0rMC9YcjZycXBIc1Fub04wRGwzWmMvVEVHc2JuT1B3dWlOY3diT0NFNC8vcDlFa2U0Sk9Wbi9ReWVVQTRoYnJEYmZ4Ky8renYwK3lyNk5lMXNtY3AvY2IzVHdvQUFEQ0trQUlBQUl3aXBBQUFBS01JS1FBQXdDaENDZ0FBTUlxUUFnQUFqQ0trQUFBQW93Z3BBQURBS0VJS0FBQXdpcEFDQUFDTUlxUUFBQUNqQ0NrQUFNQW9RZ29BQURDS2tBSUFBSXdpcEFBQUFLUGNlKzlYQjdDNlgrMy9DZjJIejJIQzhIdWZxUDcweXZvUEY2RmY3diszamJBKzdQOWtXMWdkL21SeVBYQ09kN2FORlI2RDJ1RWF2SDRHSHRpRE82eFBoM0NuYTVqV1AvSkt6ZzVpK0NoWHB3OVN2ZnRkd3QvaHJQUWN2bXVGNDE4ci94L2luRzlVMytFYy9KTUNBQUNNSXFRQUFBQ2pDQ2tBQU1Bb1Fnb0FBRENLa0FJQUFJd2lwQUFBQUtNSUtRQUF3Q2hDQ2dBQU1JcVFBZ0FBakNLa0FBQUFvd2dwQUFEQUtFSUtBQUF3aXBBQ0FBQ01JcVFBQUFDakNDa0FBTUFvOTk0djU1VHZOeXJ2dGVJaDlKV3R3ZDRkaitGTjUzcGkvTmthZG1kak9EczdCOTFwZlZSZTU0RXRTTGZ4Q2lkeHgzdVE5ZDhQWEdYcE5weXdQcjFLVG5nZGhsc1k5MTlWRlQ2SzhSelNjN1N6OGpycEFsVFZGVjRHZDN3ZnZueWZodS8wSis3akV6N01wN09URkwvWDc2ejhiNUF1d1FxL1Q4L0p6dkgzbTc4VTF3cWZwZk9KNnYyVEFnQUFqQ0trQUFBQW93Z3BBQURBS0VJS0FBQXdpcEFDQUFDTUlxUUFBQUNqQ0NrQUFNQW9RZ29BQURDS2tBSUFBSXdpcEFBQUFLTUlLUUFBd0NoQ0NnQUFNSXFRQWdBQWpDS2tBQUFBb3dncEFBREFLUGZlKysweEVEcmRVZjNlZVZZOS9ZM3FyM0FNTzF5RHZyTCtUNStvZm1mRHI2cXFUdGVnMTZ2OWgxdnd5Qzh1NlQ2Y2JBbXIwelVJeDU4ZXcwZk9jVnFmN21GWXY5TXo4TUFydWV2ZFp6bTlTMUluN0QrdHI2cnE5R0crNHlGa1BsbDVQM0VaaEs2VjdlTS80UnBRdGNJOThFOEtBQUF3aXBBQ0FBQ01JcVFBQUFDakNDa0FBTUFvUWdvQUFEQ0trQUlBQUl3aXBBQUFBS01JS1FBQXdDaENDZ0FBTUlxUUFnQUFqQ0trQUFBQW93Z3BBQURBS0VJS0FBQXdpcEFDQUFDTUlxUUFBQUNqM05jS2M4cCtaaUQ4Kzg3cHQ0ZFEzZWtZVHRiL2xaM2ozbG4vcDFmV2Y3eCtWZjN5R05JcGpGakQ4RHE4d2lIc2RBMnpKYXh3QzJvLzhMTlhlcDJGVjBHOEIra3BUUHV2ZXVBY2hHdVkzMFZaLy9jVEIvRVAxK0ZsMVBFYTNtSDlBT0VVdnQvc09Wamg5L2szL2I1L1lnemZUMVR2U1FZQUFFWVJVZ0FBZ0ZHRUZBQUFZQlFoQlFBQUdFVklBUUFBUmhGU0FBQ0FVWVFVQUFCZ0ZDRUZBQUFZUlVnQkFBQkdFVklBQUlCUmhCUUFBR0FVSVFVQUFCaEZTQUVBQUVZUlVnQUFnRkdFRkFBQVlKUjc3ekNuZk1NUjdMRCtMM0M2by9wNER4L1FWemFIYzk1ZGd3NzM0T3dWOXAvVi83YVIxWWRiVU90azlkZktCbkJkK1JydTlCeUVRK2p3VVE0ZncvZzZUczlnVlZXNmplR2pHTzlCdWdacC8xWDVQcDd3UHJyQ2czaUYvZWZuK0lINytQVjNVbnFRN3JEK0U5WS9NUWJldGxaNGx6dzBEZ0FBZ0VjSUtRQUF3Q2hDQ2dBQU1JcVFBZ0FBakNLa0FBQUFvd2dwQUFEQUtFSUtBQUF3aXBBQ0FBQ01JcVFBQUFDakNDa0FBTUFvUWdvQUFEQ0trQUlBQUl3aXBBQUFBS01JS1FBQXdDaENDZ0FBTUlxUUFnQUFqSEx2dmQ4ZHdUY3I3NnZqSVhSbmJYUm5XVy92ZkE2SmRQNVZWWHRuYTNEQ01aek9EdEphSzZyZlYxYmZWLzU3d2VrVDFWOG4yNFB3Q0ZSNkRKOTRpazYyaEpWdVkzcWQ3ZXdZVm9mMUR4empTcS9EOUJ5a2I4VHdNWXJQUUZWK0RrNzZMRmQ0SDhidjVLaThPcnpQbnhqRGVlSmhldEhwbDc4dHE2cnFmbnNBZjd5MXdtKzc4NG5xLyt5bkFBQUErT3NJS1FBQXdDaENDZ0FBTUlxUUFnQUFqQ0trQUFBQW93Z3BBQURBS0VJS0FBQXdpcEFDQUFDTUlxUUFBQUNqQ0NrQUFNQW9RZ29BQURDS2tBSUFBSXdpcEFBQUFLTUlLUUFBd0NoQ0NnQUFNTXA5WFN0cW9Gdk9lVnVmanVyMzN2RVlUanlHN0J4MVovMkg1WEgvNndvSFVGWFh5ZXAzZUJlRVI2RFNKYmpTVGF5cTlEN2M2VGtNcjlONEQ3THllQStycXNJdHFCM1doNDlSUHY0SFhxbnBOcVQ3dU5QN05GeUQ3dlM3SnV1L3F1cUVjOWpwUVE2ZjV2UXVPZWtoR0tBNy96WjYwMXI1WmZJOTN3ZEc4dStUTUFBQWdGR0VGQUFBWUJRaEJRQUFHRVZJQVFBQVJoRlNBQUNBVVlRVUFBQmdGQ0VGQUFBWVJVZ0JBQUJHRVZJQUFJQlJoQlFBQUdBVUlRVUFBQmhGU0FFQUFFWVJVZ0FBZ0ZHRUZBQUFZQlFoQlFBQUdPVmVLOHNwZXo4MGtuL1Q2WTdiV0wyeSt2VnUvZDdaSGo2eGh1a1lPaHhEdklaWFZuL0MrZThIOXFDdjlCeWNxSDZIVXpnbmF5RGN3cXFxQ3JleDBtMWNZWDI2Qmp1c1B3L3NRWGlNSzMyU3JyQ0I5Slg0d0ZWUTZUYWs1NkREUGJ6Q2QvSVZibUxhZjlVVDUrQ0JoeWx3d3Y0N1BRUVQzR0g5NTVGUi9OdFcrRTZkNEM4NFJRQUF3TjlFU0FFQUFFWVJVZ0FBZ0ZHRUZBQUFZQlFoQlFBQUdFVklBUUFBUmhGU0FBQ0FVWVFVQUFCZ0ZDRUZBQUFZUlVnQkFBQkdFVklBQUlCUmhCUUFBR0FVSVFVQUFCaEZTQUVBQUVZUlVnQUFnRkh1dlhmVXdQZWJEU0RzL3EvUTNXRjlsalgzenZyL0hVUFdSanFHRTY5aFZuK2RsZFd2ckw2cWFsM3BITEwrcjNBS1Y5aEFPUDMvYkNOclpJWDd1RmQ0anNPZm5VNjRodGNEUDN1bDExRjRqR3VINTdqRCtnZXVndHJoUHFTUFVycUg2VG51eWhZeGZSLzh0aEhXcHhkcXFNTkQ5TVFhdnYwN2V2cGQ4Y1MzVldLdDlEWjhuMzlTQUFDQVVZUVVBQUJnRkNFRkFBQVlSVWdCQUFCR0VWSUFBSUJSaEJRQUFHQVVJUVVBQUJoRlNBRUFBRVlSVWdBQWdGR0VGQUFBWUJRaEJRQUFHRVZJQVFBQVJoRlNBQUNBVVlRVUFBQmdGQ0VGQUFBWTViNnVGVGF4bytydk4rdDlyYzRhcUtwclpXdlFLOHQ2ZTJkcm1Ecm54RzNzSzF1RGRBenBIc2JqdjdKemVIYitlOEh1YkF5ZHJrR0hlM2l5OGNkWDJRTnRwTnVZUG9yaFk1RFAvNEU5T09rY3dqMUkzeWpwSyttQnE2RENxeURleHc3bmtDN0JEdWVmanIrcXFqdjhyZ2pua0Q1SDhWMldQb2kvcldUVjRSN2NqOHpoUmVIM2RWV2xuL2l4UDN3SEFBQ0F2NDJRQWdBQWpDS2tBQUFBb3dncEFBREFLRUlLQUFBd2lwQUNBQUNNSXFRQUFBQ2pDQ2tBQU1Bb1Fnb0FBRENLa0FJQUFJd2lwQUFBQUtNSUtRQUF3Q2hDQ2dBQU1JcVFBZ0FBakNLa0FBQUFvOXhyWlRubHVrNVUzNzFlcmY5dEkxdUQweDNWcjNBT2EyWDExNVZuMVhRTjBqSHNuZldmanovY2c1T2Y0eXM4QitzSzF5QzdDbXFIYTNpeTRWZFYxUXJuc09yZGM3VERjNXdld3dlT2NhWFhVWGlNS3p3Q3RjTTFlT0NWVnVGVjhIcDkra1pLejJINlR2MXQ0K1c3SUtxdTZ2QXUyZW1EVUZVbmZCajJBOTgyLzkvN2h2WGhRYlNEQUFEQUtFSUtBQUF3aXBBQ0FBQ01JcVFBQUFDakNDa0FBTUFvUWdvQUFEQ0trQUlBQUl3aXBBQUFBS01JS1FBQXdDaENDZ0FBTUlxUUFnQUFqQ0trQUFBQW93Z3BBQURBS0VJS0FBQXdpcEFDQUFDTUlxUUFBQUNqM05lMW9nYk95WExPV3YxcS9STnRYQ3RidzE3Wkd2YVZqWC92ZkEzUE9ka1lybXdOMHY3VFBWeHhmVlQreUJqZVg0UDBPWXpLcTZwcWh6L2JkUGdvbmJRK1hJUHdNYXdIcnVQNGw3UDBIS1Jya083aEUzZkIyK2Q0aDNQb2NQenBHWHJnbFJqUDRmMDlDTDlySGxqRE96M0lsWDBYK0IwL3Q4S1hraDBBQUFCR0VWSUFBSUJSaEJRQUFHQVVJUVVBQUJoRlNBRUFBRVlSVWdBQWdGR0VGQUFBWUJRaEJRQUFHRVZJQVFBQVJoRlNBQUNBVVlRVUFBQmdGQ0VGQUFBWVJVZ0JBQUJHRVZJQUFJQlJoQlFBQUdDVWUxMHJhaUJOT2QxWi8ybjlyeDJPb2FQNkU5YXZjQTNXeXRmd3VyS1RrSzVCMnY5YUorcy9YTU43NTc4WGhFc1luK052dUFicE9YemdHTmRhNGJNWUR1S0srNC9LNC9yOXdCNmNsK2NRdmhMaitpZmVhR2tiYjUramVBK3o4dmdNVmoxd0YxenBkOFc3OTJuNFNuN0VDVGV5dy91NHcwVTg2ZmY1RTkvSFYvWjlYUFhOdWc5N0J3QUFlSlNRQWdBQWpDS2tBQUFBb3dncEFBREFLRUlLQUFBd2lwQUNBQUNNSXFRQUFBQ2pDQ2tBQU1Bb1Fnb0FBRENLa0FJQUFJd2lwQUFBQUtNSUtRQUF3Q2hDQ2dBQU1JcVFBZ0FBakNLa0FBQUFvL3dmK2NOaExmSG1IdGNBQUFBQVNVVk9SSzVDWUlJPSIvPiYjeGE7ICAgPC9nPiYjeGE7ICAgPGcgaWQ9Im1hdHBsb3RsaWIuYXhpc18xIj4mI3hhOyAgICA8ZyBpZD0ieHRpY2tfMSI+JiN4YTsgICAgIDxnIGlkPSJsaW5lMmRfMSI+JiN4YTsgICAgICA8ZGVmcz4mI3hhOyAgICAgICA8cGF0aCBzdHlsZT0ic3Ryb2tlOiAjMDAwMDAwOyBzdHJva2Utd2lkdGg6IDAuOCIgZD0iTSAwIDAgJiMxMDtMIDAgMy41IiBpZD0ibWFhYTUyMGNiY2QiLz4mI3hhOyAgICAgIDwvZGVmcz4mI3hhOyAgICAgIDxnPiYjeGE7ICAgICAgIDx1c2Ugc3R5bGU9InN0cm9rZTogIzAwMDAwMDsgc3Ryb2tlLXdpZHRoOiAwLjgiIHk9IjIwMy4wOTg4MTkiIHg9IjQyLjU0MzUyNSIgeGxpbms6aHJlZj0iI21hYWE1MjBjYmNkIi8+JiN4YTsgICAgICA8L2c+JiN4YTsgICAgIDwvZz4mI3hhOyAgICAgPGcgaWQ9InRleHRfMSI+JiN4YTsgICAgICAmI3hhOyAgICAgIDxnIHRyYW5zZm9ybT0idHJhbnNsYXRlKDM5LjM2MjI3NSAyMTcuNjk3MjU2KSBzY2FsZSgwLjEgLTAuMSkiPiYjeGE7ICAgICAgIDxkZWZzPiYjeGE7ICAgICAgICA8cGF0aCB0cmFuc2Zvcm09InNjYWxlKDAuMDE1NjI1KSIgZD0iTSAyMDM0IDQyNTAgJiMxMDtRIDE1NDcgNDI1MCAxMzAxIDM3NzAgJiMxMDtRIDEwNTYgMzI5MSAxMDU2IDIzMjggJiMxMDtRIDEwNTYgMTM2OSAxMzAxIDg4OSAmIzEwO1EgMTU0NyA0MDkgMjAzNCA0MDkgJiMxMDtRIDI1MjUgNDA5IDI3NzAgODg5ICYjMTA7USAzMDE2IDEzNjkgMzAxNiAyMzI4ICYjMTA7USAzMDE2IDMyOTEgMjc3MCAzNzcwICYjMTA7USAyNTI1IDQyNTAgMjAzNCA0MjUwICYjMTA7eiYjMTA7TSAyMDM0IDQ3NTAgJiMxMDtRIDI4MTkgNDc1MCAzMjMzIDQxMjkgJiMxMDtRIDM2NDcgMzUwOSAzNjQ3IDIzMjggJiMxMDtRIDM2NDcgMTE1MCAzMjMzIDUyOSAmIzEwO1EgMjgxOSAtOTEgMjAzNCAtOTEgJiMxMDtRIDEyNTAgLTkxIDgzNiA1MjkgJiMxMDtRIDQyMiAxMTUwIDQyMiAyMzI4ICYjMTA7USA0MjIgMzUwOSA4MzYgNDEyOSAmIzEwO1EgMTI1MCA0NzUwIDIwMzQgNDc1MCAmIzEwO3oiIGlkPSJEZWphVnVTYW5zLTMwIi8+JiN4YTsgICAgICAgPC9kZWZzPiYjeGE7ICAgICAgIDx1c2UgeGxpbms6aHJlZj0iI0RlamFWdVNhbnMtMzAiLz4mI3hhOyAgICAgIDwvZz4mI3hhOyAgICAgPC9nPiYjeGE7ICAgIDwvZz4mI3hhOyAgICA8ZyBpZD0ieHRpY2tfMiI+JiN4YTsgICAgIDxnIGlkPSJsaW5lMmRfMiI+JiN4YTsgICAgICA8Zz4mI3hhOyAgICAgICA8dXNlIHN0eWxlPSJzdHJva2U6ICMwMDAwMDA7IHN0cm9rZS13aWR0aDogMC44IiB5PSIyMDMuMDk4ODE5IiB4PSI4MS4zNTE1MjUiIHhsaW5rOmhyZWY9IiNtYWFhNTIwY2JjZCIvPiYjeGE7ICAgICAgPC9nPiYjeGE7ICAgICA8L2c+JiN4YTsgICAgIDxnIGlkPSJ0ZXh0XzIiPiYjeGE7ICAgICAgJiN4YTsgICAgICA8ZyB0cmFuc2Zvcm09InRyYW5zbGF0ZSg3NC45ODkwMjUgMjE3LjY5NzI1Nikgc2NhbGUoMC4xIC0wLjEpIj4mI3hhOyAgICAgICA8ZGVmcz4mI3hhOyAgICAgICAgPHBhdGggdHJhbnNmb3JtPSJzY2FsZSgwLjAxNTYyNSkiIGQ9Ik0gNzk0IDUzMSAmIzEwO0wgMTgyNSA1MzEgJiMxMDtMIDE4MjUgNDA5MSAmIzEwO0wgNzAzIDM4NjYgJiMxMDtMIDcwMyA0NDQxICYjMTA7TCAxODE5IDQ2NjYgJiMxMDtMIDI0NTAgNDY2NiAmIzEwO0wgMjQ1MCA1MzEgJiMxMDtMIDM0ODEgNTMxICYjMTA7TCAzNDgxIDAgJiMxMDtMIDc5NCAwICYjMTA7TCA3OTQgNTMxICYjMTA7eiIgaWQ9IkRlamFWdVNhbnMtMzEiLz4mI3hhOyAgICAgICA8L2RlZnM+JiN4YTsgICAgICAgPHVzZSB4bGluazpocmVmPSIjRGVqYVZ1U2Fucy0zMSIvPiYjeGE7ICAgICAgIDx1c2UgeD0iNjMuNjIzMDQ3IiB4bGluazpocmVmPSIjRGVqYVZ1U2Fucy0zMCIvPiYjeGE7ICAgICAgPC9nPiYjeGE7ICAgICA8L2c+JiN4YTsgICAgPC9nPiYjeGE7ICAgIDxnIGlkPSJ4dGlja18zIj4mI3hhOyAgICAgPGcgaWQ9ImxpbmUyZF8zIj4mI3hhOyAgICAgIDxnPiYjeGE7ICAgICAgIDx1c2Ugc3R5bGU9InN0cm9rZTogIzAwMDAwMDsgc3Ryb2tlLXdpZHRoOiAwLjgiIHk9IjIwMy4wOTg4MTkiIHg9IjEyMC4xNTk1MjUiIHhsaW5rOmhyZWY9IiNtYWFhNTIwY2JjZCIvPiYjeGE7ICAgICAgPC9nPiYjeGE7ICAgICA8L2c+JiN4YTsgICAgIDxnIGlkPSJ0ZXh0XzMiPiYjeGE7ICAgICAgJiN4YTsgICAgICA8ZyB0cmFuc2Zvcm09InRyYW5zbGF0ZSgxMTMuNzk3MDI1IDIxNy42OTcyNTYpIHNjYWxlKDAuMSAtMC4xKSI+JiN4YTsgICAgICAgPGRlZnM+JiN4YTsgICAgICAgIDxwYXRoIHRyYW5zZm9ybT0ic2NhbGUoMC4wMTU2MjUpIiBkPSJNIDEyMjggNTMxICYjMTA7TCAzNDMxIDUzMSAmIzEwO0wgMzQzMSAwICYjMTA7TCA0NjkgMCAmIzEwO0wgNDY5IDUzMSAmIzEwO1EgODI4IDkwMyAxNDQ4IDE1MjkgJiMxMDtRIDIwNjkgMjE1NiAyMjI4IDIzMzggJiMxMDtRIDI1MzEgMjY3OCAyNjUxIDI5MTQgJiMxMDtRIDI3NzIgMzE1MCAyNzcyIDMzNzggJiMxMDtRIDI3NzIgMzc1MCAyNTExIDM5ODQgJiMxMDtRIDIyNTAgNDIxOSAxODMxIDQyMTkgJiMxMDtRIDE1MzQgNDIxOSAxMjA0IDQxMTYgJiMxMDtRIDg3NSA0MDEzIDUwMCAzODAzICYjMTA7TCA1MDAgNDQ0MSAmIzEwO1EgODgxIDQ1OTQgMTIxMiA0NjcyICYjMTA7USAxNTQ0IDQ3NTAgMTgxOSA0NzUwICYjMTA7USAyNTQ0IDQ3NTAgMjk3NSA0Mzg3ICYjMTA7USAzNDA2IDQwMjUgMzQwNiAzNDE5ICYjMTA7USAzNDA2IDMxMzEgMzI5OCAyODczICYjMTA7USAzMTkxIDI2MTYgMjkwNiAyMjY2ICYjMTA7USAyODI4IDIxNzUgMjQwOSAxNzQyICYjMTA7USAxOTkxIDEzMDkgMTIyOCA1MzEgJiMxMDt6IiBpZD0iRGVqYVZ1U2Fucy0zMiIvPiYjeGE7ICAgICAgIDwvZGVmcz4mI3hhOyAgICAgICA8dXNlIHhsaW5rOmhyZWY9IiNEZWphVnVTYW5zLTMyIi8+JiN4YTsgICAgICAgPHVzZSB4PSI2My42MjMwNDciIHhsaW5rOmhyZWY9IiNEZWphVnVTYW5zLTMwIi8+JiN4YTsgICAgICA8L2c+JiN4YTsgICAgIDwvZz4mI3hhOyAgICA8L2c+JiN4YTsgICAgPGcgaWQ9Inh0aWNrXzQiPiYjeGE7ICAgICA8ZyBpZD0ibGluZTJkXzQiPiYjeGE7ICAgICAgPGc+JiN4YTsgICAgICAgPHVzZSBzdHlsZT0ic3Ryb2tlOiAjMDAwMDAwOyBzdHJva2Utd2lkdGg6IDAuOCIgeT0iMjAzLjA5ODgxOSIgeD0iMTU4Ljk2NzUyNSIgeGxpbms6aHJlZj0iI21hYWE1MjBjYmNkIi8+JiN4YTsgICAgICA8L2c+JiN4YTsgICAgIDwvZz4mI3hhOyAgICAgPGcgaWQ9InRleHRfNCI+JiN4YTsgICAgICAmI3hhOyAgICAgIDxnIHRyYW5zZm9ybT0idHJhbnNsYXRlKDE1Mi42MDUwMjUgMjE3LjY5NzI1Nikgc2NhbGUoMC4xIC0wLjEpIj4mI3hhOyAgICAgICA8ZGVmcz4mI3hhOyAgICAgICAgPHBhdGggdHJhbnNmb3JtPSJzY2FsZSgwLjAxNTYyNSkiIGQ9Ik0gMjU5NyAyNTE2ICYjMTA7USAzMDUwIDI0MTkgMzMwNCAyMTEyICYjMTA7USAzNTU5IDE4MDYgMzU1OSAxMzU2ICYjMTA7USAzNTU5IDY2NiAzMDg0IDI4NyAmIzEwO1EgMjYwOSAtOTEgMTczNCAtOTEgJiMxMDtRIDE0NDEgLTkxIDExMzAgLTMzICYjMTA7USA4MTkgMjUgNDg4IDE0MSAmIzEwO0wgNDg4IDc1MCAmIzEwO1EgNzUwIDU5NyAxMDYyIDUxOSAmIzEwO1EgMTM3NSA0NDEgMTcxNiA0NDEgJiMxMDtRIDIzMDkgNDQxIDI2MjAgNjc1ICYjMTA7USAyOTMxIDkwOSAyOTMxIDEzNTYgJiMxMDtRIDI5MzEgMTc2OSAyNjQyIDIwMDEgJiMxMDtRIDIzNTMgMjIzNCAxODM4IDIyMzQgJiMxMDtMIDEyOTQgMjIzNCAmIzEwO0wgMTI5NCAyNzUzICYjMTA7TCAxODYzIDI3NTMgJiMxMDtRIDIzMjggMjc1MyAyNTc1IDI5MzkgJiMxMDtRIDI4MjIgMzEyNSAyODIyIDM0NzUgJiMxMDtRIDI4MjIgMzgzNCAyNTY3IDQwMjYgJiMxMDtRIDIzMTMgNDIxOSAxODM4IDQyMTkgJiMxMDtRIDE1NzggNDIxOSAxMjgxIDQxNjIgJiMxMDtRIDk4NCA0MTA2IDYyOCAzOTg4ICYjMTA7TCA2MjggNDU1MCAmIzEwO1EgOTg4IDQ2NTAgMTMwMiA0NzAwICYjMTA7USAxNjE2IDQ3NTAgMTg5NCA0NzUwICYjMTA7USAyNjEzIDQ3NTAgMzAzMSA0NDIzICYjMTA7USAzNDUwIDQwOTcgMzQ1MCAzNTQxICYjMTA7USAzNDUwIDMxNTMgMzIyOCAyODg2ICYjMTA7USAzMDA2IDI2MTkgMjU5NyAyNTE2ICYjMTA7eiIgaWQ9IkRlamFWdVNhbnMtMzMiLz4mI3hhOyAgICAgICA8L2RlZnM+JiN4YTsgICAgICAgPHVzZSB4bGluazpocmVmPSIjRGVqYVZ1U2Fucy0zMyIvPiYjeGE7ICAgICAgIDx1c2UgeD0iNjMuNjIzMDQ3IiB4bGluazpocmVmPSIjRGVqYVZ1U2Fucy0zMCIvPiYjeGE7ICAgICAgPC9nPiYjeGE7ICAgICA8L2c+JiN4YTsgICAgPC9nPiYjeGE7ICAgIDxnIGlkPSJ4dGlja181Ij4mI3hhOyAgICAgPGcgaWQ9ImxpbmUyZF81Ij4mI3hhOyAgICAgIDxnPiYjeGE7ICAgICAgIDx1c2Ugc3R5bGU9InN0cm9rZTogIzAwMDAwMDsgc3Ryb2tlLXdpZHRoOiAwLjgiIHk9IjIwMy4wOTg4MTkiIHg9IjE5Ny43NzU1MjUiIHhsaW5rOmhyZWY9IiNtYWFhNTIwY2JjZCIvPiYjeGE7ICAgICAgPC9nPiYjeGE7ICAgICA8L2c+JiN4YTsgICAgIDxnIGlkPSJ0ZXh0XzUiPiYjeGE7ICAgICAgJiN4YTsgICAgICA8ZyB0cmFuc2Zvcm09InRyYW5zbGF0ZSgxOTEuNDEzMDI1IDIxNy42OTcyNTYpIHNjYWxlKDAuMSAtMC4xKSI+JiN4YTsgICAgICAgPGRlZnM+JiN4YTsgICAgICAgIDxwYXRoIHRyYW5zZm9ybT0ic2NhbGUoMC4wMTU2MjUpIiBkPSJNIDI0MTkgNDExNiAmIzEwO0wgODI1IDE2MjUgJiMxMDtMIDI0MTkgMTYyNSAmIzEwO0wgMjQxOSA0MTE2ICYjMTA7eiYjMTA7TSAyMjUzIDQ2NjYgJiMxMDtMIDMwNDcgNDY2NiAmIzEwO0wgMzA0NyAxNjI1ICYjMTA7TCAzNzEzIDE2MjUgJiMxMDtMIDM3MTMgMTEwMCAmIzEwO0wgMzA0NyAxMTAwICYjMTA7TCAzMDQ3IDAgJiMxMDtMIDI0MTkgMCAmIzEwO0wgMjQxOSAxMTAwICYjMTA7TCAzMTMgMTEwMCAmIzEwO0wgMzEzIDE3MDkgJiMxMDtMIDIyNTMgNDY2NiAmIzEwO3oiIGlkPSJEZWphVnVTYW5zLTM0Ii8+JiN4YTsgICAgICAgPC9kZWZzPiYjeGE7ICAgICAgIDx1c2UgeGxpbms6aHJlZj0iI0RlamFWdVNhbnMtMzQiLz4mI3hhOyAgICAgICA8dXNlIHg9IjYzLjYyMzA0NyIgeGxpbms6aHJlZj0iI0RlamFWdVNhbnMtMzAiLz4mI3hhOyAgICAgIDwvZz4mI3hhOyAgICAgPC9nPiYjeGE7ICAgIDwvZz4mI3hhOyAgICA8ZyBpZD0idGV4dF82Ij4mI3hhOyAgICAgJiN4YTsgICAgIDxnIHRyYW5zZm9ybT0idHJhbnNsYXRlKDExMS40NzU0NjkgMjMxLjM3NTM4MSkgc2NhbGUoMC4xIC0wLjEpIj4mI3hhOyAgICAgIDxkZWZzPiYjeGE7ICAgICAgIDxwYXRoIHRyYW5zZm9ybT0ic2NhbGUoMC4wMTU2MjUpIiBkPSJNIDIxMyA0NjY2ICYjMTA7TCA4NTAgNDY2NiAmIzEwO0wgMTgzMSA3MjIgJiMxMDtMIDI4MDkgNDY2NiAmIzEwO0wgMzUxOSA0NjY2ICYjMTA7TCA0NTAwIDcyMiAmIzEwO0wgNTQ3OCA0NjY2ICYjMTA7TCA2MTE5IDQ2NjYgJiMxMDtMIDQ5NDcgMCAmIzEwO0wgNDE1MyAwICYjMTA7TCAzMTY5IDQwNTAgJiMxMDtMIDIxNzUgMCAmIzEwO0wgMTM4MSAwICYjMTA7TCAyMTMgNDY2NiAmIzEwO3oiIGlkPSJEZWphVnVTYW5zLTU3Ii8+JiN4YTsgICAgICAgPHBhdGggdHJhbnNmb3JtPSJzY2FsZSgwLjAxNTYyNSkiIGQ9Ik0gNjAzIDM1MDAgJiMxMDtMIDExNzggMzUwMCAmIzEwO0wgMTE3OCAwICYjMTA7TCA2MDMgMCAmIzEwO0wgNjAzIDM1MDAgJiMxMDt6JiMxMDtNIDYwMyA0ODYzICYjMTA7TCAxMTc4IDQ4NjMgJiMxMDtMIDExNzggNDEzNCAmIzEwO0wgNjAzIDQxMzQgJiMxMDtMIDYwMyA0ODYzICYjMTA7eiIgaWQ9IkRlamFWdVNhbnMtNjkiLz4mI3hhOyAgICAgICA8cGF0aCB0cmFuc2Zvcm09InNjYWxlKDAuMDE1NjI1KSIgZD0iTSAyOTA2IDI5NjkgJiMxMDtMIDI5MDYgNDg2MyAmIzEwO0wgMzQ4MSA0ODYzICYjMTA7TCAzNDgxIDAgJiMxMDtMIDI5MDYgMCAmIzEwO0wgMjkwNiA1MjUgJiMxMDtRIDI3MjUgMjEzIDI0NDggNjEgJiMxMDtRIDIxNzIgLTkxIDE3ODQgLTkxICYjMTA7USAxMTUwIC05MSA3NTEgNDE1ICYjMTA7USAzNTMgOTIyIDM1MyAxNzQ3ICYjMTA7USAzNTMgMjU3MiA3NTEgMzA3OCAmIzEwO1EgMTE1MCAzNTg0IDE3ODQgMzU4NCAmIzEwO1EgMjE3MiAzNTg0IDI0NDggMzQzMiAmIzEwO1EgMjcyNSAzMjgxIDI5MDYgMjk2OSAmIzEwO3omIzEwO00gOTQ3IDE3NDcgJiMxMDtRIDk0NyAxMTEzIDEyMDggNzUyICYjMTA7USAxNDY5IDM5MSAxOTI1IDM5MSAmIzEwO1EgMjM4MSAzOTEgMjY0MyA3NTIgJiMxMDtRIDI5MDYgMTExMyAyOTA2IDE3NDcgJiMxMDtRIDI5MDYgMjM4MSAyNjQzIDI3NDIgJiMxMDtRIDIzODEgMzEwMyAxOTI1IDMxMDMgJiMxMDtRIDE0NjkgMzEwMyAxMjA4IDI3NDIgJiMxMDtRIDk0NyAyMzgxIDk0NyAxNzQ3ICYjMTA7eiIgaWQ9IkRlamFWdVNhbnMtNjQiLz4mI3hhOyAgICAgICA8cGF0aCB0cmFuc2Zvcm09InNjYWxlKDAuMDE1NjI1KSIgZD0iTSAxMTcyIDQ0OTQgJiMxMDtMIDExNzIgMzUwMCAmIzEwO0wgMjM1NiAzNTAwICYjMTA7TCAyMzU2IDMwNTMgJiMxMDtMIDExNzIgMzA1MyAmIzEwO0wgMTE3MiAxMTUzICYjMTA7USAxMTcyIDcyNSAxMjg5IDYwMyAmIzEwO1EgMTQwNiA0ODEgMTc2NiA0ODEgJiMxMDtMIDIzNTYgNDgxICYjMTA7TCAyMzU2IDAgJiMxMDtMIDE3NjYgMCAmIzEwO1EgMTEwMCAwIDg0NyAyNDggJiMxMDtRIDU5NCA0OTcgNTk0IDExNTMgJiMxMDtMIDU5NCAzMDUzICYjMTA7TCAxNzIgMzA1MyAmIzEwO0wgMTcyIDM1MDAgJiMxMDtMIDU5NCAzNTAwICYjMTA7TCA1OTQgNDQ5NCAmIzEwO0wgMTE3MiA0NDk0ICYjMTA7eiIgaWQ9IkRlamFWdVNhbnMtNzQiLz4mI3hhOyAgICAgICA8cGF0aCB0cmFuc2Zvcm09InNjYWxlKDAuMDE1NjI1KSIgZD0iTSAzNTEzIDIxMTMgJiMxMDtMIDM1MTMgMCAmIzEwO0wgMjkzOCAwICYjMTA7TCAyOTM4IDIwOTQgJiMxMDtRIDI5MzggMjU5MSAyNzQ0IDI4MzcgJiMxMDtRIDI1NTAgMzA4NCAyMTYzIDMwODQgJiMxMDtRIDE2OTcgMzA4NCAxNDI4IDI3ODcgJiMxMDtRIDExNTkgMjQ5MSAxMTU5IDE5NzggJiMxMDtMIDExNTkgMCAmIzEwO0wgNTgxIDAgJiMxMDtMIDU4MSA0ODYzICYjMTA7TCAxMTU5IDQ4NjMgJiMxMDtMIDExNTkgMjk1NiAmIzEwO1EgMTM2NiAzMjcyIDE2NDUgMzQyOCAmIzEwO1EgMTkyNSAzNTg0IDIyOTEgMzU4NCAmIzEwO1EgMjg5NCAzNTg0IDMyMDMgMzIxMSAmIzEwO1EgMzUxMyAyODM4IDM1MTMgMjExMyAmIzEwO3oiIGlkPSJEZWphVnVTYW5zLTY4Ii8+JiN4YTsgICAgICAgPHBhdGggdHJhbnNmb3JtPSJzY2FsZSgwLjAxNTYyNSkiIGlkPSJEZWphVnVTYW5zLTIwIi8+JiN4YTsgICAgICAgPHBhdGggdHJhbnNmb3JtPSJzY2FsZSgwLjAxNTYyNSkiIGQ9Ik0gNTUwIDQ4NjMgJiMxMDtMIDE4NzUgNDg2MyAmIzEwO0wgMTg3NSA0NDE2ICYjMTA7TCAxMTI1IDQ0MTYgJiMxMDtMIDExMjUgLTM5NyAmIzEwO0wgMTg3NSAtMzk3ICYjMTA7TCAxODc1IC04NDQgJiMxMDtMIDU1MCAtODQ0ICYjMTA7TCA1NTAgNDg2MyAmIzEwO3oiIGlkPSJEZWphVnVTYW5zLTViIi8+JiN4YTsgICAgICAgPHBhdGggdHJhbnNmb3JtPSJzY2FsZSgwLjAxNTYyNSkiIGQ9Ik0gMTE1OSA1MjUgJiMxMDtMIDExNTkgLTEzMzEgJiMxMDtMIDU4MSAtMTMzMSAmIzEwO0wgNTgxIDM1MDAgJiMxMDtMIDExNTkgMzUwMCAmIzEwO0wgMTE1OSAyOTY5ICYjMTA7USAxMzQxIDMyODEgMTYxNyAzNDMyICYjMTA7USAxODk0IDM1ODQgMjI3OCAzNTg0ICYjMTA7USAyOTE2IDM1ODQgMzMxNCAzMDc4ICYjMTA7USAzNzEzIDI1NzIgMzcxMyAxNzQ3ICYjMTA7USAzNzEzIDkyMiAzMzE0IDQxNSAmIzEwO1EgMjkxNiAtOTEgMjI3OCAtOTEgJiMxMDtRIDE4OTQgLTkxIDE2MTcgNjEgJiMxMDtRIDEzNDEgMjEzIDExNTkgNTI1ICYjMTA7eiYjMTA7TSAzMTE2IDE3NDcgJiMxMDtRIDMxMTYgMjM4MSAyODU1IDI3NDIgJiMxMDtRIDI1OTQgMzEwMyAyMTM4IDMxMDMgJiMxMDtRIDE2ODEgMzEwMyAxNDIwIDI3NDIgJiMxMDtRIDExNTkgMjM4MSAxMTU5IDE3NDcgJiMxMDtRIDExNTkgMTExMyAxNDIwIDc1MiAmIzEwO1EgMTY4MSAzOTEgMjEzOCAzOTEgJiMxMDtRIDI1OTQgMzkxIDI4NTUgNzUyICYjMTA7USAzMTE2IDExMTMgMzExNiAxNzQ3ICYjMTA7eiIgaWQ9IkRlamFWdVNhbnMtNzAiLz4mI3hhOyAgICAgICA8cGF0aCB0cmFuc2Zvcm09InNjYWxlKDAuMDE1NjI1KSIgZD0iTSAzNTEzIDM1MDAgJiMxMDtMIDIyNDcgMTc5NyAmIzEwO0wgMzU3OCAwICYjMTA7TCAyOTAwIDAgJiMxMDtMIDE4ODEgMTM3NSAmIzEwO0wgODYzIDAgJiMxMDtMIDE4NCAwICYjMTA7TCAxNTQ0IDE4MzEgJiMxMDtMIDMwMCAzNTAwICYjMTA7TCA5NzggMzUwMCAmIzEwO0wgMTkwNiAyMjUzICYjMTA7TCAyODM0IDM1MDAgJiMxMDtMIDM1MTMgMzUwMCAmIzEwO3oiIGlkPSJEZWphVnVTYW5zLTc4Ii8+JiN4YTsgICAgICAgPHBhdGggdHJhbnNmb3JtPSJzY2FsZSgwLjAxNTYyNSkiIGQ9Ik0gMTk0NyA0ODYzICYjMTA7TCAxOTQ3IC04NDQgJiMxMDtMIDYyMiAtODQ0ICYjMTA7TCA2MjIgLTM5NyAmIzEwO0wgMTM2OSAtMzk3ICYjMTA7TCAxMzY5IDQ0MTYgJiMxMDtMIDYyMiA0NDE2ICYjMTA7TCA2MjIgNDg2MyAmIzEwO0wgMTk0NyA0ODYzICYjMTA7eiIgaWQ9IkRlamFWdVNhbnMtNWQiLz4mI3hhOyAgICAgIDwvZGVmcz4mI3hhOyAgICAgIDx1c2UgeGxpbms6aHJlZj0iI0RlamFWdVNhbnMtNTciLz4mI3hhOyAgICAgIDx1c2UgeD0iOTYuNjI2OTUzIiB4bGluazpocmVmPSIjRGVqYVZ1U2Fucy02OSIvPiYjeGE7ICAgICAgPHVzZSB4PSIxMjQuNDEwMTU2IiB4bGluazpocmVmPSIjRGVqYVZ1U2Fucy02NCIvPiYjeGE7ICAgICAgPHVzZSB4PSIxODcuODg2NzE5IiB4bGluazpocmVmPSIjRGVqYVZ1U2Fucy03NCIvPiYjeGE7ICAgICAgPHVzZSB4PSIyMjcuMDk1NzAzIiB4bGluazpocmVmPSIjRGVqYVZ1U2Fucy02OCIvPiYjeGE7ICAgICAgPHVzZSB4PSIyOTAuNDc0NjA5IiB4bGluazpocmVmPSIjRGVqYVZ1U2Fucy0yMCIvPiYjeGE7ICAgICAgPHVzZSB4PSIzMjIuMjYxNzE5IiB4bGluazpocmVmPSIjRGVqYVZ1U2Fucy01YiIvPiYjeGE7ICAgICAgPHVzZSB4PSIzNjEuMjc1MzkxIiB4bGluazpocmVmPSIjRGVqYVZ1U2Fucy03MCIvPiYjeGE7ICAgICAgPHVzZSB4PSI0MjQuNzUxOTUzIiB4bGluazpocmVmPSIjRGVqYVZ1U2Fucy03OCIvPiYjeGE7ICAgICAgPHVzZSB4PSI0ODMuOTMxNjQxIiB4bGluazpocmVmPSIjRGVqYVZ1U2Fucy01ZCIvPiYjeGE7ICAgICA8L2c+JiN4YTsgICAgPC9nPiYjeGE7ICAgPC9nPiYjeGE7ICAgPGcgaWQ9Im1hdHBsb3RsaWIuYXhpc18yIj4mI3hhOyAgICA8ZyBpZD0ieXRpY2tfMSI+JiN4YTsgICAgIDxnIGlkPSJsaW5lMmRfNiI+JiN4YTsgICAgICA8ZGVmcz4mI3hhOyAgICAgICA8cGF0aCBzdHlsZT0ic3Ryb2tlOiAjMDAwMDAwOyBzdHJva2Utd2lkdGg6IDAuOCIgZD0iTSAwIDAgJiMxMDtMIC0zLjUgMCIgaWQ9Im1hYWExYmRmNmI0Ii8+JiN4YTsgICAgICA8L2RlZnM+JiN4YTsgICAgICA8Zz4mI3hhOyAgICAgICA8dXNlIHN0eWxlPSJzdHJva2U6ICMwMDAwMDA7IHN0cm9rZS13aWR0aDogMC44IiB5PSIxMC45OTkyMTkiIHg9IjQwLjYwMzEyNSIgeGxpbms6aHJlZj0iI21hYWExYmRmNmI0Ii8+JiN4YTsgICAgICA8L2c+JiN4YTsgICAgIDwvZz4mI3hhOyAgICAgPGcgaWQ9InRleHRfNyI+JiN4YTsgICAgICAmI3hhOyAgICAgIDxnIHRyYW5zZm9ybT0idHJhbnNsYXRlKDI3LjI0MDYyNSAxNC43OTg0MzcpIHNjYWxlKDAuMSAtMC4xKSI+JiN4YTsgICAgICAgPHVzZSB4bGluazpocmVmPSIjRGVqYVZ1U2Fucy0zMCIvPiYjeGE7ICAgICAgPC9nPiYjeGE7ICAgICA8L2c+JiN4YTsgICAgPC9nPiYjeGE7ICAgIDxnIGlkPSJ5dGlja18yIj4mI3hhOyAgICAgPGcgaWQ9ImxpbmUyZF83Ij4mI3hhOyAgICAgIDxnPiYjeGE7ICAgICAgIDx1c2Ugc3R5bGU9InN0cm9rZTogIzAwMDAwMDsgc3Ryb2tlLXdpZHRoOiAwLjgiIHk9IjQ5LjgwNzIxOSIgeD0iNDAuNjAzMTI1IiB4bGluazpocmVmPSIjbWFhYTFiZGY2YjQiLz4mI3hhOyAgICAgIDwvZz4mI3hhOyAgICAgPC9nPiYjeGE7ICAgICA8ZyBpZD0idGV4dF84Ij4mI3hhOyAgICAgICYjeGE7ICAgICAgPGcgdHJhbnNmb3JtPSJ0cmFuc2xhdGUoMjAuODc4MTI1IDUzLjYwNjQzNykgc2NhbGUoMC4xIC0wLjEpIj4mI3hhOyAgICAgICA8dXNlIHhsaW5rOmhyZWY9IiNEZWphVnVTYW5zLTMxIi8+JiN4YTsgICAgICAgPHVzZSB4PSI2My42MjMwNDciIHhsaW5rOmhyZWY9IiNEZWphVnVTYW5zLTMwIi8+JiN4YTsgICAgICA8L2c+JiN4YTsgICAgIDwvZz4mI3hhOyAgICA8L2c+JiN4YTsgICAgPGcgaWQ9Inl0aWNrXzMiPiYjeGE7ICAgICA8ZyBpZD0ibGluZTJkXzgiPiYjeGE7ICAgICAgPGc+JiN4YTsgICAgICAgPHVzZSBzdHlsZT0ic3Ryb2tlOiAjMDAwMDAwOyBzdHJva2Utd2lkdGg6IDAuOCIgeT0iODguNjE1MjE5IiB4PSI0MC42MDMxMjUiIHhsaW5rOmhyZWY9IiNtYWFhMWJkZjZiNCIvPiYjeGE7ICAgICAgPC9nPiYjeGE7ICAgICA8L2c+JiN4YTsgICAgIDxnIGlkPSJ0ZXh0XzkiPiYjeGE7ICAgICAgJiN4YTsgICAgICA8ZyB0cmFuc2Zvcm09InRyYW5zbGF0ZSgyMC44NzgxMjUgOTIuNDE0NDM3KSBzY2FsZSgwLjEgLTAuMSkiPiYjeGE7ICAgICAgIDx1c2UgeGxpbms6aHJlZj0iI0RlamFWdVNhbnMtMzIiLz4mI3hhOyAgICAgICA8dXNlIHg9IjYzLjYyMzA0NyIgeGxpbms6aHJlZj0iI0RlamFWdVNhbnMtMzAiLz4mI3hhOyAgICAgIDwvZz4mI3hhOyAgICAgPC9nPiYjeGE7ICAgIDwvZz4mI3hhOyAgICA8ZyBpZD0ieXRpY2tfNCI+JiN4YTsgICAgIDxnIGlkPSJsaW5lMmRfOSI+JiN4YTsgICAgICA8Zz4mI3hhOyAgICAgICA8dXNlIHN0eWxlPSJzdHJva2U6ICMwMDAwMDA7IHN0cm9rZS13aWR0aDogMC44IiB5PSIxMjcuNDIzMjE5IiB4PSI0MC42MDMxMjUiIHhsaW5rOmhyZWY9IiNtYWFhMWJkZjZiNCIvPiYjeGE7ICAgICAgPC9nPiYjeGE7ICAgICA8L2c+JiN4YTsgICAgIDxnIGlkPSJ0ZXh0XzEwIj4mI3hhOyAgICAgICYjeGE7ICAgICAgPGcgdHJhbnNmb3JtPSJ0cmFuc2xhdGUoMjAuODc4MTI1IDEzMS4yMjI0MzcpIHNjYWxlKDAuMSAtMC4xKSI+JiN4YTsgICAgICAgPHVzZSB4bGluazpocmVmPSIjRGVqYVZ1U2Fucy0zMyIvPiYjeGE7ICAgICAgIDx1c2UgeD0iNjMuNjIzMDQ3IiB4bGluazpocmVmPSIjRGVqYVZ1U2Fucy0zMCIvPiYjeGE7ICAgICAgPC9nPiYjeGE7ICAgICA8L2c+JiN4YTsgICAgPC9nPiYjeGE7ICAgIDxnIGlkPSJ5dGlja181Ij4mI3hhOyAgICAgPGcgaWQ9ImxpbmUyZF8xMCI+JiN4YTsgICAgICA8Zz4mI3hhOyAgICAgICA8dXNlIHN0eWxlPSJzdHJva2U6ICMwMDAwMDA7IHN0cm9rZS13aWR0aDogMC44IiB5PSIxNjYuMjMxMjE5IiB4PSI0MC42MDMxMjUiIHhsaW5rOmhyZWY9IiNtYWFhMWJkZjZiNCIvPiYjeGE7ICAgICAgPC9nPiYjeGE7ICAgICA8L2c+JiN4YTsgICAgIDxnIGlkPSJ0ZXh0XzExIj4mI3hhOyAgICAgICYjeGE7ICAgICAgPGcgdHJhbnNmb3JtPSJ0cmFuc2xhdGUoMjAuODc4MTI1IDE3MC4wMzA0MzcpIHNjYWxlKDAuMSAtMC4xKSI+JiN4YTsgICAgICAgPHVzZSB4bGluazpocmVmPSIjRGVqYVZ1U2Fucy0zNCIvPiYjeGE7ICAgICAgIDx1c2UgeD0iNjMuNjIzMDQ3IiB4bGluazpocmVmPSIjRGVqYVZ1U2Fucy0zMCIvPiYjeGE7ICAgICAgPC9nPiYjeGE7ICAgICA8L2c+JiN4YTsgICAgPC9nPiYjeGE7ICAgIDxnIGlkPSJ0ZXh0XzEyIj4mI3hhOyAgICAgJiN4YTsgICAgIDxnIHRyYW5zZm9ybT0idHJhbnNsYXRlKDE0Ljc5ODQzOCAxMzQuMjMxOTQ0KSByb3RhdGUoLTkwKSBzY2FsZSgwLjEgLTAuMSkiPiYjeGE7ICAgICAgPGRlZnM+JiN4YTsgICAgICAgPHBhdGggdHJhbnNmb3JtPSJzY2FsZSgwLjAxNTYyNSkiIGQ9Ik0gNjI4IDQ2NjYgJiMxMDtMIDEyNTkgNDY2NiAmIzEwO0wgMTI1OSAyNzUzICYjMTA7TCAzNTUzIDI3NTMgJiMxMDtMIDM1NTMgNDY2NiAmIzEwO0wgNDE4NCA0NjY2ICYjMTA7TCA0MTg0IDAgJiMxMDtMIDM1NTMgMCAmIzEwO0wgMzU1MyAyMjIyICYjMTA7TCAxMjU5IDIyMjIgJiMxMDtMIDEyNTkgMCAmIzEwO0wgNjI4IDAgJiMxMDtMIDYyOCA0NjY2ICYjMTA7eiIgaWQ9IkRlamFWdVNhbnMtNDgiLz4mI3hhOyAgICAgICA8cGF0aCB0cmFuc2Zvcm09InNjYWxlKDAuMDE1NjI1KSIgZD0iTSAzNTk3IDE4OTQgJiMxMDtMIDM1OTcgMTYxMyAmIzEwO0wgOTUzIDE2MTMgJiMxMDtRIDk5MSAxMDE5IDEzMTEgNzA4ICYjMTA7USAxNjMxIDM5NyAyMjAzIDM5NyAmIzEwO1EgMjUzNCAzOTcgMjg0NSA0NzggJiMxMDtRIDMxNTYgNTU5IDM0NjMgNzIyICYjMTA7TCAzNDYzIDE3OCAmIzEwO1EgMzE1MyA0NyAyODI4IC0yMiAmIzEwO1EgMjUwMyAtOTEgMjE2OSAtOTEgJiMxMDtRIDEzMzEgLTkxIDg0MiAzOTYgJiMxMDtRIDM1MyA4ODQgMzUzIDE3MTYgJiMxMDtRIDM1MyAyNTc1IDgxNyAzMDc5ICYjMTA7USAxMjgxIDM1ODQgMjA2OSAzNTg0ICYjMTA7USAyNzc1IDM1ODQgMzE4NiAzMTI5ICYjMTA7USAzNTk3IDI2NzUgMzU5NyAxODk0ICYjMTA7eiYjMTA7TSAzMDIyIDIwNjMgJiMxMDtRIDMwMTYgMjUzNCAyNzU4IDI4MTUgJiMxMDtRIDI1MDAgMzA5NyAyMDc1IDMwOTcgJiMxMDtRIDE1OTQgMzA5NyAxMzA1IDI4MjUgJiMxMDtRIDEwMTYgMjU1MyA5NzIgMjA1OSAmIzEwO0wgMzAyMiAyMDYzICYjMTA7eiIgaWQ9IkRlamFWdVNhbnMtNjUiLz4mI3hhOyAgICAgICA8cGF0aCB0cmFuc2Zvcm09InNjYWxlKDAuMDE1NjI1KSIgZD0iTSAyOTA2IDE3OTEgJiMxMDtRIDI5MDYgMjQxNiAyNjQ4IDI3NTkgJiMxMDtRIDIzOTEgMzEwMyAxOTI1IDMxMDMgJiMxMDtRIDE0NjMgMzEwMyAxMjA1IDI3NTkgJiMxMDtRIDk0NyAyNDE2IDk0NyAxNzkxICYjMTA7USA5NDcgMTE2OSAxMjA1IDgyNSAmIzEwO1EgMTQ2MyA0ODEgMTkyNSA0ODEgJiMxMDtRIDIzOTEgNDgxIDI2NDggODI1ICYjMTA7USAyOTA2IDExNjkgMjkwNiAxNzkxICYjMTA7eiYjMTA7TSAzNDgxIDQzNCAmIzEwO1EgMzQ4MSAtNDU5IDMwODQgLTg5NSAmIzEwO1EgMjY4OCAtMTMzMSAxODY5IC0xMzMxICYjMTA7USAxNTY2IC0xMzMxIDEyOTcgLTEyODYgJiMxMDtRIDEwMjggLTEyNDEgNzc1IC0xMTQ3ICYjMTA7TCA3NzUgLTU4OCAmIzEwO1EgMTAyOCAtNzI1IDEyNzUgLTc5MCAmIzEwO1EgMTUyMiAtODU2IDE3NzggLTg1NiAmIzEwO1EgMjM0NCAtODU2IDI2MjUgLTU2MSAmIzEwO1EgMjkwNiAtMjY2IDI5MDYgMzMxICYjMTA7TCAyOTA2IDYxNiAmIzEwO1EgMjcyOCAzMDYgMjQ1MCAxNTMgJiMxMDtRIDIxNzIgMCAxNzg0IDAgJiMxMDtRIDExNDEgMCA3NDcgNDkwICYjMTA7USAzNTMgOTgxIDM1MyAxNzkxICYjMTA7USAzNTMgMjYwMyA3NDcgMzA5MyAmIzEwO1EgMTE0MSAzNTg0IDE3ODQgMzU4NCAmIzEwO1EgMjE3MiAzNTg0IDI0NTAgMzQzMSAmIzEwO1EgMjcyOCAzMjc4IDI5MDYgMjk2OSAmIzEwO0wgMjkwNiAzNTAwICYjMTA7TCAzNDgxIDM1MDAgJiMxMDtMIDM0ODEgNDM0ICYjMTA7eiIgaWQ9IkRlamFWdVNhbnMtNjciLz4mI3hhOyAgICAgIDwvZGVmcz4mI3hhOyAgICAgIDx1c2UgeGxpbms6aHJlZj0iI0RlamFWdVNhbnMtNDgiLz4mI3hhOyAgICAgIDx1c2UgeD0iNzUuMTk1MzEyIiB4bGluazpocmVmPSIjRGVqYVZ1U2Fucy02NSIvPiYjeGE7ICAgICAgPHVzZSB4PSIxMzYuNzE4NzUiIHhsaW5rOmhyZWY9IiNEZWphVnVTYW5zLTY5Ii8+JiN4YTsgICAgICA8dXNlIHg9IjE2NC41MDE5NTMiIHhsaW5rOmhyZWY9IiNEZWphVnVTYW5zLTY3Ii8+JiN4YTsgICAgICA8dXNlIHg9IjIyNy45Nzg1MTYiIHhsaW5rOmhyZWY9IiNEZWphVnVTYW5zLTY4Ii8+JiN4YTsgICAgICA8dXNlIHg9IjI5MS4zNTc0MjIiIHhsaW5rOmhyZWY9IiNEZWphVnVTYW5zLTc0Ii8+JiN4YTsgICAgICA8dXNlIHg9IjMzMC41NjY0MDYiIHhsaW5rOmhyZWY9IiNEZWphVnVTYW5zLTIwIi8+JiN4YTsgICAgICA8dXNlIHg9IjM2Mi4zNTM1MTYiIHhsaW5rOmhyZWY9IiNEZWphVnVTYW5zLTViIi8+JiN4YTsgICAgICA8dXNlIHg9IjQwMS4zNjcxODgiIHhsaW5rOmhyZWY9IiNEZWphVnVTYW5zLTcwIi8+JiN4YTsgICAgICA8dXNlIHg9IjQ2NC44NDM3NSIgeGxpbms6aHJlZj0iI0RlamFWdVNhbnMtNzgiLz4mI3hhOyAgICAgIDx1c2UgeD0iNTI0LjAyMzQzOCIgeGxpbms6aHJlZj0iI0RlamFWdVNhbnMtNWQiLz4mI3hhOyAgICAgPC9nPiYjeGE7ICAgIDwvZz4mI3hhOyAgIDwvZz4mI3hhOyAgIDxnIGlkPSJwYXRjaF8zIj4mI3hhOyAgICA8cGF0aCBzdHlsZT0iZmlsbDogbm9uZTsgc3Ryb2tlOiAjMDAwMDAwOyBzdHJva2Utd2lkdGg6IDAuODsgc3Ryb2tlLWxpbmVqb2luOiBtaXRlcjsgc3Ryb2tlLWxpbmVjYXA6IHNxdWFyZSIgZD0iTSA0MC42MDMxMjUgMjAzLjA5ODgxOSAmIzEwO0wgNDAuNjAzMTI1IDkuMDU4ODE5Ii8+JiN4YTsgICA8L2c+JiN4YTsgICA8ZyBpZD0icGF0Y2hfNCI+JiN4YTsgICAgPHBhdGggc3R5bGU9ImZpbGw6IG5vbmU7IHN0cm9rZTogIzAwMDAwMDsgc3Ryb2tlLXdpZHRoOiAwLjg7IHN0cm9rZS1saW5lam9pbjogbWl0ZXI7IHN0cm9rZS1saW5lY2FwOiBzcXVhcmUiIGQ9Ik0gMjM0LjY0MzEyNSAyMDMuMDk4ODE5ICYjMTA7TCAyMzQuNjQzMTI1IDkuMDU4ODE5Ii8+JiN4YTsgICA8L2c+JiN4YTsgICA8ZyBpZD0icGF0Y2hfNSI+JiN4YTsgICAgPHBhdGggc3R5bGU9ImZpbGw6IG5vbmU7IHN0cm9rZTogIzAwMDAwMDsgc3Ryb2tlLXdpZHRoOiAwLjg7IHN0cm9rZS1saW5lam9pbjogbWl0ZXI7IHN0cm9rZS1saW5lY2FwOiBzcXVhcmUiIGQ9Ik0gNDAuNjAzMTI1IDIwMy4wOTg4MTkgJiMxMDtMIDIzNC42NDMxMjUgMjAzLjA5ODgxOSIvPiYjeGE7ICAgPC9nPiYjeGE7ICAgPGcgaWQ9InBhdGNoXzYiPiYjeGE7ICAgIDxwYXRoIHN0eWxlPSJmaWxsOiBub25lOyBzdHJva2U6ICMwMDAwMDA7IHN0cm9rZS13aWR0aDogMC44OyBzdHJva2UtbGluZWpvaW46IG1pdGVyOyBzdHJva2UtbGluZWNhcDogc3F1YXJlIiBkPSJNIDQwLjYwMzEyNSA5LjA1ODgxOSAmIzEwO0wgMjM0LjY0MzEyNSA5LjA1ODgxOSIvPiYjeGE7ICAgPC9nPiYjeGE7ICA8L2c+JiN4YTsgIDxnIGlkPSJheGVzXzIiPiYjeGE7ICAgPGcgaWQ9InBhdGNoXzciPiYjeGE7ICAgIDxwYXRoIHN0eWxlPSJmaWxsOiAjZmZmZmZmIiBkPSJNIDI1MS4zODMxMjUgMjAzLjA5ODgxOSAmIzEwO0wgMjYxLjA4NTEyNSAyMDMuMDk4ODE5ICYjMTA7TCAyNjEuMDg1MTI1IDkuMDU4ODE5ICYjMTA7TCAyNTEuMzgzMTI1IDkuMDU4ODE5ICYjMTA7eiIvPiYjeGE7ICAgPC9nPiYjeGE7ICAgPGltYWdlIGhlaWdodD0iMTk0LjE2IiB3aWR0aD0iOS44NCIgeT0iLTguODgiIHg9IjI1MS4yOCIgdHJhbnNmb3JtPSJzY2FsZSgxIC0xKSB0cmFuc2xhdGUoMCAtMTk0LjE2KSIgaWQ9ImltYWdlNWJiNmMyOTk4MyIgeGxpbms6aHJlZj0iZGF0YTppbWFnZS9wbmc7YmFzZTY0LCYjMTA7aVZCT1J3MEtHZ29BQUFBTlNVaEVVZ0FBQUNrQUFBTXBDQVlBQUFDWmlCcHJBQUFGUGtsRVFWUjRuTzNjMFczRE1CREFVS1c0L1VmV2RZVGtnNEJOZ0c4Q0l1cEpzdFAyczd0N1h1N3Y2WUJmRkVtWmUxLy9JK240SkJXUnMzdWZidmhLOFVrcUlwdHVpaUt5NmFZb0lwdHVpaUt5NmFZVVNXa0xvaWdpUi9BQ3cvRkpLaUxuM2s0Y2hDSnlidFBOVUVUT050ME1SV1RUVFNtUzBuMlNvb2pzUGtsUlJEYmRGRVZrNzRJb2lzaGVSMU1Va1UwM1JSSFoyVTBwa3RJV1JGRkV6dTJDd1ZCRXpqYmRERVZrcjZNcGlzanVreFJGWkZjMVNwR1V0aUNLSXJJTEJrVVIyZU1EUlJIWmRGTVVrVTAzUlJIWmRGT0twUFQ0UUZGRXRnVlJGSkc5c0tJb0l0dk1LWXJJTm5PS0luSUVxKzM0SkJXUnZSeWdGRW5weEtFb0lqdHhLSXJJcHB1aWlPeHBrYUtJSE1GMTB2RkpLaUtiYmtxUmxMWWdpaUt5TFlpaWlCekJIelk1UGtsRlpKczVSUkhaWms1UlJNNzdGMXZ5U1JaSjZjU2hLQ0k3Y1NpS3lMNXNvaWdpMjh3cGlzaW1tNktJN095bUZFbnB4S0VvSWp0eEtJcklscHVpaU96OUpFVVIyZGxOVVVTMm1WTVVrUzAzcFVoS1A1TVVSV1IvKzBCUlJQYjRRRkZFdHBsVEZKRXROMFVSMlhKVGlxU000SGZoSFora0lySXRpS0tJYkxrcGlzaVdtNktJN09VQVJSSFpkNHVVSWltZE9CUkZaTXROVVVSMndhQW9JcHR1aWlLeSt5UkZFZGwwVXhTUm5kMlVJaWx0UVJSRjVPeCtubTc0U3ZGSktpS2Jib29pc3Q4Y29DZ2ltMjZLSXJMbHBoUko2WkdXb29oc0M2SW9JbnNkVFZGRU50MFVSV1JuTjBVUjJYUlRpcVQwTTBsUlJIYWZwQ2dpdTJCUUZKRnQ1aFJGWlArbmw2S0liTG9waXNpdWFwUWlLZDBuS1lySVRoeUtJckxscGlnaXUyQlFGSkZOTjBVUk9YdmV2OTZLVDdKSVNpY09SUkhaaVVOUlJMYmNGRVZrLzNTZG9vaHN1aW1LeUs1cWxDSXBmZDlOVVVSMjRsQVVrZDBuS1lySXBwdWlpR3k2S1lySWxwdWlpR3d6cHhSSmFRdWlLQ0o3T1VCUlJNNFZ2S0JVZkpLS3lEWnppaUt5elp5aWlHeTZLVVZTMm9Jb2lzaTJJSW9pc3NjSGlpS3l6WnlpaUd3enB5Z2k1Kzc3LysyNjRwTXNrakxiQllPaGlHd0xvaWdpdTA5U0ZKSGRKeW1LeU5uYlpvNVFSRGJkRkVYa2JGYzFScEdVdGlDS0lySXRpS0tJYkxvcGlzZ2VIeWlLeURaemlpS3l6WnhTSktVdGlLS0k3TnNIaWlLeTZhWW9JbHR1aWlLeXpaeWlpR3k2S1VWUzJvSW9pc2kySUlvaXN1V21LQ0xiekNtS3lLYWJvb2hzdWltS3lLYWJVaVNsbjBtS0luSk9KdzVERWRsMFV4U1IzU2NwaXNpbW02S0k3T3ltRkVscEM2SW9JbHR1aWlLeUU0ZWlpR3k2S1lySXBwdWlpR3k2S1VWU2VtRkZVVVRPYVF0aUtDSTdjU2lLeU82VEZFWGs3R202RVlySXBwdWlpT3pzcGhSSmFRdWlLQ0xiZ2lpS3lLYWJvb2hzdWltS3lLYWJvb2pzVFMrbFNFcGZObEVVa1cxQkZFVmswMDFSUkRiZEZFVmtqdzhVUldUZkxWS0twTFFGVVJTUnZaK2tLQ0tiYm9vaXNzY0hpaUt5bHdNVVJXVFRUVkZFZG5aVGlxUzBCVkVVa1Ywd0tJcklPYjJmWkNnaXUyQlFGSkc5K3FNb0lwdHVTcEdVZmlZcGlzaWVGaW1LeUo0V0tZcklwcHVpaUp4em1tNkVJcktyR3FWSVNtOHdLSXJJdGlDS0lyTDdKRVVSMlhSVEZKRTlQbEFVa1YzVktJcklObk5La1pUdWt4UkZaRnNRUlJIWmNsTVVrZjFxSWtVUjJWZkpGRVZrbXptbFNFcVBEeFJGWk84bktZcklUaHlLSXJMbHBpZ2lPN3NwaXNqWnptNUdrWlJPSElvaXN1V21LQ0o3SFUxUlJEYmRGRVZreTAxUlJMYmNsQ0lwL2F0d2lpS3lMWWlpaU96WEd5aUt5S2Fib29qc3EyU0tJckxObktLSTdDK2JLRVZTdW1CUUZKR2RPQlJGWk5OTlVVUTIzUlJGWlBkSmlpS3l6WnhTSktVdGlLS0liQXVpS0NLYmJvb2lzcjk5b0NnaW0yNktJckxscGhSSjZjU2hLQ0puYjh1TlVFUTIzUlJGNUQraGduQndCUEd1cVFBQUFBQkpSVTVFcmtKZ2dnPT0iLz4mI3hhOyAgIDxnIGlkPSJtYXRwbG90bGliLmF4aXNfMyIvPiYjeGE7ICAgPGcgaWQ9Im1hdHBsb3RsaWIuYXhpc180Ij4mI3hhOyAgICA8ZyBpZD0ieXRpY2tfNiI+JiN4YTsgICAgIDxnIGlkPSJsaW5lMmRfMTEiPiYjeGE7ICAgICAgPGRlZnM+JiN4YTsgICAgICAgPHBhdGggc3R5bGU9InN0cm9rZTogIzAwMDAwMDsgc3Ryb2tlLXdpZHRoOiAwLjgiIGQ9Ik0gMCAwICYjMTA7TCAzLjUgMCIgaWQ9Im00NzdmYzJmY2UwIi8+JiN4YTsgICAgICA8L2RlZnM+JiN4YTsgICAgICA8Zz4mI3hhOyAgICAgICA8dXNlIHN0eWxlPSJzdHJva2U6ICMwMDAwMDA7IHN0cm9rZS13aWR0aDogMC44IiB5PSIxODUuMjQ0NTIxIiB4PSIyNjEuMDg1MTI1IiB4bGluazpocmVmPSIjbTQ3N2ZjMmZjZTAiLz4mI3hhOyAgICAgIDwvZz4mI3hhOyAgICAgPC9nPiYjeGE7ICAgICA8ZyBpZD0idGV4dF8xMyI+JiN4YTsgICAgICAmI3hhOyAgICAgIDxnIHRyYW5zZm9ybT0idHJhbnNsYXRlKDI2OC4wODUxMjUgMTg5LjA0MzczOSkgc2NhbGUoMC4xIC0wLjEpIj4mI3hhOyAgICAgICA8ZGVmcz4mI3hhOyAgICAgICAgPHBhdGggdHJhbnNmb3JtPSJzY2FsZSgwLjAxNTYyNSkiIGQ9Ik0gNjc4IDIyNzIgJiMxMDtMIDQ2ODQgMjI3MiAmIzEwO0wgNDY4NCAxNzQxICYjMTA7TCA2NzggMTc0MSAmIzEwO0wgNjc4IDIyNzIgJiMxMDt6IiBpZD0iRGVqYVZ1U2Fucy0yMjEyIi8+JiN4YTsgICAgICAgIDxwYXRoIHRyYW5zZm9ybT0ic2NhbGUoMC4wMTU2MjUpIiBkPSJNIDY4NCA3OTQgJiMxMDtMIDEzNDQgNzk0ICYjMTA7TCAxMzQ0IDAgJiMxMDtMIDY4NCAwICYjMTA7TCA2ODQgNzk0ICYjMTA7eiIgaWQ9IkRlamFWdVNhbnMtMmUiLz4mI3hhOyAgICAgICA8L2RlZnM+JiN4YTsgICAgICAgPHVzZSB4bGluazpocmVmPSIjRGVqYVZ1U2Fucy0yMjEyIi8+JiN4YTsgICAgICAgPHVzZSB4PSI4My43ODkwNjIiIHhsaW5rOmhyZWY9IiNEZWphVnVTYW5zLTMxIi8+JiN4YTsgICAgICAgPHVzZSB4PSIxNDcuNDEyMTA5IiB4bGluazpocmVmPSIjRGVqYVZ1U2Fucy0yZSIvPiYjeGE7ICAgICAgIDx1c2UgeD0iMTc5LjE5OTIxOSIgeGxpbms6aHJlZj0iI0RlamFWdVNhbnMtMzAiLz4mI3hhOyAgICAgIDwvZz4mI3hhOyAgICAgPC9nPiYjeGE7ICAgIDwvZz4mI3hhOyAgICA8ZyBpZD0ieXRpY2tfNyI+JiN4YTsgICAgIDxnIGlkPSJsaW5lMmRfMTIiPiYjeGE7ICAgICAgPGc+JiN4YTsgICAgICAgPHVzZSBzdHlsZT0ic3Ryb2tlOiAjMDAwMDAwOyBzdHJva2Utd2lkdGg6IDAuOCIgeT0iMTQ5LjM2NTc5IiB4PSIyNjEuMDg1MTI1IiB4bGluazpocmVmPSIjbTQ3N2ZjMmZjZTAiLz4mI3hhOyAgICAgIDwvZz4mI3hhOyAgICAgPC9nPiYjeGE7ICAgICA8ZyBpZD0idGV4dF8xNCI+JiN4YTsgICAgICAmI3hhOyAgICAgIDxnIHRyYW5zZm9ybT0idHJhbnNsYXRlKDI2OC4wODUxMjUgMTUzLjE2NTAwOSkgc2NhbGUoMC4xIC0wLjEpIj4mI3hhOyAgICAgICA8ZGVmcz4mI3hhOyAgICAgICAgPHBhdGggdHJhbnNmb3JtPSJzY2FsZSgwLjAxNTYyNSkiIGQ9Ik0gNjkxIDQ2NjYgJiMxMDtMIDMxNjkgNDY2NiAmIzEwO0wgMzE2OSA0MTM0ICYjMTA7TCAxMjY5IDQxMzQgJiMxMDtMIDEyNjkgMjk5MSAmIzEwO1EgMTQwNiAzMDM4IDE1NDMgMzA2MSAmIzEwO1EgMTY4MSAzMDg0IDE4MTkgMzA4NCAmIzEwO1EgMjYwMCAzMDg0IDMwNTYgMjY1NiAmIzEwO1EgMzUxMyAyMjI4IDM1MTMgMTQ5NyAmIzEwO1EgMzUxMyA3NDQgMzA0NCAzMjYgJiMxMDtRIDI1NzUgLTkxIDE3MjIgLTkxICYjMTA7USAxNDI4IC05MSAxMTIzIC00MSAmIzEwO1EgODE5IDkgNDk0IDEwOSAmIzEwO0wgNDk0IDc0NCAmIzEwO1EgNzc1IDU5MSAxMDc1IDUxNiAmIzEwO1EgMTM3NSA0NDEgMTcwOSA0NDEgJiMxMDtRIDIyNTAgNDQxIDI1NjUgNzI1ICYjMTA7USAyODgxIDEwMDkgMjg4MSAxNDk3ICYjMTA7USAyODgxIDE5ODQgMjU2NSAyMjY4ICYjMTA7USAyMjUwIDI1NTMgMTcwOSAyNTUzICYjMTA7USAxNDU2IDI1NTMgMTIwNCAyNDk3ICYjMTA7USA5NTMgMjQ0MSA2OTEgMjMyMiAmIzEwO0wgNjkxIDQ2NjYgJiMxMDt6IiBpZD0iRGVqYVZ1U2Fucy0zNSIvPiYjeGE7ICAgICAgIDwvZGVmcz4mI3hhOyAgICAgICA8dXNlIHhsaW5rOmhyZWY9IiNEZWphVnVTYW5zLTIyMTIiLz4mI3hhOyAgICAgICA8dXNlIHg9IjgzLjc4OTA2MiIgeGxpbms6aHJlZj0iI0RlamFWdVNhbnMtMzAiLz4mI3hhOyAgICAgICA8dXNlIHg9IjE0Ny40MTIxMDkiIHhsaW5rOmhyZWY9IiNEZWphVnVTYW5zLTJlIi8+JiN4YTsgICAgICAgPHVzZSB4PSIxNzkuMTk5MjE5IiB4bGluazpocmVmPSIjRGVqYVZ1U2Fucy0zNSIvPiYjeGE7ICAgICAgPC9nPiYjeGE7ICAgICA8L2c+JiN4YTsgICAgPC9nPiYjeGE7ICAgIDxnIGlkPSJ5dGlja184Ij4mI3hhOyAgICAgPGcgaWQ9ImxpbmUyZF8xMyI+JiN4YTsgICAgICA8Zz4mI3hhOyAgICAgICA8dXNlIHN0eWxlPSJzdHJva2U6ICMwMDAwMDA7IHN0cm9rZS13aWR0aDogMC44IiB5PSIxMTMuNDg3MDYiIHg9IjI2MS4wODUxMjUiIHhsaW5rOmhyZWY9IiNtNDc3ZmMyZmNlMCIvPiYjeGE7ICAgICAgPC9nPiYjeGE7ICAgICA8L2c+JiN4YTsgICAgIDxnIGlkPSJ0ZXh0XzE1Ij4mI3hhOyAgICAgICYjeGE7ICAgICAgPGcgdHJhbnNmb3JtPSJ0cmFuc2xhdGUoMjY4LjA4NTEyNSAxMTcuMjg2Mjc4KSBzY2FsZSgwLjEgLTAuMSkiPiYjeGE7ICAgICAgIDx1c2UgeGxpbms6aHJlZj0iI0RlamFWdVNhbnMtMzAiLz4mI3hhOyAgICAgICA8dXNlIHg9IjYzLjYyMzA0NyIgeGxpbms6aHJlZj0iI0RlamFWdVNhbnMtMmUiLz4mI3hhOyAgICAgICA8dXNlIHg9Ijk1LjQxMDE1NiIgeGxpbms6aHJlZj0iI0RlamFWdVNhbnMtMzAiLz4mI3hhOyAgICAgIDwvZz4mI3hhOyAgICAgPC9nPiYjeGE7ICAgIDwvZz4mI3hhOyAgICA8ZyBpZD0ieXRpY2tfOSI+JiN4YTsgICAgIDxnIGlkPSJsaW5lMmRfMTQiPiYjeGE7ICAgICAgPGc+JiN4YTsgICAgICAgPHVzZSBzdHlsZT0ic3Ryb2tlOiAjMDAwMDAwOyBzdHJva2Utd2lkdGg6IDAuOCIgeT0iNzcuNjA4MzI5IiB4PSIyNjEuMDg1MTI1IiB4bGluazpocmVmPSIjbTQ3N2ZjMmZjZTAiLz4mI3hhOyAgICAgIDwvZz4mI3hhOyAgICAgPC9nPiYjeGE7ICAgICA8ZyBpZD0idGV4dF8xNiI+JiN4YTsgICAgICAmI3hhOyAgICAgIDxnIHRyYW5zZm9ybT0idHJhbnNsYXRlKDI2OC4wODUxMjUgODEuNDA3NTQ4KSBzY2FsZSgwLjEgLTAuMSkiPiYjeGE7ICAgICAgIDx1c2UgeGxpbms6aHJlZj0iI0RlamFWdVNhbnMtMzAiLz4mI3hhOyAgICAgICA8dXNlIHg9IjYzLjYyMzA0NyIgeGxpbms6aHJlZj0iI0RlamFWdVNhbnMtMmUiLz4mI3hhOyAgICAgICA8dXNlIHg9Ijk1LjQxMDE1NiIgeGxpbms6aHJlZj0iI0RlamFWdVNhbnMtMzUiLz4mI3hhOyAgICAgIDwvZz4mI3hhOyAgICAgPC9nPiYjeGE7ICAgIDwvZz4mI3hhOyAgICA8ZyBpZD0ieXRpY2tfMTAiPiYjeGE7ICAgICA8ZyBpZD0ibGluZTJkXzE1Ij4mI3hhOyAgICAgIDxnPiYjeGE7ICAgICAgIDx1c2Ugc3R5bGU9InN0cm9rZTogIzAwMDAwMDsgc3Ryb2tlLXdpZHRoOiAwLjgiIHk9IjQxLjcyOTU5OSIgeD0iMjYxLjA4NTEyNSIgeGxpbms6aHJlZj0iI200NzdmYzJmY2UwIi8+JiN4YTsgICAgICA8L2c+JiN4YTsgICAgIDwvZz4mI3hhOyAgICAgPGcgaWQ9InRleHRfMTciPiYjeGE7ICAgICAgJiN4YTsgICAgICA8ZyB0cmFuc2Zvcm09InRyYW5zbGF0ZSgyNjguMDg1MTI1IDQ1LjUyODgxNykgc2NhbGUoMC4xIC0wLjEpIj4mI3hhOyAgICAgICA8dXNlIHhsaW5rOmhyZWY9IiNEZWphVnVTYW5zLTMxIi8+JiN4YTsgICAgICAgPHVzZSB4PSI2My42MjMwNDciIHhsaW5rOmhyZWY9IiNEZWphVnVTYW5zLTJlIi8+JiN4YTsgICAgICAgPHVzZSB4PSI5NS40MTAxNTYiIHhsaW5rOmhyZWY9IiNEZWphVnVTYW5zLTMwIi8+JiN4YTsgICAgICA8L2c+JiN4YTsgICAgIDwvZz4mI3hhOyAgICA8L2c+JiN4YTsgICA8L2c+JiN4YTsgICA8ZyBpZD0iTGluZUNvbGxlY3Rpb25fMSIvPiYjeGE7ICAgPGcgaWQ9InBhdGNoXzgiPiYjeGE7ICAgIDxwYXRoIHN0eWxlPSJmaWxsOiBub25lOyBzdHJva2U6ICMwMDAwMDA7IHN0cm9rZS13aWR0aDogMC44OyBzdHJva2UtbGluZWpvaW46IG1pdGVyOyBzdHJva2UtbGluZWNhcDogc3F1YXJlIiBkPSJNIDI1MS4zODMxMjUgMjAzLjA5ODgxOSAmIzEwO0wgMjU2LjIzNDEyNSAyMDMuMDk4ODE5ICYjMTA7TCAyNjEuMDg1MTI1IDIwMy4wOTg4MTkgJiMxMDtMIDI2MS4wODUxMjUgOS4wNTg4MTkgJiMxMDtMIDI1Ni4yMzQxMjUgOS4wNTg4MTkgJiMxMDtMIDI1MS4zODMxMjUgOS4wNTg4MTkgJiMxMDtMIDI1MS4zODMxMjUgMjAzLjA5ODgxOSAmIzEwO3oiLz4mI3hhOyAgIDwvZz4mI3hhOyAgPC9nPiYjeGE7IDwvZz4mI3hhOyA8ZGVmcz4mI3hhOyAgPGNsaXBQYXRoIGlkPSJwZDk1ZDdhOWU2NCI+JiN4YTsgICA8cmVjdCBoZWlnaHQ9IjE5NC4wNCIgd2lkdGg9IjE5NC4wNCIgeT0iOS4wNTg4MTkiIHg9IjQwLjYwMzEyNSIvPiYjeGE7ICA8L2NsaXBQYXRoPiYjeGE7IDwvZGVmcz4mI3hhOzwvc3ZnPg==;" vertex="1" parent="1">
          <mxGeometry x="330" y="360" width="248.96" height="200" as="geometry" />
        </mxCell>
        <mxCell id="YgXDNj5GHgHn8prNvWCJ-24" value="" style="rounded=1;whiteSpace=wrap;html=1;fillColor=none;strokeColor=#FF0000;dashed=1;" vertex="1" parent="1">
          <mxGeometry x="80" y="480" width="70" height="70" as="geometry" />
        </mxCell>
        <mxCell id="YgXDNj5GHgHn8prNvWCJ-25" value="" style="rounded=1;whiteSpace=wrap;html=1;fillColor=none;strokeColor=#FF0000;dashed=1;" vertex="1" parent="1">
          <mxGeometry x="342" y="350" width="70" height="70" as="geometry" />
        </mxCell>
        <mxCell id="YgXDNj5GHgHn8prNvWCJ-32" value="" style="edgeStyle=orthogonalEdgeStyle;rounded=0;orthogonalLoop=1;jettySize=auto;html=1;strokeColor=#FF0000;dashed=1;endArrow=openThin;endFill=0;" edge="1" parent="1" source="YgXDNj5GHgHn8prNvWCJ-26" target="YgXDNj5GHgHn8prNvWCJ-24">
          <mxGeometry relative="1" as="geometry" />
        </mxCell>
        <mxCell id="YgXDNj5GHgHn8prNvWCJ-33" value="" style="edgeStyle=orthogonalEdgeStyle;rounded=0;orthogonalLoop=1;jettySize=auto;html=1;entryX=0.5;entryY=1;entryDx=0;entryDy=0;exitX=0.75;exitY=0;exitDx=0;exitDy=0;strokeColor=#FF0000;dashed=1;endArrow=openThin;endFill=0;" edge="1" parent="1" source="YgXDNj5GHgHn8prNvWCJ-26" target="YgXDNj5GHgHn8prNvWCJ-25">
          <mxGeometry relative="1" as="geometry">
            <Array as="points">
              <mxPoint x="334" y="480" />
              <mxPoint x="377" y="480" />
            </Array>
          </mxGeometry>
        </mxCell>
        <mxCell id="YgXDNj5GHgHn8prNvWCJ-26" value="&lt;font style=&quot;font-size: 10px;&quot; color=&quot;#ff0000&quot;&gt;Equivalent image corners&amp;nbsp;&lt;/font&gt;&lt;div style=&quot;line-height: 80%;&quot;&gt;&lt;font style=&quot;font-size: 10px;&quot; color=&quot;#ff0000&quot;&gt;that advect the same cluster of particles&lt;/font&gt;&lt;/div&gt;" style="text;html=1;align=center;verticalAlign=middle;whiteSpace=wrap;rounded=0;" vertex="1" parent="1">
          <mxGeometry x="192" y="560" width="190" height="30" as="geometry" />
        </mxCell>
        <mxCell id="YgXDNj5GHgHn8prNvWCJ-27" value="" style="endArrow=blockThin;html=1;rounded=0;endFill=1;strokeColor=#FF0000;strokeWidth=2;" edge="1" parent="1">
          <mxGeometry width="50" height="50" relative="1" as="geometry">
            <mxPoint x="120" y="520" as="sourcePoint" />
            <mxPoint x="120" y="490" as="targetPoint" />
          </mxGeometry>
        </mxCell>
        <mxCell id="YgXDNj5GHgHn8prNvWCJ-28" value="" style="endArrow=none;html=1;rounded=0;endFill=0;strokeColor=#FF0000;startArrow=blockThin;startFill=1;strokeWidth=2;" edge="1" parent="1">
          <mxGeometry width="50" height="50" relative="1" as="geometry">
            <mxPoint x="382" y="410" as="sourcePoint" />
            <mxPoint x="382" y="380" as="targetPoint" />
          </mxGeometry>
        </mxCell>
        <mxCell id="YgXDNj5GHgHn8prNvWCJ-29" value="&lt;p style=&quot;line-height: 60%;&quot;&gt;&lt;font style=&quot;font-size: 8px;&quot; color=&quot;#ff0000&quot;&gt;Particles moving towards the image center&lt;/font&gt;&lt;/p&gt;" style="text;html=1;align=center;verticalAlign=middle;whiteSpace=wrap;rounded=0;" vertex="1" parent="1">
          <mxGeometry x="158" y="490" width="93" height="30" as="geometry" />
        </mxCell>
        <mxCell id="YgXDNj5GHgHn8prNvWCJ-30" value="&lt;p style=&quot;line-height: 60%;&quot;&gt;&lt;font style=&quot;font-size: 8px;&quot; color=&quot;#ff0000&quot;&gt;Particles moving towards the image center&lt;/font&gt;&lt;/p&gt;" style="text;html=1;align=center;verticalAlign=middle;whiteSpace=wrap;rounded=0;" vertex="1" parent="1">
          <mxGeometry x="421" y="380" width="93" height="20" as="geometry" />
        </mxCell>
        <mxCell id="YgXDNj5GHgHn8prNvWCJ-31" value="&lt;p style=&quot;line-height: 60%;&quot;&gt;&lt;font style=&quot;font-size: 8px;&quot; color=&quot;#ff0000&quot;&gt;(requires swapping the sign)&lt;/font&gt;&lt;/p&gt;" style="text;html=1;align=center;verticalAlign=middle;whiteSpace=wrap;rounded=0;" vertex="1" parent="1">
          <mxGeometry x="403" y="400" width="129" height="20" as="geometry" />
        </mxCell>
      </root>
    </mxGraphModel>
  </diagram>
</mxfile>
